M48
INCH
T11C0.020
T22C0.060
T34C0.038
T35C0.035
T56C0.091
T57C0.037
T58C0.039
%
T11
X007086Y019539
X008389Y016492
X008452Y019106
X007299Y017799
X010779Y015748
X009984Y016299
X017492Y015763
X017511Y014976
X017047Y014562
X015594Y014456
X015669Y013622
X015216Y013212
X014515Y012421
X013901Y013618
X014106Y013074
X013291Y012417
X014204Y011019
X014271Y009614
X012019Y012153
X012015Y012724
X011141Y013472
X011362Y012480
X019432Y010947
X018401Y012307
X021712Y012984
X016464Y011212
X016566Y010677
X016574Y008240
X016539Y012437
X018373Y011098
X016901Y011712
X017243Y012098
X017137Y013240
X019401Y013185
X018594Y006897
X008759Y009657
X007523Y007354
X008393Y006972
X008090Y005799
X009007Y008838
X009307Y009570
X009854Y010574
X009161Y010590
X008429Y010795
X009055Y011271
X009137Y011818
X010299Y010992
X009759Y012417
X007169Y013846
X008200Y012763
X008980Y013456
X008425Y013921
X009464Y014216
X011346Y011657
X010519Y009759
X011098Y010779
X011330Y009637
T35
X006559Y014291
X006559Y015291
X006559Y007255
X006559Y009255
X006559Y010255
X006559Y008255
X005559Y014791
X006559Y016291
X006559Y017291
X005559Y016791
X005559Y017791
X005559Y015791
X005559Y007755
X005559Y009755
X005559Y008755
X005559Y010755
T57
X018712Y016472
X018712Y017456
X019499Y016472
X019499Y017456
T34
X012657Y005698
X013657Y005698
X014657Y005698
T58
X023346Y005287
X022346Y005287
X022346Y006287
X022346Y007287
X023346Y006287
X023346Y007287
X023346Y008287
X023346Y009287
X023346Y010287
X023346Y011287
X022346Y008287
X022346Y009287
X022346Y010287
X022346Y011287
T22
X013661Y004189
X016613Y004189
T56
X020566Y019326
X020566Y014602
M30
