G04 start of page 3 for group 1 idx 1 *
G04 Title: (unknown), solder *
G04 Creator: pcb 1.99z *
G04 CreationDate: Mon 26 Jul 2010 02:03:35 GMT UTC *
G04 For: rob *
G04 Format: Gerber/RS-274X *
G04 PCB-Dimensions: 248031 224409 *
G04 PCB-Coordinate-Origin: lower left *
%MOIN*%
%FSLAX25Y25*%
%LNBACK*%
%ADD11C,0.0200*%
%ADD12C,0.0098*%
%ADD14C,0.0197*%
%ADD15C,0.0148*%
%ADD17C,0.0248*%
%ADD18C,0.0079*%
%ADD19C,0.1378*%
%ADD20C,0.0610*%
%ADD21C,0.1260*%
%ADD22C,0.0600*%
%ADD23C,0.0630*%
%ADD24C,0.0394*%
%ADD26R,0.0283X0.0283*%
%ADD29R,0.0340X0.0340*%
%ADD31C,0.1250*%
%ADD32C,0.0905*%
%ADD33C,0.0374*%
%ADD34C,0.0380*%
%ADD35C,0.0350*%
%ADD36C,0.1280*%
%ADD37C,0.0197*%
%ADD38C,0.0348*%
%ADD39C,0.0198*%
%ADD40C,0.0394*%
%ADD41C,0.0298*%
%ADD42C,0.0498*%
%ADD43C,0.0097*%
%ADD44C,0.0398*%
%ADD45C,0.0448*%
%ADD46C,0.0129*%
%ADD47C,0.0547*%
%ADD48C,0.0697*%
%ADD49R,0.0512X0.0512*%
%ADD50R,0.0130X0.0130*%
%ADD51R,0.1450X0.1450*%
%ADD52C,0.0160*%
%ADD53R,0.0160X0.0160*%
%ADD54R,0.0240X0.0240*%
%ADD55R,0.0433X0.0433*%
G54D11*G36*
X214054Y165829D02*X214910Y164973D01*
Y142975D01*
X214054Y142119D01*
Y165829D01*
G37*
G36*
X225885Y116635D02*X226869Y115651D01*
Y115206D01*
X226808Y115306D01*
X226387Y115799D01*
X225894Y116220D01*
X225885Y116226D01*
Y116635D01*
G37*
G36*
X233464Y224409D02*X248031D01*
Y0D01*
X233464D01*
Y2491D01*
X234371Y2562D01*
X236408Y3051D01*
X238344Y3853D01*
X240130Y4948D01*
X241723Y6308D01*
X243083Y7901D01*
X244178Y9687D01*
X244980Y11623D01*
X245469Y13660D01*
X245633Y15748D01*
X245469Y17836D01*
X244980Y19873D01*
X244178Y21809D01*
X243083Y23595D01*
X241723Y25188D01*
X240130Y26548D01*
X238344Y27643D01*
X236408Y28445D01*
X234371Y28934D01*
X233464Y29005D01*
Y48748D01*
X236768Y48754D01*
X236918Y48790D01*
X237061Y48849D01*
X237192Y48930D01*
X237310Y49030D01*
X237410Y49148D01*
X237491Y49279D01*
X237550Y49422D01*
X237586Y49572D01*
X237598Y49726D01*
X237586Y56180D01*
X237550Y56330D01*
X237491Y56473D01*
X237410Y56604D01*
X237310Y56722D01*
X237192Y56822D01*
X237061Y56903D01*
X236918Y56962D01*
X236768Y56998D01*
X236614Y57010D01*
X233464Y57004D01*
Y58742D01*
X234111Y58793D01*
X234741Y58944D01*
X235341Y59193D01*
X235894Y59532D01*
X236387Y59953D01*
X236808Y60446D01*
X237147Y60999D01*
X237396Y61599D01*
X237547Y62229D01*
X237598Y62876D01*
X237547Y63523D01*
X237396Y64153D01*
X237147Y64753D01*
X236808Y65306D01*
X236387Y65799D01*
X235894Y66220D01*
X235341Y66559D01*
X234741Y66808D01*
X234111Y66959D01*
X233464Y67010D01*
Y68742D01*
X234111Y68793D01*
X234741Y68944D01*
X235341Y69193D01*
X235894Y69532D01*
X236387Y69953D01*
X236808Y70446D01*
X237147Y70999D01*
X237396Y71599D01*
X237547Y72229D01*
X237598Y72876D01*
X237547Y73523D01*
X237396Y74153D01*
X237147Y74753D01*
X236808Y75306D01*
X236387Y75799D01*
X235894Y76220D01*
X235341Y76559D01*
X234741Y76808D01*
X234111Y76959D01*
X233464Y77010D01*
Y78742D01*
X234111Y78793D01*
X234741Y78944D01*
X235341Y79193D01*
X235894Y79532D01*
X236387Y79953D01*
X236808Y80446D01*
X237147Y80999D01*
X237396Y81599D01*
X237547Y82229D01*
X237598Y82876D01*
X237547Y83523D01*
X237396Y84153D01*
X237147Y84753D01*
X236808Y85306D01*
X236387Y85799D01*
X235894Y86220D01*
X235341Y86559D01*
X234741Y86808D01*
X234111Y86959D01*
X233464Y87010D01*
Y88742D01*
X234111Y88793D01*
X234741Y88944D01*
X235341Y89193D01*
X235894Y89532D01*
X236387Y89953D01*
X236808Y90446D01*
X237147Y90999D01*
X237396Y91599D01*
X237547Y92229D01*
X237598Y92876D01*
X237547Y93523D01*
X237396Y94153D01*
X237147Y94753D01*
X236808Y95306D01*
X236387Y95799D01*
X235894Y96220D01*
X235341Y96559D01*
X234741Y96808D01*
X234111Y96959D01*
X233464Y97010D01*
Y98742D01*
X234111Y98793D01*
X234741Y98944D01*
X235341Y99193D01*
X235894Y99532D01*
X236387Y99953D01*
X236808Y100446D01*
X237147Y100999D01*
X237396Y101599D01*
X237547Y102229D01*
X237598Y102876D01*
X237547Y103523D01*
X237396Y104153D01*
X237147Y104753D01*
X236808Y105306D01*
X236387Y105799D01*
X235894Y106220D01*
X235341Y106559D01*
X234741Y106808D01*
X234111Y106959D01*
X233464Y107010D01*
Y108742D01*
X234111Y108793D01*
X234741Y108944D01*
X235341Y109193D01*
X235894Y109532D01*
X236387Y109953D01*
X236808Y110446D01*
X237147Y110999D01*
X237396Y111599D01*
X237547Y112229D01*
X237598Y112876D01*
X237547Y113523D01*
X237396Y114153D01*
X237147Y114753D01*
X236808Y115306D01*
X236387Y115799D01*
X235894Y116220D01*
X235341Y116559D01*
X234741Y116808D01*
X234111Y116959D01*
X233464Y117010D01*
Y195404D01*
X234371Y195475D01*
X236408Y195964D01*
X238344Y196766D01*
X240130Y197861D01*
X241723Y199221D01*
X243083Y200814D01*
X244178Y202600D01*
X244980Y204536D01*
X245469Y206573D01*
X245633Y208661D01*
X245469Y210749D01*
X244980Y212786D01*
X244178Y214722D01*
X243083Y216508D01*
X241723Y218101D01*
X240130Y219461D01*
X238344Y220556D01*
X236408Y221358D01*
X234371Y221847D01*
X233464Y221918D01*
Y224409D01*
G37*
G36*
Y117010D02*X232817Y116959D01*
X232187Y116808D01*
X231587Y116559D01*
X231034Y116220D01*
X230541Y115799D01*
X230120Y115306D01*
X229821Y114818D01*
Y116263D01*
X229803Y116493D01*
X229749Y116718D01*
X229697Y116844D01*
X229660Y116933D01*
X229614Y117008D01*
X229539Y117130D01*
X229389Y117306D01*
X229382Y117312D01*
X227162Y119532D01*
X227154Y122057D01*
X227118Y122207D01*
X227059Y122350D01*
X226978Y122481D01*
X226878Y122599D01*
X226760Y122699D01*
X226629Y122780D01*
X226486Y122839D01*
X226336Y122875D01*
X226182Y122887D01*
X225885Y122886D01*
Y196973D01*
X226222Y196766D01*
X228158Y195964D01*
X230195Y195475D01*
X232283Y195311D01*
X233464Y195404D01*
Y117010D01*
G37*
G36*
Y107010D02*X232817Y106959D01*
X232187Y106808D01*
X231925Y106699D01*
X229821Y108803D01*
Y110934D01*
X230120Y110446D01*
X230541Y109953D01*
X231034Y109532D01*
X231587Y109193D01*
X232187Y108944D01*
X232817Y108793D01*
X233464Y108742D01*
Y107010D01*
G37*
G36*
Y29005D02*X232283Y29098D01*
X230195Y28934D01*
X228158Y28445D01*
X226222Y27643D01*
X225885Y27436D01*
Y49526D01*
X225894Y49532D01*
X226387Y49953D01*
X226808Y50446D01*
X227147Y50999D01*
X227396Y51599D01*
X227547Y52229D01*
X227598Y52876D01*
X227547Y53523D01*
X227396Y54153D01*
X227147Y54753D01*
X226808Y55306D01*
X226387Y55799D01*
X225894Y56220D01*
X225885Y56226D01*
Y59526D01*
X225894Y59532D01*
X226387Y59953D01*
X226808Y60446D01*
X227147Y60999D01*
X227396Y61599D01*
X227547Y62229D01*
X227598Y62876D01*
X227547Y63523D01*
X227396Y64153D01*
X227147Y64753D01*
X226808Y65306D01*
X226387Y65799D01*
X225894Y66220D01*
X225885Y66226D01*
Y69526D01*
X225894Y69532D01*
X226387Y69953D01*
X226808Y70446D01*
X227147Y70999D01*
X227396Y71599D01*
X227547Y72229D01*
X227598Y72876D01*
X227547Y73523D01*
X227396Y74153D01*
X227147Y74753D01*
X226808Y75306D01*
X226387Y75799D01*
X225894Y76220D01*
X225885Y76226D01*
Y79526D01*
X225894Y79532D01*
X226387Y79953D01*
X226808Y80446D01*
X227147Y80999D01*
X227396Y81599D01*
X227547Y82229D01*
X227598Y82876D01*
X227547Y83523D01*
X227396Y84153D01*
X227147Y84753D01*
X226808Y85306D01*
X226387Y85799D01*
X225894Y86220D01*
X225885Y86226D01*
Y89526D01*
X225894Y89532D01*
X226387Y89953D01*
X226808Y90446D01*
X227147Y90999D01*
X227396Y91599D01*
X227547Y92229D01*
X227598Y92876D01*
X227547Y93523D01*
X227396Y94153D01*
X227147Y94753D01*
X226808Y95306D01*
X226387Y95799D01*
X225894Y96220D01*
X225885Y96226D01*
Y99526D01*
X225894Y99532D01*
X226387Y99953D01*
X226808Y100446D01*
X227147Y100999D01*
X227396Y101599D01*
X227547Y102229D01*
X227598Y102876D01*
X227547Y103523D01*
X227396Y104153D01*
X227147Y104753D01*
X226808Y105306D01*
X226387Y105799D01*
X225894Y106220D01*
X225885Y106226D01*
Y109526D01*
X225894Y109532D01*
X226387Y109953D01*
X226808Y110446D01*
X226869Y110546D01*
Y108192D01*
X226887Y107961D01*
X226941Y107736D01*
X227030Y107522D01*
X227151Y107324D01*
X227301Y107148D01*
X227308Y107142D01*
X229756Y104694D01*
X229532Y104153D01*
X229381Y103523D01*
X229330Y102876D01*
X229381Y102229D01*
X229532Y101599D01*
X229781Y100999D01*
X230120Y100446D01*
X230541Y99953D01*
X231034Y99532D01*
X231587Y99193D01*
X232187Y98944D01*
X232817Y98793D01*
X233464Y98742D01*
Y97010D01*
X232817Y96959D01*
X232187Y96808D01*
X231587Y96559D01*
X231034Y96220D01*
X230541Y95799D01*
X230120Y95306D01*
X229781Y94753D01*
X229532Y94153D01*
X229381Y93523D01*
X229330Y92876D01*
X229381Y92229D01*
X229532Y91599D01*
X229781Y90999D01*
X230120Y90446D01*
X230541Y89953D01*
X231034Y89532D01*
X231587Y89193D01*
X232187Y88944D01*
X232817Y88793D01*
X233464Y88742D01*
Y87010D01*
X232817Y86959D01*
X232187Y86808D01*
X231587Y86559D01*
X231034Y86220D01*
X230541Y85799D01*
X230120Y85306D01*
X229781Y84753D01*
X229532Y84153D01*
X229381Y83523D01*
X229330Y82876D01*
X229381Y82229D01*
X229532Y81599D01*
X229781Y80999D01*
X230120Y80446D01*
X230541Y79953D01*
X231034Y79532D01*
X231587Y79193D01*
X232187Y78944D01*
X232817Y78793D01*
X233464Y78742D01*
Y77010D01*
X232817Y76959D01*
X232187Y76808D01*
X231587Y76559D01*
X231034Y76220D01*
X230541Y75799D01*
X230120Y75306D01*
X229781Y74753D01*
X229532Y74153D01*
X229381Y73523D01*
X229330Y72876D01*
X229381Y72229D01*
X229532Y71599D01*
X229781Y70999D01*
X230120Y70446D01*
X230541Y69953D01*
X231034Y69532D01*
X231587Y69193D01*
X232187Y68944D01*
X232817Y68793D01*
X233464Y68742D01*
Y67010D01*
X232817Y66959D01*
X232187Y66808D01*
X231587Y66559D01*
X231034Y66220D01*
X230541Y65799D01*
X230120Y65306D01*
X229781Y64753D01*
X229532Y64153D01*
X229381Y63523D01*
X229330Y62876D01*
X229381Y62229D01*
X229532Y61599D01*
X229781Y60999D01*
X230120Y60446D01*
X230541Y59953D01*
X231034Y59532D01*
X231587Y59193D01*
X232187Y58944D01*
X232817Y58793D01*
X233464Y58742D01*
Y57004D01*
X230160Y56998D01*
X230010Y56962D01*
X229867Y56903D01*
X229736Y56822D01*
X229618Y56722D01*
X229518Y56604D01*
X229437Y56473D01*
X229378Y56330D01*
X229342Y56180D01*
X229330Y56026D01*
X229342Y49572D01*
X229378Y49422D01*
X229437Y49279D01*
X229518Y49148D01*
X229618Y49030D01*
X229736Y48930D01*
X229867Y48849D01*
X230010Y48790D01*
X230160Y48754D01*
X230314Y48742D01*
X233464Y48748D01*
Y29005D01*
G37*
G36*
Y0D02*X225885D01*
Y4060D01*
X226222Y3853D01*
X228158Y3051D01*
X230195Y2562D01*
X232283Y2398D01*
X233464Y2491D01*
Y0D01*
G37*
G36*
X225885Y224409D02*X233464D01*
Y221918D01*
X232283Y222011D01*
X230195Y221847D01*
X228158Y221358D01*
X226222Y220556D01*
X225885Y220349D01*
Y224409D01*
G37*
G36*
Y106226D02*X225341Y106559D01*
X224741Y106808D01*
X224111Y106959D01*
X223464Y107010D01*
X222817Y106959D01*
X222187Y106808D01*
X221587Y106559D01*
X221034Y106220D01*
X220541Y105799D01*
X220120Y105306D01*
X219978Y105074D01*
Y110678D01*
X220120Y110446D01*
X220541Y109953D01*
X221034Y109532D01*
X221587Y109193D01*
X222187Y108944D01*
X222817Y108793D01*
X223464Y108742D01*
X224111Y108793D01*
X224741Y108944D01*
X225341Y109193D01*
X225885Y109526D01*
Y106226D01*
G37*
G36*
Y96226D02*X225341Y96559D01*
X224741Y96808D01*
X224111Y96959D01*
X223464Y97010D01*
X222817Y96959D01*
X222187Y96808D01*
X221587Y96559D01*
X221034Y96220D01*
X220541Y95799D01*
X220120Y95306D01*
X219978Y95074D01*
Y100678D01*
X220120Y100446D01*
X220541Y99953D01*
X221034Y99532D01*
X221587Y99193D01*
X222187Y98944D01*
X222817Y98793D01*
X223464Y98742D01*
X224111Y98793D01*
X224741Y98944D01*
X225341Y99193D01*
X225885Y99526D01*
Y96226D01*
G37*
G36*
Y86226D02*X225341Y86559D01*
X224741Y86808D01*
X224111Y86959D01*
X223464Y87010D01*
X222817Y86959D01*
X222187Y86808D01*
X221587Y86559D01*
X221034Y86220D01*
X220541Y85799D01*
X220120Y85306D01*
X219978Y85074D01*
Y90678D01*
X220120Y90446D01*
X220541Y89953D01*
X221034Y89532D01*
X221587Y89193D01*
X222187Y88944D01*
X222817Y88793D01*
X223464Y88742D01*
X224111Y88793D01*
X224741Y88944D01*
X225341Y89193D01*
X225885Y89526D01*
Y86226D01*
G37*
G36*
Y76226D02*X225341Y76559D01*
X224741Y76808D01*
X224111Y76959D01*
X223464Y77010D01*
X222817Y76959D01*
X222187Y76808D01*
X221587Y76559D01*
X221034Y76220D01*
X220541Y75799D01*
X220120Y75306D01*
X219978Y75074D01*
Y80678D01*
X220120Y80446D01*
X220541Y79953D01*
X221034Y79532D01*
X221587Y79193D01*
X222187Y78944D01*
X222817Y78793D01*
X223464Y78742D01*
X224111Y78793D01*
X224741Y78944D01*
X225341Y79193D01*
X225885Y79526D01*
Y76226D01*
G37*
G36*
Y66226D02*X225341Y66559D01*
X224741Y66808D01*
X224111Y66959D01*
X223464Y67010D01*
X222817Y66959D01*
X222187Y66808D01*
X221840Y66664D01*
X219978Y68526D01*
Y70678D01*
X220120Y70446D01*
X220541Y69953D01*
X221034Y69532D01*
X221587Y69193D01*
X222187Y68944D01*
X222817Y68793D01*
X223464Y68742D01*
X224111Y68793D01*
X224741Y68944D01*
X225341Y69193D01*
X225885Y69526D01*
Y66226D01*
G37*
G36*
X214054Y224409D02*X225885D01*
Y220349D01*
X224436Y219461D01*
X222843Y218101D01*
X221483Y216508D01*
X220388Y214722D01*
X219586Y212786D01*
X219097Y210749D01*
X218933Y208661D01*
X219097Y206573D01*
X219586Y204536D01*
X220388Y202600D01*
X221483Y200814D01*
X222843Y199221D01*
X224436Y197861D01*
X225885Y196973D01*
Y122886D01*
X223196Y122875D01*
X223046Y122839D01*
X222903Y122780D01*
X222772Y122699D01*
X222654Y122599D01*
X222554Y122481D01*
X222473Y122350D01*
X222414Y122207D01*
X222378Y122057D01*
X222366Y121903D01*
X222378Y117949D01*
X222414Y117799D01*
X222473Y117656D01*
X222554Y117525D01*
X222654Y117407D01*
X222772Y117307D01*
X222903Y117226D01*
X223046Y117167D01*
X223196Y117131D01*
X223350Y117119D01*
X225393Y117127D01*
X225885Y116635D01*
Y116226D01*
X225341Y116559D01*
X224741Y116808D01*
X224111Y116959D01*
X223464Y117010D01*
X222817Y116959D01*
X222187Y116808D01*
X221587Y116559D01*
X221034Y116220D01*
X220541Y115799D01*
X220120Y115306D01*
X219978Y115074D01*
Y117129D01*
X220502Y117131D01*
X220652Y117167D01*
X220795Y117226D01*
X220926Y117307D01*
X221044Y117407D01*
X221144Y117525D01*
X221225Y117656D01*
X221284Y117799D01*
X221320Y117949D01*
X221332Y118103D01*
X221320Y122057D01*
X221284Y122207D01*
X221225Y122350D01*
X221144Y122481D01*
X221044Y122599D01*
X220926Y122699D01*
X220795Y122780D01*
X220652Y122839D01*
X220502Y122875D01*
X220348Y122887D01*
X219978Y122886D01*
Y128468D01*
X219977Y128486D01*
X219960Y128698D01*
X219914Y128889D01*
X219932Y128932D01*
X220041Y129383D01*
X220077Y129845D01*
X220041Y130307D01*
X219932Y130758D01*
X219755Y131186D01*
X219513Y131581D01*
X219212Y131933D01*
X218860Y132234D01*
X218465Y132476D01*
X218037Y132653D01*
X217586Y132762D01*
X217124Y132798D01*
X216662Y132762D01*
X216211Y132653D01*
X215783Y132476D01*
X215388Y132234D01*
X215036Y131933D01*
X214735Y131581D01*
X214493Y131186D01*
X214316Y130758D01*
X214207Y130307D01*
X214171Y129845D01*
X214207Y129383D01*
X214316Y128932D01*
X214493Y128504D01*
X214735Y128109D01*
X215036Y127757D01*
X215388Y127456D01*
X215783Y127214D01*
X216211Y127037D01*
X216662Y126928D01*
X217026Y126900D01*
Y122753D01*
X216938Y122699D01*
X216820Y122599D01*
X216720Y122481D01*
X216639Y122350D01*
X216580Y122207D01*
X216544Y122057D01*
X216532Y121903D01*
X216544Y117949D01*
X216580Y117799D01*
X216639Y117656D01*
X216720Y117525D01*
X216820Y117407D01*
X216938Y117307D01*
X217026Y117253D01*
Y67837D01*
X217044Y67606D01*
X217098Y67381D01*
X217187Y67167D01*
X217308Y66969D01*
X217458Y66793D01*
X217634Y66643D01*
X217770Y66560D01*
X219721Y64609D01*
X219532Y64153D01*
X219381Y63523D01*
X219330Y62876D01*
X219381Y62229D01*
X219532Y61599D01*
X219781Y60999D01*
X220120Y60446D01*
X220541Y59953D01*
X221034Y59532D01*
X221587Y59193D01*
X222187Y58944D01*
X222817Y58793D01*
X223464Y58742D01*
X224111Y58793D01*
X224741Y58944D01*
X225341Y59193D01*
X225885Y59526D01*
Y56226D01*
X225341Y56559D01*
X224741Y56808D01*
X224111Y56959D01*
X223464Y57010D01*
X222817Y56959D01*
X222187Y56808D01*
X221587Y56559D01*
X221034Y56220D01*
X220541Y55799D01*
X220120Y55306D01*
X219781Y54753D01*
X219532Y54153D01*
X219381Y53523D01*
X219330Y52876D01*
X219381Y52229D01*
X219532Y51599D01*
X219781Y50999D01*
X220120Y50446D01*
X220541Y49953D01*
X221034Y49532D01*
X221587Y49193D01*
X222187Y48944D01*
X222817Y48793D01*
X223464Y48742D01*
X224111Y48793D01*
X224741Y48944D01*
X225341Y49193D01*
X225885Y49526D01*
Y27436D01*
X224436Y26548D01*
X222843Y25188D01*
X221483Y23595D01*
X220388Y21809D01*
X219586Y19873D01*
X219097Y17836D01*
X218933Y15748D01*
X219097Y13660D01*
X219586Y11623D01*
X220388Y9687D01*
X221483Y7901D01*
X222843Y6308D01*
X224436Y4948D01*
X225885Y4060D01*
Y0D01*
X214054D01*
Y26469D01*
X215989Y26479D01*
X216218Y26534D01*
X216435Y26624D01*
X216636Y26747D01*
X216815Y26900D01*
X216968Y27079D01*
X217091Y27280D01*
X217181Y27497D01*
X217236Y27726D01*
X217254Y27961D01*
X217236Y32196D01*
X217181Y32425D01*
X217091Y32642D01*
X216968Y32843D01*
X216815Y33022D01*
X216636Y33175D01*
X216435Y33298D01*
X216218Y33388D01*
X215989Y33443D01*
X215754Y33461D01*
X214054Y33453D01*
Y132289D01*
X220830Y139065D01*
X220844Y139077D01*
X221198Y139492D01*
X221483Y139957D01*
X221692Y140461D01*
X221819Y140991D01*
X221862Y141535D01*
Y165392D01*
X221819Y165936D01*
X221692Y166466D01*
X221483Y166970D01*
X221198Y167435D01*
X220844Y167850D01*
X220429Y168204D01*
X219964Y168489D01*
X219460Y168698D01*
X218930Y168825D01*
X218754Y168839D01*
X214054Y173539D01*
Y224409D01*
G37*
G36*
X186024Y32757D02*X187929Y30852D01*
X186024D01*
Y32757D01*
G37*
G36*
Y43618D02*X187518Y43624D01*
X187668Y43660D01*
X187811Y43719D01*
X187942Y43800D01*
X188060Y43900D01*
X188160Y44018D01*
X188241Y44149D01*
X188300Y44292D01*
X188304Y44310D01*
X188946D01*
X188987Y44140D01*
X189077Y43923D01*
X189200Y43722D01*
X189353Y43543D01*
X189532Y43390D01*
X189733Y43267D01*
X189950Y43177D01*
X190179Y43122D01*
X190414Y43104D01*
X193049Y43122D01*
X193278Y43177D01*
X193495Y43267D01*
X193496Y43268D01*
Y42919D01*
X190593Y42916D01*
X190440Y42879D01*
X190295Y42819D01*
X190161Y42737D01*
X190042Y42635D01*
X189940Y42516D01*
X189858Y42382D01*
X189798Y42237D01*
X189761Y42084D01*
X189749Y41928D01*
X189761Y36654D01*
X189798Y36501D01*
X189858Y36356D01*
X189940Y36222D01*
X190042Y36103D01*
X190161Y36001D01*
X190295Y35919D01*
X190440Y35859D01*
X190593Y35822D01*
X190749Y35810D01*
X201533Y35822D01*
X201686Y35859D01*
X201831Y35919D01*
X201965Y36001D01*
X202084Y36103D01*
X202186Y36222D01*
X202268Y36356D01*
X202328Y36501D01*
X202365Y36654D01*
X202377Y36810D01*
X202367Y41136D01*
X206969Y36534D01*
X206972Y35926D01*
X207027Y35697D01*
X207117Y35480D01*
X207240Y35279D01*
X207393Y35100D01*
X207572Y34947D01*
X207773Y34824D01*
X207990Y34734D01*
X208219Y34679D01*
X208454Y34661D01*
X212089Y34679D01*
X212318Y34734D01*
X212535Y34824D01*
X212736Y34947D01*
X212915Y35100D01*
X213068Y35279D01*
X213191Y35480D01*
X213281Y35697D01*
X213336Y35926D01*
X213354Y36161D01*
X213351Y36958D01*
X213410Y37027D01*
X213572Y37291D01*
X213690Y37577D01*
X213763Y37879D01*
X213787Y38188D01*
Y46850D01*
X213763Y47159D01*
X213705Y47400D01*
X213704Y47716D01*
X213667Y47869D01*
X213607Y48014D01*
X213525Y48148D01*
X213423Y48267D01*
X213304Y48369D01*
X213170Y48451D01*
X213025Y48511D01*
X213022Y48512D01*
X212899Y48712D01*
X212672Y48978D01*
X212660Y48989D01*
X212661D01*
X212875Y49078D01*
X213073Y49199D01*
X213249Y49349D01*
X213399Y49525D01*
X213520Y49723D01*
X213609Y49937D01*
X213663Y50162D01*
X213681Y50393D01*
Y53215D01*
X213704Y53310D01*
X213716Y53466D01*
X213704Y57952D01*
X213667Y58105D01*
X213607Y58250D01*
X213525Y58384D01*
X213423Y58503D01*
X213304Y58605D01*
X213287Y58615D01*
Y66930D01*
X213286Y66948D01*
X213269Y67160D01*
X213215Y67385D01*
X213163Y67511D01*
X213126Y67600D01*
X213080Y67675D01*
X213005Y67797D01*
X212855Y67973D01*
X212848Y67979D01*
X211028Y69799D01*
X211027Y70746D01*
X210990Y70899D01*
X210930Y71044D01*
X210848Y71178D01*
X210746Y71297D01*
X210627Y71399D01*
X210493Y71481D01*
X210348Y71541D01*
X210195Y71578D01*
X210039Y71590D01*
X209815Y71589D01*
Y90687D01*
X209854Y91180D01*
Y128089D01*
X214054Y132289D01*
Y33453D01*
X212119Y33443D01*
X211890Y33388D01*
X211673Y33298D01*
X211472Y33175D01*
X211293Y33022D01*
X211140Y32843D01*
X211017Y32642D01*
X210927Y32425D01*
X210872Y32196D01*
X210854Y31961D01*
X210872Y27726D01*
X210927Y27497D01*
X211017Y27280D01*
X211140Y27079D01*
X211293Y26900D01*
X211472Y26747D01*
X211673Y26624D01*
X211890Y26534D01*
X212119Y26479D01*
X212354Y26461D01*
X214054Y26469D01*
Y0D01*
X186024D01*
Y24400D01*
X189950D01*
X190042Y24293D01*
X190161Y24191D01*
X190295Y24109D01*
X190440Y24049D01*
X190593Y24012D01*
X190749Y24000D01*
X201533Y24012D01*
X201686Y24049D01*
X201831Y24109D01*
X201965Y24191D01*
X202049Y24263D01*
X202329Y24147D01*
X202707Y24057D01*
X203094Y24026D01*
X203481Y24057D01*
X203859Y24147D01*
X204218Y24296D01*
X204549Y24499D01*
X204844Y24751D01*
X206564Y26471D01*
X208189Y26479D01*
X208418Y26534D01*
X208635Y26624D01*
X208836Y26747D01*
X209015Y26900D01*
X209168Y27079D01*
X209291Y27280D01*
X209381Y27497D01*
X209436Y27726D01*
X209454Y27961D01*
X209436Y32196D01*
X209381Y32425D01*
X209291Y32642D01*
X209168Y32843D01*
X209015Y33022D01*
X208836Y33175D01*
X208635Y33298D01*
X208418Y33388D01*
X208189Y33443D01*
X207954Y33461D01*
X204319Y33443D01*
X204090Y33388D01*
X203873Y33298D01*
X203672Y33175D01*
X203493Y33022D01*
X203340Y32843D01*
X203217Y32642D01*
X203127Y32425D01*
X203072Y32196D01*
X203054Y31961D01*
X203058Y30967D01*
X201900D01*
X201831Y31009D01*
X201686Y31069D01*
X201533Y31106D01*
X201377Y31118D01*
X193969Y31110D01*
X186024Y39055D01*
Y43618D01*
G37*
G36*
X205667Y174216D02*X214054Y165829D01*
Y142119D01*
X205667Y133732D01*
Y138151D01*
X206899Y138248D01*
X208100Y138536D01*
X209242Y139009D01*
X210295Y139655D01*
X211235Y140457D01*
X212037Y141397D01*
X212683Y142450D01*
X213156Y143592D01*
X213444Y144793D01*
X213541Y146025D01*
X213444Y147257D01*
X213156Y148458D01*
X212683Y149600D01*
X212037Y150653D01*
X211235Y151593D01*
X210295Y152395D01*
X209242Y153041D01*
X208100Y153514D01*
X206899Y153802D01*
X205667Y153899D01*
Y174216D01*
G37*
G36*
X186024Y94621D02*X186156Y94540D01*
X186373Y94450D01*
X186602Y94395D01*
X186837Y94377D01*
X190872Y94395D01*
X191101Y94450D01*
X191318Y94540D01*
X191519Y94663D01*
X191698Y94816D01*
X191851Y94995D01*
X191974Y95196D01*
X192064Y95413D01*
X192119Y95642D01*
X192137Y95877D01*
X192119Y97712D01*
X192064Y97941D01*
X192049Y97977D01*
X192064Y98013D01*
X192119Y98242D01*
X192137Y98477D01*
X192119Y100312D01*
X192067Y100527D01*
X192119Y100742D01*
X192137Y100977D01*
X192119Y102812D01*
X192064Y103041D01*
X192049Y103077D01*
X192064Y103113D01*
X192119Y103342D01*
X192137Y103577D01*
X192119Y105412D01*
X192067Y105627D01*
X192119Y105842D01*
X192137Y106077D01*
X192123Y107527D01*
X192241Y107389D01*
X192593Y107088D01*
X192988Y106846D01*
X193416Y106669D01*
X193867Y106560D01*
X194329Y106524D01*
X194791Y106560D01*
X195242Y106669D01*
X195670Y106846D01*
X196065Y107088D01*
X196417Y107389D01*
X196718Y107741D01*
X196960Y108136D01*
X197137Y108564D01*
X197246Y109015D01*
X197282Y109477D01*
X197246Y109939D01*
X197137Y110390D01*
X196960Y110818D01*
X196718Y111213D01*
X196417Y111565D01*
X196065Y111866D01*
X195670Y112108D01*
X195242Y112285D01*
X194791Y112394D01*
X194329Y112430D01*
X193867Y112394D01*
X193416Y112285D01*
X192988Y112108D01*
X192593Y111866D01*
X192241Y111565D01*
X192135Y111441D01*
X192119Y113112D01*
X192118Y113118D01*
X192131Y113119D01*
X192356Y113173D01*
X192570Y113262D01*
X192768Y113383D01*
X192944Y113533D01*
X193094Y113709D01*
X193215Y113907D01*
X193304Y114121D01*
X193358Y114346D01*
X193376Y114577D01*
X193358Y114808D01*
X193304Y115033D01*
X193215Y115247D01*
X193094Y115445D01*
X192944Y115621D01*
X192768Y115771D01*
X192570Y115892D01*
X192356Y115981D01*
X192131Y116035D01*
X192094Y116038D01*
X192119Y116142D01*
X192137Y116377D01*
X192119Y118212D01*
X192067Y118427D01*
X192119Y118642D01*
X192137Y118877D01*
X192119Y120712D01*
X192064Y120941D01*
X192049Y120977D01*
X192064Y121013D01*
X192119Y121242D01*
X192137Y121477D01*
X192119Y123312D01*
X192098Y123401D01*
X192555D01*
X192786Y123419D01*
X192796Y123421D01*
X192829Y123424D01*
X193054Y123478D01*
X193268Y123567D01*
X193465Y123688D01*
X193641Y123838D01*
X195006Y125203D01*
X195020Y125215D01*
X195170Y125391D01*
X195292Y125589D01*
X195380Y125803D01*
X195434Y126028D01*
X195452Y126259D01*
Y126646D01*
X195474Y126737D01*
X195492Y126968D01*
Y129302D01*
X195752Y129461D01*
X196104Y129762D01*
X196405Y130114D01*
X196647Y130509D01*
X196824Y130937D01*
X196933Y131388D01*
X196969Y131850D01*
X196933Y132312D01*
X196824Y132763D01*
X196647Y133191D01*
X196405Y133586D01*
X196104Y133938D01*
X195752Y134239D01*
X195357Y134481D01*
X194929Y134658D01*
X194478Y134767D01*
X194016Y134803D01*
X193554Y134767D01*
X193103Y134658D01*
X192675Y134481D01*
X192280Y134239D01*
X191928Y133938D01*
X191627Y133586D01*
X191385Y133191D01*
X191208Y132763D01*
X191099Y132312D01*
X191091Y132206D01*
X190872Y132259D01*
X190637Y132277D01*
X190098Y132275D01*
Y157382D01*
X193647Y160931D01*
X193751Y160888D01*
X194367Y160741D01*
X194998Y160691D01*
X195629Y160741D01*
X196245Y160888D01*
X196830Y161131D01*
X197370Y161462D01*
X197851Y161873D01*
X198262Y162354D01*
X198593Y162894D01*
X198836Y163479D01*
X198983Y164095D01*
X199033Y164726D01*
X198983Y165357D01*
X198836Y165973D01*
X198593Y166558D01*
X198262Y167098D01*
X197851Y167579D01*
X197370Y167990D01*
X196830Y168321D01*
X196245Y168564D01*
X195629Y168711D01*
X194998Y168761D01*
X194367Y168711D01*
X193751Y168564D01*
X193166Y168321D01*
X192626Y167990D01*
X192145Y167579D01*
X191734Y167098D01*
X191403Y166558D01*
X191160Y165973D01*
X191061Y165558D01*
X190962Y165973D01*
X190719Y166558D01*
X190388Y167098D01*
X189977Y167579D01*
X189496Y167990D01*
X188956Y168321D01*
X188371Y168564D01*
X187755Y168711D01*
X187124Y168761D01*
X186493Y168711D01*
X186024Y168599D01*
Y170695D01*
X186493Y170583D01*
X187124Y170533D01*
X187755Y170583D01*
X188371Y170730D01*
X188956Y170973D01*
X189496Y171304D01*
X189977Y171715D01*
X190388Y172196D01*
X190719Y172736D01*
X190962Y173321D01*
X191061Y173736D01*
X191160Y173321D01*
X191403Y172736D01*
X191734Y172196D01*
X192145Y171715D01*
X192626Y171304D01*
X193166Y170973D01*
X193751Y170730D01*
X194367Y170583D01*
X194998Y170533D01*
X195629Y170583D01*
X196245Y170730D01*
X196830Y170973D01*
X197370Y171304D01*
X197851Y171715D01*
X198262Y172196D01*
X198593Y172736D01*
X198836Y173321D01*
X198983Y173937D01*
X199033Y174568D01*
X198983Y175199D01*
X198836Y175815D01*
X198593Y176400D01*
X198262Y176940D01*
X197851Y177421D01*
X197370Y177832D01*
X196830Y178163D01*
X196245Y178406D01*
X195629Y178553D01*
X194998Y178603D01*
X194367Y178553D01*
X193751Y178406D01*
X193166Y178163D01*
X192626Y177832D01*
X192145Y177421D01*
X191734Y176940D01*
X191403Y176400D01*
X191160Y175815D01*
X191061Y175400D01*
X190962Y175815D01*
X190719Y176400D01*
X190388Y176940D01*
X189977Y177421D01*
X189496Y177832D01*
X188956Y178163D01*
X188602Y178310D01*
X188603Y178858D01*
X189204Y178860D01*
X189354Y178896D01*
X189497Y178955D01*
X189628Y179036D01*
X189746Y179136D01*
X189846Y179254D01*
X189927Y179385D01*
X189986Y179528D01*
X190022Y179678D01*
X190034Y179832D01*
X190022Y183786D01*
X189986Y183936D01*
X189927Y184079D01*
X189846Y184210D01*
X189746Y184328D01*
X189628Y184428D01*
X189497Y184509D01*
X189354Y184568D01*
X189204Y184604D01*
X189050Y184616D01*
X186064Y184604D01*
X186024Y184594D01*
Y187667D01*
X192216D01*
X195444Y184439D01*
X195331Y184509D01*
X195188Y184568D01*
X195038Y184604D01*
X194884Y184616D01*
X191898Y184604D01*
X191748Y184568D01*
X191605Y184509D01*
X191474Y184428D01*
X191356Y184328D01*
X191256Y184210D01*
X191175Y184079D01*
X191116Y183936D01*
X191080Y183786D01*
X191068Y183632D01*
X191080Y179678D01*
X191116Y179528D01*
X191175Y179385D01*
X191256Y179254D01*
X191356Y179136D01*
X191474Y179036D01*
X191605Y178955D01*
X191748Y178896D01*
X191898Y178860D01*
X192052Y178848D01*
X195038Y178860D01*
X195188Y178896D01*
X195331Y178955D01*
X195462Y179036D01*
X195580Y179136D01*
X195680Y179254D01*
X195761Y179385D01*
X195820Y179528D01*
X195856Y179678D01*
X195868Y179832D01*
X195856Y183786D01*
X195820Y183936D01*
X195761Y184079D01*
X195691Y184192D01*
X205667Y174216D01*
Y153899D01*
X204435Y153802D01*
X203234Y153514D01*
X202092Y153041D01*
X201039Y152395D01*
X200099Y151593D01*
X199297Y150653D01*
X198651Y149600D01*
X198178Y148458D01*
X197890Y147257D01*
X197793Y146025D01*
X197890Y144793D01*
X198178Y143592D01*
X198651Y142450D01*
X199297Y141397D01*
X200099Y140457D01*
X201039Y139655D01*
X202092Y139009D01*
X203234Y138536D01*
X204435Y138248D01*
X205667Y138151D01*
Y133732D01*
X203920Y131985D01*
X203566Y131570D01*
X203281Y131105D01*
X203072Y130601D01*
X202945Y130071D01*
X202902Y129527D01*
Y92146D01*
X202863Y91653D01*
Y61924D01*
X199234Y58295D01*
X197979Y58286D01*
X197750Y58231D01*
X197737Y58226D01*
Y58973D01*
X198385Y58974D01*
X198538Y59011D01*
X198683Y59071D01*
X198817Y59153D01*
X198936Y59255D01*
X199038Y59374D01*
X199120Y59508D01*
X199180Y59653D01*
X199217Y59806D01*
X199229Y59962D01*
X199223Y65162D01*
X199301Y65349D01*
X199355Y65574D01*
X199373Y65805D01*
X199354Y66036D01*
X199300Y66261D01*
X199222Y66452D01*
X199217Y70746D01*
X199180Y70899D01*
X199120Y71044D01*
X199038Y71178D01*
X198936Y71297D01*
X198817Y71399D01*
X198683Y71481D01*
X198538Y71541D01*
X198385Y71578D01*
X198229Y71590D01*
X192955Y71578D01*
X192802Y71541D01*
X192657Y71481D01*
X192523Y71399D01*
X192404Y71297D01*
X192302Y71178D01*
X192220Y71044D01*
X192160Y70899D01*
X192123Y70746D01*
X192111Y70590D01*
X192116Y66315D01*
X192068Y66117D01*
X192050Y65886D01*
X192068Y65655D01*
X192117Y65451D01*
X192121Y61356D01*
X188941Y64536D01*
X188935Y64543D01*
X188759Y64693D01*
X188637Y64768D01*
X188562Y64814D01*
X188473Y64851D01*
X188347Y64903D01*
X188337Y64905D01*
X188336Y65283D01*
X188300Y65433D01*
X188241Y65576D01*
X188160Y65707D01*
X188060Y65825D01*
X187942Y65925D01*
X187811Y66006D01*
X187668Y66065D01*
X187518Y66101D01*
X187422Y66108D01*
Y66426D01*
X187682Y66585D01*
X188034Y66886D01*
X188335Y67238D01*
X188577Y67633D01*
X188754Y68061D01*
X188863Y68512D01*
X188899Y68974D01*
X188863Y69436D01*
X188754Y69887D01*
X188577Y70315D01*
X188335Y70710D01*
X188034Y71062D01*
X187682Y71363D01*
X187287Y71605D01*
X186859Y71782D01*
X186408Y71891D01*
X186024Y71921D01*
Y94621D01*
G37*
G36*
Y0D02*X154444D01*
Y32763D01*
X161862Y25345D01*
X162248Y25015D01*
X162680Y24751D01*
X163148Y24557D01*
X163640Y24439D01*
X164145Y24399D01*
X164158Y24400D01*
X186024D01*
Y0D01*
G37*
G36*
Y168599D02*X185877Y168564D01*
X185292Y168321D01*
X184752Y167990D01*
X184271Y167579D01*
X183860Y167098D01*
X183529Y166558D01*
X183286Y165973D01*
X183139Y165357D01*
X183089Y164726D01*
X183139Y164095D01*
X183284Y163487D01*
X182616Y162819D01*
X182466Y162643D01*
X182345Y162445D01*
X182256Y162231D01*
X182202Y162006D01*
X182184Y161775D01*
Y128664D01*
X182202Y128433D01*
X182256Y128208D01*
X182345Y127994D01*
X182466Y127796D01*
X182616Y127620D01*
X182623Y127614D01*
X183994Y126243D01*
X184009Y126230D01*
X184021Y126217D01*
X184085Y126165D01*
X184171Y126092D01*
X184188Y126082D01*
X184201Y126071D01*
X184292Y126018D01*
X184318Y126002D01*
X184014Y126026D01*
X183552Y125990D01*
X183101Y125881D01*
X182673Y125704D01*
X182278Y125462D01*
X182176Y125375D01*
Y166322D01*
X182202Y166344D01*
X182304Y166463D01*
X182386Y166597D01*
X182446Y166742D01*
X182483Y166895D01*
X182495Y167051D01*
X182483Y172325D01*
X182446Y172478D01*
X182386Y172623D01*
X182304Y172757D01*
X182202Y172876D01*
X182083Y172978D01*
X181949Y173060D01*
X181804Y173120D01*
X181651Y173157D01*
X181495Y173169D01*
X175066Y173159D01*
X171112Y177113D01*
Y184305D01*
X174474Y187667D01*
X186024D01*
Y184594D01*
X185914Y184568D01*
X185771Y184509D01*
X185640Y184428D01*
X185522Y184328D01*
X185422Y184210D01*
X185341Y184079D01*
X185282Y183936D01*
X185246Y183786D01*
X185234Y183632D01*
X185235Y183168D01*
X182485D01*
X182483Y184135D01*
X182446Y184288D01*
X182386Y184433D01*
X182304Y184567D01*
X182202Y184686D01*
X182083Y184788D01*
X181949Y184870D01*
X181804Y184930D01*
X181651Y184967D01*
X181495Y184979D01*
X173859Y184967D01*
X173706Y184930D01*
X173561Y184870D01*
X173427Y184788D01*
X173308Y184686D01*
X173206Y184567D01*
X173124Y184433D01*
X173064Y184288D01*
X173027Y184135D01*
X173015Y183979D01*
X173027Y178705D01*
X173064Y178552D01*
X173124Y178407D01*
X173206Y178273D01*
X173308Y178154D01*
X173427Y178052D01*
X173561Y177970D01*
X173706Y177910D01*
X173859Y177873D01*
X174015Y177861D01*
X181651Y177873D01*
X181804Y177910D01*
X181949Y177970D01*
X182083Y178052D01*
X182202Y178154D01*
X182304Y178273D01*
X182386Y178407D01*
X182446Y178552D01*
X182483Y178705D01*
X182484Y178716D01*
X184151D01*
Y177280D01*
X183860Y176940D01*
X183529Y176400D01*
X183286Y175815D01*
X183139Y175199D01*
X183089Y174568D01*
X183139Y173937D01*
X183286Y173321D01*
X183529Y172736D01*
X183860Y172196D01*
X184271Y171715D01*
X184752Y171304D01*
X185292Y170973D01*
X185877Y170730D01*
X186024Y170695D01*
Y168599D01*
G37*
G36*
X166139Y79482D02*X166208Y79487D01*
X166659Y79596D01*
X167087Y79773D01*
X167482Y80015D01*
X167834Y80316D01*
X168135Y80668D01*
X168377Y81063D01*
X168554Y81491D01*
X168663Y81942D01*
X168699Y82404D01*
X168663Y82866D01*
X168554Y83317D01*
X168377Y83745D01*
X168135Y84140D01*
X167834Y84492D01*
X167482Y84793D01*
X167222Y84952D01*
Y93429D01*
X167221Y93447D01*
X167204Y93659D01*
X167150Y93884D01*
X167098Y94010D01*
X167061Y94099D01*
X167015Y94174D01*
X166940Y94296D01*
X166790Y94472D01*
X166783Y94478D01*
X166139Y95122D01*
Y97660D01*
X172636D01*
X172867Y97678D01*
X173092Y97732D01*
X173306Y97821D01*
X173504Y97942D01*
X173680Y98092D01*
X173692Y98106D01*
X179178Y103592D01*
X179192Y103604D01*
X179342Y103780D01*
X179464Y103978D01*
X179552Y104192D01*
X179606Y104417D01*
X179624Y104648D01*
Y120550D01*
X179668Y120498D01*
X179844Y120349D01*
X179852Y120344D01*
X184111Y116085D01*
X184121Y116076D01*
X184126Y116071D01*
X184182Y116025D01*
X184288Y115934D01*
X184299Y115927D01*
X184304Y115923D01*
X184371Y115883D01*
X184486Y115813D01*
X184497Y115808D01*
X184503Y115805D01*
X184562Y115782D01*
X184700Y115724D01*
X184714Y115720D01*
X184718Y115719D01*
X184765Y115708D01*
X184925Y115670D01*
X184941Y115669D01*
X184944Y115668D01*
X184984Y115665D01*
X185156Y115652D01*
X185171Y115653D01*
X185175D01*
X185366Y115656D01*
X185355Y115612D01*
X185337Y115377D01*
X185355Y113553D01*
X185185D01*
X185080Y113617D01*
X184652Y113794D01*
X184201Y113903D01*
X183739Y113939D01*
X183277Y113903D01*
X182826Y113794D01*
X182398Y113617D01*
X182003Y113375D01*
X181651Y113074D01*
X181350Y112722D01*
X181108Y112327D01*
X180931Y111899D01*
X180822Y111448D01*
X180786Y110986D01*
X180822Y110524D01*
X180931Y110073D01*
X181108Y109645D01*
X181350Y109250D01*
X181651Y108898D01*
X182003Y108597D01*
X182398Y108355D01*
X182826Y108178D01*
X183277Y108069D01*
X183739Y108033D01*
X184201Y108069D01*
X184652Y108178D01*
X185080Y108355D01*
X185354Y108523D01*
X185355Y108442D01*
X185410Y108213D01*
X185425Y108177D01*
X185410Y108141D01*
X185355Y107912D01*
X185337Y107677D01*
X185355Y105842D01*
X185407Y105627D01*
X185355Y105412D01*
X185337Y105177D01*
X185355Y103342D01*
X185410Y103113D01*
X185425Y103077D01*
X185410Y103041D01*
X185355Y102812D01*
X185337Y102577D01*
X185355Y100742D01*
X185407Y100527D01*
X185355Y100312D01*
X185337Y100077D01*
X185355Y98242D01*
X185410Y98013D01*
X185425Y97977D01*
X185410Y97941D01*
X185355Y97712D01*
X185337Y97477D01*
X185355Y95642D01*
X185410Y95413D01*
X185500Y95196D01*
X185623Y94995D01*
X185776Y94816D01*
X185955Y94663D01*
X186024Y94621D01*
Y71921D01*
X185946Y71927D01*
X185484Y71891D01*
X185033Y71782D01*
X184605Y71605D01*
X184210Y71363D01*
X183858Y71062D01*
X183557Y70710D01*
X183315Y70315D01*
X183138Y69887D01*
X183029Y69436D01*
X182993Y68974D01*
X183029Y68512D01*
X183138Y68061D01*
X183315Y67633D01*
X183557Y67238D01*
X183858Y66886D01*
X184210Y66585D01*
X184470Y66426D01*
Y66101D01*
X184378D01*
X184228Y66065D01*
X184085Y66006D01*
X183954Y65925D01*
X183836Y65825D01*
X183736Y65707D01*
X183655Y65576D01*
X183596Y65433D01*
X183560Y65283D01*
X183548Y65129D01*
X183560Y61175D01*
X183596Y61025D01*
X183655Y60882D01*
X183736Y60751D01*
X183836Y60633D01*
X183954Y60533D01*
X184085Y60452D01*
X184228Y60393D01*
X184303Y60375D01*
X184228Y60357D01*
X184085Y60298D01*
X183954Y60217D01*
X183836Y60117D01*
X183736Y59999D01*
X183655Y59868D01*
X183596Y59725D01*
X183560Y59575D01*
X183548Y59421D01*
X183560Y55467D01*
X183596Y55317D01*
X183655Y55174D01*
X183736Y55043D01*
X183758Y55017D01*
Y54497D01*
X183695Y54395D01*
X183636Y54252D01*
X183600Y54102D01*
X183588Y53948D01*
X183600Y49994D01*
X183636Y49844D01*
X183695Y49701D01*
X183758Y49599D01*
Y49000D01*
X183736Y48974D01*
X183655Y48843D01*
X183596Y48700D01*
X183560Y48550D01*
X183548Y48396D01*
X183560Y44442D01*
X183596Y44292D01*
X183655Y44149D01*
X183736Y44018D01*
X183836Y43900D01*
X183954Y43800D01*
X184085Y43719D01*
X184228Y43660D01*
X184378Y43624D01*
X184532Y43612D01*
X186024Y43618D01*
Y39055D01*
X182340Y42739D01*
Y44041D01*
X182407Y44149D01*
X182466Y44292D01*
X182502Y44442D01*
X182514Y44596D01*
X182502Y48550D01*
X182466Y48700D01*
X182423Y48804D01*
Y49662D01*
X182447Y49701D01*
X182506Y49844D01*
X182542Y49994D01*
X182554Y50148D01*
X182542Y54102D01*
X182506Y54252D01*
X182447Y54395D01*
X182366Y54526D01*
X182266Y54644D01*
X182148Y54744D01*
X182063Y54797D01*
X182108Y54825D01*
X182226Y54925D01*
X182326Y55043D01*
X182407Y55174D01*
X182466Y55317D01*
X182502Y55467D01*
X182514Y55621D01*
X182502Y59575D01*
X182466Y59725D01*
X182407Y59868D01*
X182326Y59999D01*
X182305Y60024D01*
Y60726D01*
X182326Y60751D01*
X182407Y60882D01*
X182466Y61025D01*
X182502Y61175D01*
X182514Y61329D01*
X182502Y65283D01*
X182466Y65433D01*
X182407Y65576D01*
X182326Y65707D01*
X182226Y65825D01*
X182108Y65925D01*
X181977Y66006D01*
X181834Y66065D01*
X181684Y66101D01*
X181530Y66113D01*
X178544Y66101D01*
X178394Y66065D01*
X178251Y66006D01*
X178120Y65925D01*
X178002Y65825D01*
X177902Y65707D01*
X177821Y65576D01*
X177762Y65433D01*
X177726Y65283D01*
X177714Y65129D01*
X177726Y61175D01*
X177762Y61025D01*
X177821Y60882D01*
X177853Y60830D01*
Y59920D01*
X177821Y59868D01*
X177762Y59725D01*
X177726Y59575D01*
X177714Y59421D01*
X177726Y55467D01*
X177762Y55317D01*
X177821Y55174D01*
X177902Y55043D01*
X178002Y54925D01*
X178120Y54825D01*
X178206Y54772D01*
X178160Y54744D01*
X178042Y54644D01*
X177942Y54526D01*
X177861Y54395D01*
X177802Y54252D01*
X177766Y54102D01*
X177754Y53948D01*
X177766Y49994D01*
X177802Y49844D01*
X177861Y49701D01*
X177942Y49570D01*
X177971Y49536D01*
Y49055D01*
X177902Y48974D01*
X177821Y48843D01*
X177762Y48700D01*
X177726Y48550D01*
X177714Y48396D01*
X177726Y44442D01*
X177762Y44292D01*
X177821Y44149D01*
X177888Y44041D01*
Y41829D01*
X177887Y41817D01*
X177915Y41468D01*
X177996Y41129D01*
X178130Y40806D01*
X178312Y40508D01*
X178539Y40242D01*
X186024Y32757D01*
Y30852D01*
X166139D01*
Y34596D01*
X167281Y34686D01*
X168395Y34953D01*
X169453Y35392D01*
X170430Y35990D01*
X171301Y36734D01*
X172045Y37605D01*
X172643Y38582D01*
X173082Y39640D01*
X173349Y40754D01*
X173439Y41896D01*
X173349Y43038D01*
X173082Y44152D01*
X172643Y45210D01*
X172045Y46187D01*
X171301Y47058D01*
X170430Y47802D01*
X169453Y48400D01*
X168395Y48839D01*
X167281Y49106D01*
X166139Y49196D01*
Y79482D01*
G37*
G36*
Y95122D02*X163648Y97613D01*
X163642Y97620D01*
X163595Y97660D01*
X166139D01*
Y95122D01*
G37*
G36*
X154444Y102801D02*X156276D01*
X156255Y102712D01*
X156237Y102477D01*
X156255Y100642D01*
X156307Y100427D01*
X156255Y100212D01*
X156237Y99977D01*
X156255Y98142D01*
X156310Y97913D01*
X156400Y97696D01*
X156471Y97580D01*
X156350Y97288D01*
X156265Y96937D01*
X156237Y96577D01*
X156265Y96217D01*
X156350Y95866D01*
X156488Y95533D01*
X156676Y95225D01*
X156911Y94951D01*
X157185Y94716D01*
X157493Y94528D01*
X157826Y94390D01*
X158177Y94305D01*
X158537Y94277D01*
X160737D01*
X161097Y94305D01*
X161448Y94390D01*
X161781Y94528D01*
X162089Y94716D01*
X162241Y94846D01*
X164270Y92817D01*
Y84952D01*
X164010Y84793D01*
X163658Y84492D01*
X163357Y84140D01*
X163115Y83745D01*
X162938Y83317D01*
X162829Y82866D01*
X162793Y82404D01*
X162829Y81942D01*
X162938Y81491D01*
X163115Y81063D01*
X163357Y80668D01*
X163658Y80316D01*
X164010Y80015D01*
X164405Y79773D01*
X164833Y79596D01*
X165284Y79487D01*
X165746Y79451D01*
X166139Y79482D01*
Y49196D01*
X164997Y49106D01*
X163883Y48839D01*
X162825Y48400D01*
X161848Y47802D01*
X160977Y47058D01*
X160233Y46187D01*
X159635Y45210D01*
X159196Y44152D01*
X158929Y43038D01*
X158839Y41896D01*
X158929Y40754D01*
X159196Y39640D01*
X159635Y38582D01*
X160233Y37605D01*
X160977Y36734D01*
X161848Y35990D01*
X162825Y35392D01*
X163883Y34953D01*
X164997Y34686D01*
X166139Y34596D01*
Y30852D01*
X165481D01*
X154444Y41889D01*
Y102801D01*
G37*
G36*
Y123301D02*X156276D01*
X156255Y123212D01*
X156237Y122977D01*
X156255Y121142D01*
X156307Y120927D01*
X156255Y120712D01*
X156237Y120477D01*
X156255Y118642D01*
X156310Y118413D01*
X156325Y118377D01*
X156310Y118341D01*
X156255Y118112D01*
X156237Y117877D01*
X156255Y116042D01*
X156310Y115813D01*
X156325Y115777D01*
X156310Y115741D01*
X156255Y115512D01*
X156237Y115277D01*
X156255Y113442D01*
X156307Y113227D01*
X156255Y113012D01*
X156237Y112777D01*
X156255Y110942D01*
X156310Y110713D01*
X156325Y110677D01*
X156310Y110641D01*
X156255Y110412D01*
X156237Y110177D01*
X156255Y108342D01*
X156307Y108127D01*
X156255Y107912D01*
X156237Y107677D01*
X156255Y105842D01*
X156276Y105753D01*
X155757D01*
X155749Y109410D01*
X155712Y109563D01*
X155652Y109708D01*
X155570Y109842D01*
X155468Y109961D01*
X155349Y110063D01*
X155215Y110145D01*
X155070Y110205D01*
X154934Y110238D01*
X155070Y110271D01*
X155215Y110331D01*
X155349Y110413D01*
X155468Y110515D01*
X155570Y110634D01*
X155652Y110768D01*
X155712Y110913D01*
X155749Y111066D01*
X155761Y111222D01*
X155749Y116496D01*
X155712Y116649D01*
X155652Y116794D01*
X155570Y116928D01*
X155468Y117047D01*
X155349Y117149D01*
X155215Y117231D01*
X155070Y117291D01*
X154917Y117328D01*
X154761Y117340D01*
X154444Y117339D01*
Y123301D01*
G37*
G36*
Y134320D02*X154605Y134132D01*
X154957Y133831D01*
X155352Y133589D01*
X155780Y133412D01*
X156231Y133303D01*
X156693Y133267D01*
X157155Y133303D01*
X157540Y133396D01*
Y132159D01*
X157502D01*
X157273Y132104D01*
X157056Y132014D01*
X156855Y131891D01*
X156676Y131738D01*
X156523Y131559D01*
X156400Y131358D01*
X156310Y131141D01*
X156255Y130912D01*
X156237Y130677D01*
X156255Y128842D01*
X156275Y128759D01*
X155571Y128761D01*
X154444Y129888D01*
Y130265D01*
X154553Y130392D01*
X154795Y130787D01*
X154972Y131215D01*
X155081Y131666D01*
X155117Y132128D01*
X155081Y132590D01*
X154972Y133041D01*
X154795Y133469D01*
X154553Y133864D01*
X154444Y133991D01*
Y134320D01*
G37*
G36*
X205667Y224409D02*X214054D01*
Y173539D01*
X205667Y181926D01*
Y185395D01*
X206899Y185492D01*
X208100Y185780D01*
X209242Y186253D01*
X210295Y186899D01*
X211235Y187701D01*
X212037Y188641D01*
X212683Y189694D01*
X213156Y190836D01*
X213444Y192037D01*
X213541Y193269D01*
X213444Y194501D01*
X213156Y195702D01*
X212683Y196844D01*
X212037Y197897D01*
X211235Y198837D01*
X210295Y199639D01*
X209242Y200285D01*
X208100Y200758D01*
X206899Y201046D01*
X205667Y201143D01*
Y224409D01*
G37*
G36*
X154444D02*X205667D01*
Y201143D01*
X204435Y201046D01*
X203234Y200758D01*
X202092Y200285D01*
X201039Y199639D01*
X200099Y198837D01*
X199297Y197897D01*
X198651Y196844D01*
X198178Y195702D01*
X197890Y194501D01*
X197793Y193269D01*
X197890Y192037D01*
X198178Y190836D01*
X198651Y189694D01*
X199297Y188641D01*
X200099Y187701D01*
X201039Y186899D01*
X202092Y186253D01*
X203234Y185780D01*
X204435Y185492D01*
X205667Y185395D01*
Y181926D01*
X195279Y192314D01*
X195273Y192321D01*
X195110Y192459D01*
X194948Y192598D01*
X194809Y192683D01*
X194583Y192822D01*
X194187Y192986D01*
X193871Y193061D01*
X193772Y193085D01*
X193346Y193119D01*
X173359D01*
X173346Y193120D01*
X172919Y193086D01*
X172503Y192986D01*
X172108Y192822D01*
X171743Y192599D01*
X171418Y192321D01*
X166458Y187361D01*
X166181Y187035D01*
X165957Y186671D01*
X165793Y186275D01*
X165694Y185859D01*
X165660Y185433D01*
Y175984D01*
X165694Y175558D01*
X165793Y175142D01*
X165957Y174746D01*
X166042Y174608D01*
X166180Y174382D01*
X166330Y174206D01*
X166458Y174056D01*
X166465Y174050D01*
X173026Y167489D01*
X173027Y166895D01*
X173064Y166742D01*
X173124Y166597D01*
X173206Y166463D01*
X173308Y166344D01*
X173427Y166242D01*
X173561Y166160D01*
X173706Y166100D01*
X173859Y166063D01*
X174015Y166051D01*
X179238Y166059D01*
Y147487D01*
X179192Y147541D01*
X179185Y147547D01*
X177913Y148819D01*
X177926Y148850D01*
X178035Y149301D01*
X178071Y149763D01*
X178035Y150225D01*
X177926Y150676D01*
X177749Y151104D01*
X177507Y151499D01*
X177206Y151851D01*
X176854Y152152D01*
X176459Y152394D01*
X176031Y152571D01*
X175580Y152680D01*
X175118Y152716D01*
X174656Y152680D01*
X174205Y152571D01*
X173777Y152394D01*
X173382Y152152D01*
X173030Y151851D01*
X172729Y151499D01*
X172487Y151104D01*
X172310Y150676D01*
X172201Y150225D01*
X172165Y149763D01*
X172201Y149301D01*
X172310Y148850D01*
X172487Y148422D01*
X172729Y148027D01*
X173030Y147675D01*
X173382Y147374D01*
X173777Y147132D01*
X174205Y146955D01*
X174656Y146846D01*
X175118Y146810D01*
X175580Y146846D01*
X175686Y146872D01*
X176672Y145886D01*
Y132877D01*
X176651Y132890D01*
X176437Y132978D01*
X176212Y133032D01*
X176158Y133036D01*
X174141Y133422D01*
X174009Y133742D01*
X173767Y134137D01*
X173466Y134489D01*
X173114Y134790D01*
X172719Y135032D01*
X172291Y135209D01*
X171840Y135318D01*
X171378Y135354D01*
X170916Y135318D01*
X170465Y135209D01*
X170037Y135032D01*
X169642Y134790D01*
X169290Y134489D01*
X168989Y134137D01*
X168747Y133742D01*
X168570Y133314D01*
X168461Y132863D01*
X168425Y132401D01*
X168461Y131939D01*
X168570Y131488D01*
X168747Y131060D01*
X168989Y130665D01*
X169290Y130313D01*
X169642Y130012D01*
X170037Y129770D01*
X170465Y129593D01*
X170916Y129484D01*
X171378Y129448D01*
X171840Y129484D01*
X172291Y129593D01*
X172719Y129770D01*
X173114Y130012D01*
X173466Y130313D01*
X173637Y130513D01*
X174509Y130346D01*
X174520Y123081D01*
X174175Y123376D01*
X173780Y123618D01*
X173352Y123795D01*
X172901Y123904D01*
X172439Y123940D01*
X171977Y123904D01*
X171526Y123795D01*
X171098Y123618D01*
X170703Y123376D01*
X170351Y123075D01*
X170050Y122723D01*
X169891Y122463D01*
X167637D01*
X167783Y122634D01*
X168025Y123029D01*
X168202Y123457D01*
X168311Y123908D01*
X168347Y124370D01*
X168311Y124832D01*
X168202Y125283D01*
X168025Y125711D01*
X167783Y126106D01*
X167482Y126458D01*
X167130Y126759D01*
X166735Y127001D01*
X166307Y127178D01*
X165856Y127287D01*
X165394Y127323D01*
X164932Y127287D01*
X164481Y127178D01*
X164053Y127001D01*
X163658Y126759D01*
X163306Y126458D01*
X163005Y126106D01*
X162975Y126057D01*
X163019Y126242D01*
X163037Y126477D01*
X163019Y128312D01*
X162964Y128541D01*
X162949Y128577D01*
X162964Y128613D01*
X163019Y128842D01*
X163037Y129077D01*
X163019Y130912D01*
X162964Y131141D01*
X162874Y131358D01*
X162751Y131559D01*
X162598Y131738D01*
X162419Y131891D01*
X162218Y132014D01*
X162001Y132104D01*
X161772Y132159D01*
X161537Y132177D01*
X160492Y132172D01*
Y134095D01*
X160491Y134113D01*
X160474Y134325D01*
X160420Y134550D01*
X160368Y134676D01*
X160331Y134765D01*
X160285Y134840D01*
X160210Y134962D01*
X160060Y135138D01*
X160053Y135144D01*
X159577Y135620D01*
X159610Y135758D01*
X159646Y136220D01*
X159610Y136682D01*
X159501Y137133D01*
X159324Y137561D01*
X159082Y137956D01*
X158781Y138308D01*
X158429Y138609D01*
X158034Y138851D01*
X157606Y139028D01*
X157155Y139137D01*
X156693Y139173D01*
X156231Y139137D01*
X155780Y139028D01*
X155352Y138851D01*
X154957Y138609D01*
X154605Y138308D01*
X154444Y138120D01*
Y142033D01*
X154604Y141935D01*
X155032Y141758D01*
X155483Y141649D01*
X155945Y141613D01*
X156407Y141649D01*
X156858Y141758D01*
X157286Y141935D01*
X157681Y142177D01*
X158033Y142478D01*
X158334Y142830D01*
X158493Y143090D01*
X161692D01*
X161923Y143108D01*
X162148Y143162D01*
X162362Y143251D01*
X162560Y143372D01*
X162736Y143522D01*
X162748Y143536D01*
X163673Y144461D01*
X167770D01*
X167842Y144288D01*
X168084Y143893D01*
X168385Y143541D01*
X168737Y143240D01*
X169132Y142998D01*
X169560Y142821D01*
X170011Y142712D01*
X170473Y142676D01*
X170935Y142712D01*
X171386Y142821D01*
X171814Y142998D01*
X172209Y143240D01*
X172561Y143541D01*
X172862Y143893D01*
X173104Y144288D01*
X173281Y144716D01*
X173390Y145167D01*
X173426Y145629D01*
X173390Y146091D01*
X173281Y146542D01*
X173104Y146970D01*
X172862Y147365D01*
X172561Y147717D01*
X172209Y148018D01*
X171814Y148260D01*
X171386Y148437D01*
X170935Y148546D01*
X170473Y148582D01*
X170011Y148546D01*
X169560Y148437D01*
X169132Y148260D01*
X168737Y148018D01*
X168385Y147717D01*
X168125Y147413D01*
X163063D01*
X162832Y147395D01*
X162607Y147341D01*
X162393Y147253D01*
X162195Y147131D01*
X162019Y146981D01*
X161080Y146042D01*
X158493D01*
X158334Y146302D01*
X158033Y146654D01*
X157681Y146955D01*
X157286Y147197D01*
X156858Y147374D01*
X156407Y147483D01*
X155945Y147519D01*
X155483Y147483D01*
X155032Y147374D01*
X154604Y147197D01*
X154444Y147099D01*
Y156004D01*
X172469D01*
X172532Y155901D01*
X172833Y155549D01*
X173185Y155248D01*
X173580Y155006D01*
X174008Y154829D01*
X174459Y154720D01*
X174921Y154684D01*
X175383Y154720D01*
X175834Y154829D01*
X176262Y155006D01*
X176657Y155248D01*
X177009Y155549D01*
X177310Y155901D01*
X177552Y156296D01*
X177729Y156724D01*
X177838Y157175D01*
X177874Y157637D01*
X177838Y158099D01*
X177729Y158550D01*
X177552Y158978D01*
X177310Y159373D01*
X177009Y159725D01*
X176657Y160026D01*
X176262Y160268D01*
X175834Y160445D01*
X175383Y160554D01*
X174921Y160590D01*
X174459Y160554D01*
X174008Y160445D01*
X173580Y160268D01*
X173185Y160026D01*
X172833Y159725D01*
X172532Y159373D01*
X172290Y158978D01*
X172281Y158956D01*
X154444D01*
Y224409D01*
G37*
G36*
Y129888D02*X154270Y130062D01*
X154444Y130265D01*
Y129888D01*
G37*
G36*
X115253Y22198D02*X119089Y22200D01*
X119242Y22237D01*
X119387Y22297D01*
X119521Y22379D01*
X119640Y22481D01*
X119742Y22600D01*
X119824Y22734D01*
X119884Y22879D01*
X119921Y23032D01*
X119933Y23188D01*
X119931Y26003D01*
X125187D01*
X125886Y26058D01*
X126568Y26222D01*
X127216Y26490D01*
X127814Y26857D01*
X128347Y27312D01*
X135703Y34668D01*
X136611Y34596D01*
X137753Y34686D01*
X138867Y34953D01*
X139925Y35392D01*
X140902Y35990D01*
X141773Y36734D01*
X142517Y37605D01*
X143115Y38582D01*
X143554Y39640D01*
X143821Y40754D01*
X143911Y41896D01*
X143821Y43038D01*
X143595Y43981D01*
X143698Y43733D01*
X143962Y43301D01*
X144291Y42916D01*
X154444Y32763D01*
Y0D01*
X115253D01*
Y22198D01*
G37*
G36*
X136573Y91476D02*X139962D01*
X140193Y91494D01*
X140418Y91548D01*
X140632Y91637D01*
X140830Y91758D01*
X141006Y91908D01*
X141018Y91922D01*
X142315Y93219D01*
X142717Y93188D01*
X143179Y93224D01*
X143630Y93333D01*
X144058Y93510D01*
X144453Y93752D01*
X144805Y94053D01*
X145106Y94405D01*
X145348Y94800D01*
X145525Y95228D01*
X145634Y95679D01*
X145670Y96141D01*
X145634Y96603D01*
X145525Y97054D01*
X145348Y97482D01*
X145106Y97877D01*
X144805Y98229D01*
X144453Y98530D01*
X144058Y98772D01*
X143630Y98949D01*
X143179Y99058D01*
X142717Y99094D01*
X142255Y99058D01*
X141804Y98949D01*
X141376Y98772D01*
X140981Y98530D01*
X140629Y98229D01*
X140328Y97877D01*
X140086Y97482D01*
X139909Y97054D01*
X139800Y96603D01*
X139764Y96141D01*
X139800Y95679D01*
X139909Y95228D01*
X139980Y95058D01*
X139350Y94428D01*
X136573D01*
Y108307D01*
X139659Y105221D01*
X139665Y105214D01*
X139841Y105064D01*
X140039Y104943D01*
X140253Y104854D01*
X140478Y104800D01*
X140709Y104782D01*
X147867D01*
X147869Y103980D01*
X147906Y103827D01*
X147966Y103682D01*
X148048Y103548D01*
X148150Y103429D01*
X148269Y103327D01*
X148403Y103245D01*
X148548Y103185D01*
X148701Y103148D01*
X148857Y103136D01*
X152854Y103144D01*
X152925Y103083D01*
X153123Y102962D01*
X153337Y102873D01*
X153562Y102819D01*
X153793Y102801D01*
X154444D01*
Y41889D01*
X149799Y46534D01*
Y53849D01*
X150214Y54335D01*
X150583Y54937D01*
X150853Y55589D01*
X151018Y56276D01*
X151073Y56980D01*
X151018Y57684D01*
X150853Y58371D01*
X150583Y59023D01*
X150214Y59625D01*
X149755Y60162D01*
X149218Y60621D01*
X148616Y60990D01*
X147964Y61260D01*
X147277Y61425D01*
X146573Y61480D01*
X145869Y61425D01*
X145182Y61260D01*
X144530Y60990D01*
X143928Y60621D01*
X143391Y60162D01*
X142932Y59625D01*
X142563Y59023D01*
X142293Y58371D01*
X142128Y57684D01*
X142073Y56980D01*
X142128Y56276D01*
X142293Y55589D01*
X142563Y54937D01*
X142932Y54335D01*
X143347Y53849D01*
Y45211D01*
X143346Y45198D01*
X143386Y44693D01*
X143464Y44369D01*
X143115Y45210D01*
X142517Y46187D01*
X141773Y47058D01*
X140902Y47802D01*
X139925Y48400D01*
X138867Y48839D01*
X137753Y49106D01*
X136611Y49196D01*
X136573Y49193D01*
Y52480D01*
X137277Y52535D01*
X137964Y52700D01*
X138616Y52970D01*
X139218Y53339D01*
X139755Y53798D01*
X140214Y54335D01*
X140583Y54937D01*
X140853Y55589D01*
X141018Y56276D01*
X141073Y56980D01*
X141018Y57684D01*
X140853Y58371D01*
X140583Y59023D01*
X140214Y59625D01*
X139755Y60162D01*
X139218Y60621D01*
X138616Y60990D01*
X137964Y61260D01*
X137277Y61425D01*
X136573Y61480D01*
Y91476D01*
G37*
G36*
Y94428D02*X115514D01*
X115696Y94641D01*
X115938Y95036D01*
X116115Y95464D01*
X116224Y95915D01*
X116260Y96377D01*
X116224Y96839D01*
X116115Y97290D01*
X115938Y97718D01*
X115696Y98113D01*
X115395Y98465D01*
X115253Y98586D01*
Y114229D01*
X115553Y114486D01*
X115854Y114838D01*
X115929Y114961D01*
X126614D01*
X126688Y114967D01*
X126742D01*
X126787Y114974D01*
X126845Y114979D01*
X126913Y114995D01*
X126970Y115005D01*
X127143Y115048D01*
X128866Y114944D01*
X128910Y114945D01*
X128956Y114941D01*
X129020Y114946D01*
X129099Y114947D01*
X129151Y114956D01*
X129187Y114959D01*
X129251Y114974D01*
X129327Y114988D01*
X129373Y115003D01*
X129396Y115009D01*
X131870Y114957D01*
Y113621D01*
X131888Y113390D01*
X131942Y113165D01*
X132031Y112951D01*
X132152Y112753D01*
X132302Y112577D01*
X132309Y112571D01*
X136573Y108307D01*
Y94428D01*
G37*
G36*
X115253Y91476D02*X136573D01*
Y61480D01*
X135869Y61425D01*
X135182Y61260D01*
X134530Y60990D01*
X133928Y60621D01*
X133391Y60162D01*
X132932Y59625D01*
X132563Y59023D01*
X132293Y58371D01*
X132128Y57684D01*
X132073Y56980D01*
X132128Y56276D01*
X132293Y55589D01*
X132563Y54937D01*
X132932Y54335D01*
X133391Y53798D01*
X133928Y53339D01*
X134530Y52970D01*
X135182Y52700D01*
X135869Y52535D01*
X136573Y52480D01*
Y49193D01*
X135469Y49106D01*
X134355Y48839D01*
X133297Y48400D01*
X132320Y47802D01*
X131449Y47058D01*
X130705Y46187D01*
X130107Y45210D01*
X129668Y44152D01*
X129401Y43038D01*
X129311Y41896D01*
X129382Y40989D01*
X123334Y34941D01*
X119923D01*
X119921Y37844D01*
X119884Y37997D01*
X119824Y38142D01*
X119742Y38276D01*
X119640Y38395D01*
X119521Y38497D01*
X119387Y38579D01*
X119242Y38639D01*
X119089Y38676D01*
X118933Y38688D01*
X115253Y38686D01*
Y43998D01*
X119089Y44000D01*
X119242Y44037D01*
X119387Y44097D01*
X119521Y44179D01*
X119640Y44281D01*
X119742Y44400D01*
X119824Y44534D01*
X119884Y44679D01*
X119921Y44832D01*
X119933Y44988D01*
X119926Y53092D01*
X122364D01*
X122512Y52919D01*
X122691Y52766D01*
X122892Y52643D01*
X123109Y52553D01*
X123338Y52498D01*
X123573Y52480D01*
X129808Y52498D01*
X130037Y52553D01*
X130254Y52643D01*
X130455Y52766D01*
X130634Y52919D01*
X130787Y53098D01*
X130910Y53299D01*
X131000Y53516D01*
X131055Y53745D01*
X131073Y53980D01*
X131055Y60215D01*
X131000Y60444D01*
X130910Y60661D01*
X130787Y60862D01*
X130634Y61041D01*
X130455Y61194D01*
X130254Y61317D01*
X130037Y61407D01*
X129808Y61462D01*
X129573Y61480D01*
X123338Y61462D01*
X123109Y61407D01*
X122892Y61317D01*
X122691Y61194D01*
X122512Y61041D01*
X122359Y60862D01*
X122236Y60661D01*
X122182Y60530D01*
X115253D01*
Y91476D01*
G37*
G36*
X101870Y107199D02*X102028Y107134D01*
Y106180D01*
X102046Y105949D01*
X102100Y105724D01*
X102189Y105510D01*
X102310Y105312D01*
X102460Y105136D01*
X102467Y105130D01*
X110462Y97135D01*
X110390Y96839D01*
X110354Y96377D01*
X110390Y95915D01*
X110499Y95464D01*
X110676Y95036D01*
X110918Y94641D01*
X111100Y94428D01*
X101870D01*
Y100530D01*
X102926Y99474D01*
X102808Y99335D01*
X102566Y98940D01*
X102389Y98512D01*
X102280Y98061D01*
X102244Y97599D01*
X102280Y97137D01*
X102389Y96686D01*
X102566Y96258D01*
X102808Y95863D01*
X103109Y95511D01*
X103461Y95210D01*
X103856Y94968D01*
X104284Y94791D01*
X104735Y94682D01*
X105197Y94646D01*
X105659Y94682D01*
X106110Y94791D01*
X106538Y94968D01*
X106933Y95210D01*
X107285Y95511D01*
X107586Y95863D01*
X107828Y96258D01*
X108005Y96686D01*
X108114Y97137D01*
X108150Y97599D01*
X108114Y98061D01*
X108005Y98512D01*
X107828Y98940D01*
X107586Y99335D01*
X107285Y99687D01*
X106933Y99988D01*
X106538Y100230D01*
X106207Y100367D01*
X101870Y104704D01*
Y107199D01*
G37*
G36*
X115253Y98586D02*X115043Y98766D01*
X114648Y99008D01*
X114220Y99185D01*
X113769Y99294D01*
X113307Y99330D01*
X112845Y99294D01*
X112549Y99222D01*
X104980Y106791D01*
Y107747D01*
X105080Y107833D01*
X105381Y108185D01*
X105623Y108580D01*
X105800Y109008D01*
X105909Y109459D01*
X105945Y109921D01*
X105909Y110383D01*
X105800Y110834D01*
X105623Y111262D01*
X105381Y111657D01*
X105080Y112009D01*
X104728Y112310D01*
X104333Y112552D01*
X103905Y112729D01*
X103454Y112838D01*
X102992Y112874D01*
X102530Y112838D01*
X102079Y112729D01*
X101870Y112643D01*
Y114802D01*
X106533Y114811D01*
X106683Y114847D01*
X106827Y114907D01*
X106959Y114988D01*
X107077Y115088D01*
X107177Y115206D01*
X107258Y115338D01*
X107318Y115482D01*
X107354Y115632D01*
X107366Y115787D01*
X107354Y117242D01*
X107318Y117392D01*
X107258Y117536D01*
X107177Y117668D01*
X107136Y117716D01*
X107177Y117765D01*
X107258Y117897D01*
X107318Y118041D01*
X107354Y118191D01*
X107366Y118346D01*
X107354Y119801D01*
X107330Y119899D01*
X107359Y119924D01*
X107432Y120008D01*
X108170Y119270D01*
Y114456D01*
X108148Y114364D01*
X108130Y114133D01*
Y109173D01*
X108148Y108942D01*
X108194Y108750D01*
X108176Y108707D01*
X108067Y108256D01*
X108031Y107794D01*
X108067Y107332D01*
X108176Y106881D01*
X108353Y106453D01*
X108595Y106058D01*
X108896Y105706D01*
X109248Y105405D01*
X109643Y105163D01*
X110071Y104986D01*
X110522Y104877D01*
X110984Y104841D01*
X111446Y104877D01*
X111897Y104986D01*
X112325Y105163D01*
X112720Y105405D01*
X113072Y105706D01*
X113373Y106058D01*
X113615Y106453D01*
X113792Y106881D01*
X113901Y107332D01*
X113937Y107794D01*
X113901Y108256D01*
X113792Y108707D01*
X113615Y109135D01*
X113373Y109530D01*
X113072Y109882D01*
X112720Y110183D01*
X112325Y110425D01*
X111897Y110602D01*
X111446Y110711D01*
X111082Y110739D01*
Y113732D01*
X111104Y113824D01*
X111122Y114055D01*
Y114784D01*
X111377Y114486D01*
X111729Y114185D01*
X112124Y113943D01*
X112552Y113766D01*
X113003Y113657D01*
X113465Y113621D01*
X113927Y113657D01*
X114378Y113766D01*
X114806Y113943D01*
X115201Y114185D01*
X115253Y114229D01*
Y98586D01*
G37*
G36*
X101870Y112643D02*X101651Y112552D01*
X101256Y112310D01*
X100904Y112009D01*
X100603Y111657D01*
X100361Y111262D01*
X100184Y110834D01*
X100075Y110383D01*
X100039Y109921D01*
X100075Y109459D01*
X100184Y109008D01*
X100361Y108580D01*
X100603Y108185D01*
X100904Y107833D01*
X101256Y107532D01*
X101651Y107290D01*
X101870Y107199D01*
Y104704D01*
X101427Y105147D01*
X101460Y105285D01*
X101496Y105747D01*
X101460Y106209D01*
X101351Y106660D01*
X101174Y107088D01*
X100932Y107483D01*
X100631Y107835D01*
X100279Y108136D01*
X99884Y108378D01*
X99456Y108555D01*
X99005Y108664D01*
X98543Y108700D01*
X98081Y108664D01*
X97630Y108555D01*
X97202Y108378D01*
X96807Y108136D01*
X96455Y107835D01*
X96154Y107483D01*
X95912Y107088D01*
X95735Y106660D01*
X95626Y106209D01*
X95590Y105747D01*
X95626Y105285D01*
X95735Y104834D01*
X95912Y104406D01*
X96154Y104011D01*
X96455Y103659D01*
X96807Y103358D01*
X97202Y103116D01*
X97630Y102939D01*
X98081Y102830D01*
X98543Y102794D01*
X99005Y102830D01*
X99456Y102939D01*
X99460Y102940D01*
X101870Y100530D01*
Y94428D01*
X95727D01*
X95879Y94796D01*
X95988Y95247D01*
X96024Y95709D01*
X95988Y96171D01*
X95879Y96622D01*
X95702Y97050D01*
X95460Y97445D01*
X95159Y97797D01*
X94807Y98098D01*
X94547Y98257D01*
Y104292D01*
X94546Y104310D01*
X94529Y104522D01*
X94475Y104747D01*
X94398Y104933D01*
X94422Y104992D01*
X94531Y105443D01*
X94567Y105905D01*
X94531Y106367D01*
X94422Y106818D01*
X94245Y107246D01*
X94003Y107641D01*
X93888Y107775D01*
X93937D01*
X94168Y107793D01*
X94393Y107847D01*
X94607Y107936D01*
X94805Y108057D01*
X94981Y108207D01*
X94993Y108221D01*
X97382Y110610D01*
X97388Y110617D01*
X101572Y114801D01*
X101870Y114802D01*
Y112643D01*
G37*
G36*
X83673Y105073D02*X83829Y105035D01*
X84291Y104999D01*
X84753Y105035D01*
X85204Y105144D01*
X85632Y105321D01*
X86027Y105563D01*
X86379Y105864D01*
X86680Y106216D01*
X86922Y106611D01*
X87099Y107039D01*
X87208Y107490D01*
X87230Y107775D01*
X89340D01*
X89225Y107641D01*
X88983Y107246D01*
X88806Y106818D01*
X88697Y106367D01*
X88661Y105905D01*
X88697Y105443D01*
X88806Y104992D01*
X88983Y104564D01*
X89225Y104169D01*
X89526Y103817D01*
X89878Y103516D01*
X90273Y103274D01*
X90701Y103097D01*
X91152Y102988D01*
X91595Y102953D01*
Y98257D01*
X91335Y98098D01*
X90983Y97797D01*
X90682Y97445D01*
X90492Y97134D01*
X90406Y97488D01*
X90229Y97916D01*
X89987Y98311D01*
X89686Y98663D01*
X89334Y98964D01*
X88939Y99206D01*
X88511Y99383D01*
X88060Y99492D01*
X87598Y99528D01*
X87136Y99492D01*
X86685Y99383D01*
X86257Y99206D01*
X85862Y98964D01*
X85510Y98663D01*
X85209Y98311D01*
X84967Y97916D01*
X84790Y97488D01*
X84681Y97037D01*
X84645Y96575D01*
X84681Y96113D01*
X84790Y95662D01*
X84846Y95527D01*
X84841Y95507D01*
X84823Y95276D01*
X84841Y95045D01*
X84895Y94820D01*
X84984Y94606D01*
X85105Y94408D01*
X85255Y94232D01*
X85431Y94082D01*
X85629Y93961D01*
X85843Y93872D01*
X86068Y93818D01*
X86299Y93800D01*
X86605D01*
X86685Y93767D01*
X87136Y93658D01*
X87598Y93622D01*
X88060Y93658D01*
X88511Y93767D01*
X88939Y93944D01*
X89334Y94186D01*
X89686Y94487D01*
X89987Y94839D01*
X90177Y95150D01*
X90263Y94796D01*
X90440Y94368D01*
X90682Y93973D01*
X90983Y93621D01*
X91335Y93320D01*
X91730Y93078D01*
X92158Y92901D01*
X92598Y92795D01*
X93478Y91915D01*
X93484Y91908D01*
X93660Y91758D01*
X93858Y91637D01*
X94072Y91548D01*
X94297Y91494D01*
X94528Y91476D01*
X115253D01*
Y60530D01*
X107683D01*
X107101Y60484D01*
X107086Y60480D01*
X100277Y60476D01*
X100124Y60439D01*
X99979Y60379D01*
X99845Y60297D01*
X99726Y60195D01*
X99624Y60076D01*
X99542Y59942D01*
X99482Y59797D01*
X99445Y59644D01*
X99433Y59488D01*
X99445Y44832D01*
X99482Y44679D01*
X99542Y44534D01*
X99624Y44400D01*
X99726Y44281D01*
X99845Y44179D01*
X99979Y44097D01*
X100124Y44037D01*
X100277Y44000D01*
X100433Y43988D01*
X115253Y43998D01*
Y38686D01*
X100277Y38676D01*
X100124Y38639D01*
X99979Y38579D01*
X99845Y38497D01*
X99726Y38395D01*
X99624Y38276D01*
X99542Y38142D01*
X99482Y37997D01*
X99445Y37844D01*
X99433Y37688D01*
X99445Y23032D01*
X99482Y22879D01*
X99542Y22734D01*
X99624Y22600D01*
X99726Y22481D01*
X99845Y22379D01*
X99979Y22297D01*
X100124Y22237D01*
X100277Y22200D01*
X100433Y22188D01*
X115253Y22198D01*
Y0D01*
X83673D01*
Y56980D01*
X83714Y57079D01*
X83823Y57530D01*
X83859Y57992D01*
X83823Y58454D01*
X83714Y58905D01*
X83673Y59004D01*
Y61374D01*
X85908Y61383D01*
X86137Y61438D01*
X86354Y61528D01*
X86555Y61651D01*
X86734Y61804D01*
X86887Y61983D01*
X87010Y62184D01*
X87100Y62401D01*
X87155Y62630D01*
X87173Y62865D01*
X87155Y66500D01*
X87100Y66729D01*
X87010Y66946D01*
X86887Y67147D01*
X86734Y67326D01*
X86555Y67479D01*
X86354Y67602D01*
X86137Y67692D01*
X86083Y67705D01*
X86326Y67989D01*
X86568Y68384D01*
X86745Y68812D01*
X86854Y69263D01*
X86890Y69725D01*
X86854Y70187D01*
X86745Y70638D01*
X86568Y71066D01*
X86326Y71461D01*
X86025Y71813D01*
X85673Y72114D01*
X85278Y72356D01*
X84850Y72533D01*
X84399Y72642D01*
X83937Y72678D01*
X83673Y72657D01*
Y79541D01*
X89604Y85472D01*
X89617Y85469D01*
X90079Y85433D01*
X90541Y85469D01*
X90992Y85578D01*
X91420Y85755D01*
X91815Y85997D01*
X92167Y86298D01*
X92468Y86650D01*
X92710Y87045D01*
X92887Y87473D01*
X92996Y87924D01*
X93032Y88386D01*
X92996Y88848D01*
X92887Y89299D01*
X92710Y89727D01*
X92468Y90122D01*
X92167Y90474D01*
X91815Y90775D01*
X91420Y91017D01*
X90992Y91194D01*
X90541Y91303D01*
X90079Y91339D01*
X89617Y91303D01*
X89166Y91194D01*
X88738Y91017D01*
X88343Y90775D01*
X87991Y90474D01*
X87690Y90122D01*
X87448Y89727D01*
X87271Y89299D01*
X87162Y88848D01*
X87126Y88386D01*
X87162Y87924D01*
X87164Y87914D01*
X83673Y84423D01*
Y105073D01*
G37*
G36*
Y59004D02*X83537Y59333D01*
X83295Y59728D01*
X82994Y60080D01*
X82642Y60381D01*
X82247Y60623D01*
X81819Y60800D01*
X81368Y60909D01*
X80906Y60945D01*
X80444Y60909D01*
X79993Y60800D01*
X79565Y60623D01*
X79170Y60381D01*
X78967Y60207D01*
X78955Y62600D01*
X78900Y62829D01*
X78810Y63046D01*
X78687Y63247D01*
X78534Y63426D01*
X78355Y63579D01*
X78154Y63702D01*
X77937Y63792D01*
X77708Y63847D01*
X77473Y63865D01*
X74730Y63853D01*
X73305Y65278D01*
X73473Y65265D01*
X77708Y65283D01*
X77937Y65338D01*
X78154Y65428D01*
X78355Y65551D01*
X78534Y65704D01*
X78687Y65883D01*
X78810Y66084D01*
X78900Y66301D01*
X78955Y66530D01*
X78973Y66765D01*
X78955Y70400D01*
X78900Y70629D01*
X78810Y70846D01*
X78687Y71047D01*
X78534Y71226D01*
X78355Y71379D01*
X78154Y71502D01*
X77937Y71592D01*
X77708Y71647D01*
X77501Y71663D01*
X77625Y71808D01*
X77867Y72203D01*
X78044Y72631D01*
X78153Y73082D01*
X78189Y73544D01*
X78153Y74006D01*
X78150Y74018D01*
X83673Y79541D01*
Y72657D01*
X83475Y72642D01*
X83024Y72533D01*
X82596Y72356D01*
X82201Y72114D01*
X81849Y71813D01*
X81548Y71461D01*
X81306Y71066D01*
X81129Y70638D01*
X81020Y70187D01*
X80984Y69725D01*
X81020Y69263D01*
X81129Y68812D01*
X81306Y68384D01*
X81548Y67989D01*
X81754Y67748D01*
X81438Y67747D01*
X81209Y67692D01*
X80992Y67602D01*
X80791Y67479D01*
X80612Y67326D01*
X80459Y67147D01*
X80336Y66946D01*
X80246Y66729D01*
X80191Y66500D01*
X80173Y66265D01*
X80191Y62630D01*
X80246Y62401D01*
X80336Y62184D01*
X80459Y61983D01*
X80612Y61804D01*
X80791Y61651D01*
X80992Y61528D01*
X81209Y61438D01*
X81438Y61383D01*
X81673Y61365D01*
X83673Y61374D01*
Y59004D01*
G37*
G36*
Y0D02*X66725D01*
Y59283D01*
X69527Y59289D01*
X69680Y59326D01*
X69825Y59386D01*
X69959Y59468D01*
X70078Y59570D01*
X70180Y59689D01*
X70262Y59823D01*
X70322Y59968D01*
X70359Y60121D01*
X70371Y60277D01*
X70367Y62925D01*
X70776D01*
X71976Y61725D01*
X71991Y58730D01*
X72046Y58501D01*
X72136Y58284D01*
X72259Y58083D01*
X72412Y57904D01*
X72591Y57751D01*
X72792Y57628D01*
X73009Y57538D01*
X73238Y57483D01*
X73473Y57465D01*
X75922Y57475D01*
X76625Y56772D01*
X76832Y56595D01*
X76921Y56541D01*
X77062Y56454D01*
X77313Y56350D01*
X77576Y56287D01*
X77846Y56266D01*
X78511D01*
X78517Y56256D01*
X78818Y55904D01*
X79170Y55603D01*
X79565Y55361D01*
X79993Y55184D01*
X80444Y55075D01*
X80906Y55039D01*
X81368Y55075D01*
X81819Y55184D01*
X82247Y55361D01*
X82642Y55603D01*
X82994Y55904D01*
X83295Y56256D01*
X83537Y56651D01*
X83673Y56980D01*
Y0D01*
G37*
G36*
X66725Y116888D02*X66816Y116881D01*
X69802Y116893D01*
X69952Y116929D01*
X70095Y116988D01*
X70226Y117069D01*
X70344Y117169D01*
X70444Y117287D01*
X70525Y117418D01*
X70584Y117561D01*
X70620Y117711D01*
X70632Y117865D01*
X70629Y118707D01*
X72580D01*
X72581Y118503D01*
X72636Y118274D01*
X72726Y118057D01*
X72849Y117856D01*
X73002Y117677D01*
X73181Y117524D01*
X73382Y117401D01*
X73599Y117311D01*
X73828Y117256D01*
X74063Y117238D01*
X78298Y117256D01*
X78527Y117311D01*
X78744Y117401D01*
X78945Y117524D01*
X79124Y117677D01*
X79277Y117856D01*
X79400Y118057D01*
X79490Y118274D01*
X79545Y118503D01*
X79563Y118738D01*
X79562Y118957D01*
X80949D01*
X80926Y118919D01*
X80836Y118702D01*
X80781Y118473D01*
X80763Y118238D01*
X80781Y114603D01*
X80836Y114374D01*
X80911Y114193D01*
X79547D01*
X79545Y114573D01*
X79490Y114802D01*
X79400Y115019D01*
X79277Y115220D01*
X79124Y115399D01*
X78945Y115552D01*
X78744Y115675D01*
X78527Y115765D01*
X78298Y115820D01*
X78063Y115838D01*
X73828Y115820D01*
X73599Y115765D01*
X73382Y115675D01*
X73181Y115552D01*
X73002Y115399D01*
X72849Y115220D01*
X72726Y115019D01*
X72636Y114802D01*
X72581Y114573D01*
X72563Y114338D01*
X72581Y110703D01*
X72636Y110474D01*
X72726Y110257D01*
X72849Y110056D01*
X73002Y109877D01*
X73181Y109724D01*
X73382Y109601D01*
X73599Y109511D01*
X73746Y109476D01*
Y108650D01*
X73026Y108648D01*
X72876Y108612D01*
X72733Y108553D01*
X72602Y108472D01*
X72484Y108372D01*
X72384Y108254D01*
X72303Y108123D01*
X72244Y107980D01*
X72208Y107830D01*
X72196Y107676D01*
X72208Y104690D01*
X72244Y104540D01*
X72303Y104397D01*
X72384Y104266D01*
X72484Y104148D01*
X72602Y104048D01*
X72733Y103967D01*
X72876Y103908D01*
X73026Y103872D01*
X73180Y103860D01*
X77134Y103872D01*
X77284Y103908D01*
X77427Y103967D01*
X77558Y104048D01*
X77676Y104148D01*
X77776Y104266D01*
X77857Y104397D01*
X77916Y104540D01*
X77952Y104690D01*
X77964Y104844D01*
X77952Y107830D01*
X77916Y107980D01*
X77857Y108123D01*
X77776Y108254D01*
X77676Y108372D01*
X77558Y108472D01*
X77427Y108553D01*
X77284Y108612D01*
X77198Y108633D01*
Y109451D01*
X78298Y109456D01*
X78527Y109511D01*
X78744Y109601D01*
X78945Y109724D01*
X79124Y109877D01*
X79277Y110056D01*
X79400Y110257D01*
X79490Y110474D01*
X79545Y110703D01*
X79563Y110938D01*
X79562Y111241D01*
X82815D01*
Y110500D01*
X82555Y110341D01*
X82203Y110040D01*
X81902Y109688D01*
X81660Y109293D01*
X81483Y108865D01*
X81374Y108414D01*
X81338Y107952D01*
X81374Y107490D01*
X81483Y107039D01*
X81660Y106611D01*
X81902Y106216D01*
X82203Y105864D01*
X82555Y105563D01*
X82950Y105321D01*
X83378Y105144D01*
X83673Y105073D01*
Y84423D01*
X75708Y76458D01*
X75698Y76461D01*
X75236Y76497D01*
X74774Y76461D01*
X74407Y76372D01*
X72400Y78285D01*
X72337Y78388D01*
X72187Y78564D01*
X72011Y78714D01*
X71813Y78835D01*
X71599Y78924D01*
X71374Y78978D01*
X71143Y78996D01*
X67409D01*
X67942Y79323D01*
X68419Y79731D01*
X68827Y80208D01*
X69155Y80743D01*
X69395Y81323D01*
X69542Y81933D01*
X69591Y82559D01*
X69542Y83185D01*
X69395Y83795D01*
X69155Y84375D01*
X68827Y84910D01*
X68419Y85387D01*
X67942Y85795D01*
X67407Y86123D01*
X66827Y86363D01*
X66725Y86388D01*
Y88730D01*
X66827Y88755D01*
X67407Y88995D01*
X67942Y89323D01*
X68419Y89731D01*
X68827Y90208D01*
X69155Y90743D01*
X69395Y91323D01*
X69542Y91933D01*
X69591Y92559D01*
X69542Y93185D01*
X69395Y93795D01*
X69155Y94375D01*
X68827Y94910D01*
X68419Y95387D01*
X67942Y95795D01*
X67407Y96123D01*
X66827Y96363D01*
X66725Y96388D01*
Y98730D01*
X66827Y98755D01*
X67103Y98869D01*
X67308Y98784D01*
X67571Y98721D01*
X67841Y98700D01*
X72246D01*
X72303Y98563D01*
X72384Y98432D01*
X72484Y98314D01*
X72602Y98214D01*
X72733Y98133D01*
X72876Y98074D01*
X73026Y98038D01*
X73180Y98026D01*
X77134Y98038D01*
X77284Y98074D01*
X77427Y98133D01*
X77558Y98214D01*
X77676Y98314D01*
X77776Y98432D01*
X77857Y98563D01*
X77916Y98706D01*
X77952Y98856D01*
X77964Y99010D01*
X77952Y101996D01*
X77916Y102146D01*
X77857Y102289D01*
X77776Y102420D01*
X77676Y102538D01*
X77558Y102638D01*
X77427Y102719D01*
X77284Y102778D01*
X77134Y102814D01*
X76980Y102826D01*
X73026Y102814D01*
X72876Y102778D01*
X72733Y102719D01*
X72602Y102638D01*
X72484Y102538D01*
X72384Y102420D01*
X72303Y102289D01*
X72246Y102152D01*
X69559D01*
X69591Y102559D01*
X69542Y103185D01*
X69395Y103795D01*
X69325Y103965D01*
X69418Y104066D01*
X69484Y104149D01*
X69549Y104224D01*
X69564Y104248D01*
X69587Y104277D01*
X69645Y104380D01*
X69691Y104455D01*
X69703Y104483D01*
X69720Y104514D01*
X69756Y104612D01*
X69795Y104706D01*
X69802Y104736D01*
X69814Y104768D01*
X69834Y104870D01*
X69858Y104969D01*
X69860Y105000D01*
X69867Y105033D01*
X69871Y105141D01*
X69879Y105239D01*
Y109686D01*
X70016Y109743D01*
X70147Y109824D01*
X70265Y109924D01*
X70365Y110042D01*
X70446Y110173D01*
X70505Y110316D01*
X70541Y110466D01*
X70553Y110620D01*
X70541Y114574D01*
X70505Y114724D01*
X70446Y114867D01*
X70365Y114998D01*
X70265Y115116D01*
X70147Y115216D01*
X70016Y115297D01*
X69873Y115356D01*
X69723Y115392D01*
X69569Y115404D01*
X66725Y115393D01*
Y116888D01*
G37*
G36*
Y125007D02*X72013D01*
X72092Y124988D01*
X72362Y124967D01*
X72742D01*
X73012Y124988D01*
X73275Y125051D01*
X73526Y125155D01*
X73757Y125297D01*
X73962Y125473D01*
X76041Y127552D01*
X77061Y127556D01*
X78017Y126601D01*
X78023Y126594D01*
X78199Y126444D01*
X78397Y126323D01*
X78611Y126234D01*
X78836Y126180D01*
X79067Y126162D01*
X79461D01*
X79620Y125902D01*
X79921Y125550D01*
X80273Y125249D01*
X80668Y125007D01*
X81096Y124830D01*
X81547Y124721D01*
X82009Y124685D01*
X82471Y124721D01*
X82922Y124830D01*
X83350Y125007D01*
X83745Y125249D01*
X84097Y125550D01*
X84384Y125886D01*
X88258D01*
X88270Y122914D01*
X88306Y122764D01*
X88365Y122621D01*
X88446Y122490D01*
X88546Y122372D01*
X88664Y122272D01*
X88795Y122191D01*
X88938Y122132D01*
X89088Y122096D01*
X89242Y122084D01*
X93196Y122096D01*
X93346Y122132D01*
X93489Y122191D01*
X93620Y122272D01*
X93738Y122372D01*
X93838Y122490D01*
X93919Y122621D01*
X93950Y122697D01*
X95050D01*
X95209Y122437D01*
X95510Y122085D01*
X95862Y121784D01*
X96257Y121542D01*
X96685Y121365D01*
X97136Y121256D01*
X97598Y121220D01*
X98060Y121256D01*
X98511Y121365D01*
X98939Y121542D01*
X99090Y121635D01*
X99101Y120688D01*
X99152Y120476D01*
X99154Y120472D01*
X94339D01*
X94168Y120513D01*
X93937Y120531D01*
X93168D01*
X93114Y120577D01*
X92719Y120819D01*
X92291Y120996D01*
X91840Y121105D01*
X91378Y121141D01*
X90916Y121105D01*
X90465Y120996D01*
X90037Y120819D01*
X89642Y120577D01*
X89290Y120276D01*
X89200Y120170D01*
X87900Y121470D01*
X87894Y121477D01*
X87718Y121627D01*
X87596Y121702D01*
X87521Y121748D01*
X87432Y121785D01*
X87306Y121837D01*
X87081Y121891D01*
X86851Y121909D01*
X79547D01*
X79545Y122373D01*
X79490Y122602D01*
X79400Y122819D01*
X79277Y123020D01*
X79124Y123199D01*
X78945Y123352D01*
X78744Y123475D01*
X78527Y123565D01*
X78298Y123620D01*
X78063Y123638D01*
X73828Y123620D01*
X73599Y123565D01*
X73382Y123475D01*
X73181Y123352D01*
X73002Y123199D01*
X72849Y123020D01*
X72726Y122819D01*
X72636Y122602D01*
X72581Y122373D01*
X72565Y122159D01*
X70496D01*
X70444Y122243D01*
X70344Y122361D01*
X70226Y122461D01*
X70095Y122542D01*
X69952Y122601D01*
X69802Y122637D01*
X69648Y122649D01*
X66725Y122637D01*
Y125007D01*
G37*
G36*
X84461Y131453D02*X86696Y131462D01*
X86925Y131517D01*
X87142Y131607D01*
X87343Y131730D01*
X87522Y131883D01*
X87675Y132062D01*
X87798Y132263D01*
X87843Y132371D01*
X88068Y132178D01*
X88305Y132033D01*
X88270Y131888D01*
X88258Y131734D01*
X88270Y128838D01*
X84698D01*
X84640Y128979D01*
X84461Y129271D01*
Y131453D01*
G37*
G36*
Y150223D02*X91793Y142891D01*
X91729Y142627D01*
X91693Y142165D01*
X91729Y141703D01*
X91838Y141252D01*
X92015Y140824D01*
X92257Y140429D01*
X92558Y140077D01*
X92673Y139979D01*
X87095D01*
X87060Y140125D01*
X86883Y140553D01*
X86641Y140948D01*
X86340Y141300D01*
X85988Y141601D01*
X85593Y141843D01*
X85165Y142020D01*
X84714Y142129D01*
X84461Y142149D01*
Y150223D01*
G37*
G36*
Y224409D02*X154444D01*
Y158956D01*
X110343D01*
X110184Y159216D01*
X109883Y159568D01*
X109531Y159869D01*
X109136Y160111D01*
X108708Y160288D01*
X108257Y160397D01*
X107795Y160433D01*
X107333Y160397D01*
X106882Y160288D01*
X106454Y160111D01*
X106059Y159869D01*
X105707Y159568D01*
X105406Y159216D01*
X105164Y158821D01*
X104987Y158393D01*
X104878Y157942D01*
X104842Y157480D01*
X104878Y157018D01*
X104987Y156567D01*
X105164Y156139D01*
X105406Y155744D01*
X105707Y155392D01*
X106059Y155091D01*
X106454Y154849D01*
X106882Y154672D01*
X107333Y154563D01*
X107795Y154527D01*
X108257Y154563D01*
X108708Y154672D01*
X109136Y154849D01*
X109531Y155091D01*
X109883Y155392D01*
X110184Y155744D01*
X110343Y156004D01*
X154444D01*
Y147099D01*
X154209Y146955D01*
X153857Y146654D01*
X153556Y146302D01*
X153314Y145907D01*
X153137Y145479D01*
X153028Y145028D01*
X152992Y144566D01*
X153028Y144104D01*
X153137Y143653D01*
X153314Y143225D01*
X153556Y142830D01*
X153857Y142478D01*
X154209Y142177D01*
X154444Y142033D01*
Y138120D01*
X154304Y137956D01*
X154062Y137561D01*
X153885Y137133D01*
X153776Y136682D01*
X153740Y136220D01*
X153776Y135758D01*
X153885Y135307D01*
X154062Y134879D01*
X154304Y134484D01*
X154444Y134320D01*
Y133991D01*
X154252Y134216D01*
X153900Y134517D01*
X153505Y134759D01*
X153077Y134936D01*
X152626Y135045D01*
X152164Y135081D01*
X151702Y135045D01*
X151251Y134936D01*
X150823Y134759D01*
X150428Y134517D01*
X150076Y134216D01*
X149775Y133864D01*
X149533Y133469D01*
X149356Y133041D01*
X149247Y132590D01*
X149211Y132128D01*
X149247Y131666D01*
X149356Y131215D01*
X149533Y130787D01*
X149775Y130392D01*
X150076Y130040D01*
X150428Y129739D01*
X150810Y129505D01*
X150849Y129411D01*
X150970Y129213D01*
X151120Y129037D01*
X151127Y129031D01*
X153905Y126253D01*
X147287D01*
X147246Y126301D01*
X146894Y126602D01*
X146499Y126844D01*
X146071Y127021D01*
X145620Y127130D01*
X145158Y127166D01*
X144696Y127130D01*
X144245Y127021D01*
X143817Y126844D01*
X143422Y126602D01*
X143070Y126301D01*
X142769Y125949D01*
X142527Y125554D01*
X142350Y125126D01*
X142241Y124675D01*
X142205Y124213D01*
X142241Y123751D01*
X142350Y123300D01*
X142527Y122872D01*
X142769Y122477D01*
X143070Y122125D01*
X143422Y121824D01*
X143817Y121582D01*
X144245Y121405D01*
X144696Y121296D01*
X145158Y121260D01*
X145620Y121296D01*
X146071Y121405D01*
X146499Y121582D01*
X146894Y121824D01*
X147246Y122125D01*
X147547Y122477D01*
X147789Y122872D01*
X147966Y123300D01*
Y123301D01*
X154444D01*
Y117339D01*
X148701Y117328D01*
X148548Y117291D01*
X148403Y117231D01*
X148269Y117149D01*
X148150Y117047D01*
X148048Y116928D01*
X147966Y116794D01*
X147906Y116649D01*
X147869Y116496D01*
X147857Y116340D01*
X147869Y111066D01*
X147906Y110913D01*
X147966Y110768D01*
X148048Y110634D01*
X148150Y110515D01*
X148269Y110413D01*
X148403Y110331D01*
X148548Y110271D01*
X148684Y110238D01*
X148548Y110205D01*
X148403Y110145D01*
X148269Y110063D01*
X148150Y109961D01*
X148048Y109842D01*
X147966Y109708D01*
X147906Y109563D01*
X147869Y109410D01*
X147857Y109254D01*
X147860Y107734D01*
X143664D01*
X143783Y107807D01*
X144135Y108108D01*
X144436Y108460D01*
X144678Y108855D01*
X144855Y109283D01*
X144964Y109734D01*
X145000Y110196D01*
X144964Y110658D01*
X144855Y111109D01*
X144678Y111537D01*
X144436Y111932D01*
X144135Y112284D01*
X143783Y112585D01*
X143388Y112827D01*
X142960Y113004D01*
X142509Y113113D01*
X142047Y113149D01*
X141585Y113113D01*
X141289Y113041D01*
X134297Y120033D01*
X134291Y120040D01*
X134115Y120190D01*
X133993Y120265D01*
X133918Y120311D01*
X133829Y120348D01*
X133703Y120400D01*
X133478Y120454D01*
X133248Y120472D01*
X129979D01*
X129983Y120475D01*
X129991Y120484D01*
X130000Y120492D01*
X130059Y120561D01*
X130136Y120649D01*
X130142Y120659D01*
X130150Y120668D01*
X130206Y120760D01*
X130260Y120845D01*
X130264Y120855D01*
X130271Y120866D01*
X130323Y120991D01*
X130352Y121057D01*
X130355Y121067D01*
X130360Y121080D01*
X130383Y121174D01*
X130410Y121281D01*
X130411Y121293D01*
X130414Y121305D01*
X130422Y121404D01*
X130432Y121512D01*
X130431Y121525D01*
X130432Y121536D01*
Y121555D01*
X130420Y121706D01*
X130418Y121743D01*
X130417Y121747D01*
X130414Y121786D01*
X130360Y122011D01*
X130271Y122225D01*
X130150Y122423D01*
X130000Y122599D01*
X129977Y122619D01*
X130412D01*
X130524Y122437D01*
X130825Y122085D01*
X131177Y121784D01*
X131572Y121542D01*
X132000Y121365D01*
X132451Y121256D01*
X132913Y121220D01*
X133375Y121256D01*
X133826Y121365D01*
X134254Y121542D01*
X134649Y121784D01*
X135001Y122085D01*
X135302Y122437D01*
X135544Y122832D01*
X135721Y123260D01*
X135830Y123711D01*
X135866Y124173D01*
X135830Y124635D01*
X135721Y125086D01*
X135544Y125514D01*
X135302Y125909D01*
X135001Y126261D01*
X134649Y126562D01*
X134254Y126804D01*
X133826Y126981D01*
X133375Y127090D01*
X132956Y127123D01*
X133259Y127432D01*
X135098Y129271D01*
X138515D01*
X138674Y129011D01*
X138975Y128659D01*
X139327Y128358D01*
X139722Y128116D01*
X140150Y127939D01*
X140601Y127830D01*
X141063Y127794D01*
X141525Y127830D01*
X141976Y127939D01*
X142404Y128116D01*
X142799Y128358D01*
X143151Y128659D01*
X143452Y129011D01*
X143694Y129406D01*
X143871Y129834D01*
X143980Y130285D01*
X144016Y130747D01*
X143980Y131209D01*
X143871Y131660D01*
X143694Y132088D01*
X143452Y132483D01*
X143151Y132835D01*
X142799Y133136D01*
X142404Y133378D01*
X141976Y133555D01*
X141525Y133664D01*
X141063Y133700D01*
X140601Y133664D01*
X140505Y133641D01*
X140752Y133792D01*
X141104Y134093D01*
X141405Y134445D01*
X141647Y134840D01*
X141824Y135268D01*
X141933Y135719D01*
X141969Y136181D01*
X141933Y136643D01*
X141824Y137094D01*
X141647Y137522D01*
X141405Y137917D01*
X141104Y138269D01*
X140752Y138570D01*
X140357Y138812D01*
X139929Y138989D01*
X139478Y139098D01*
X139016Y139134D01*
X138554Y139098D01*
X138103Y138989D01*
X137675Y138812D01*
X137280Y138570D01*
X136928Y138269D01*
X136627Y137917D01*
X136385Y137522D01*
X136208Y137094D01*
X136099Y136643D01*
X136063Y136181D01*
X136080Y135964D01*
X129807D01*
X129761Y135975D01*
X129606Y135987D01*
X123545Y135975D01*
X123395Y135939D01*
X123251Y135879D01*
X123119Y135798D01*
X123001Y135698D01*
X122901Y135580D01*
X122820Y135448D01*
X122760Y135304D01*
X122724Y135154D01*
X122712Y134999D01*
X122724Y133544D01*
X122760Y133394D01*
X122813Y133266D01*
X120749D01*
X101318Y152697D01*
Y160444D01*
X101578Y160603D01*
X101930Y160904D01*
X102231Y161256D01*
X102473Y161651D01*
X102650Y162079D01*
X102759Y162530D01*
X102795Y162992D01*
X102759Y163454D01*
X102650Y163905D01*
X102473Y164333D01*
X102231Y164728D01*
X101930Y165080D01*
X101578Y165381D01*
X101183Y165623D01*
X100755Y165800D01*
X100304Y165909D01*
X99842Y165945D01*
X99380Y165909D01*
X98929Y165800D01*
X98501Y165623D01*
X98106Y165381D01*
X97754Y165080D01*
X97453Y164728D01*
X97211Y164333D01*
X97034Y163905D01*
X96925Y163454D01*
X96889Y162992D01*
X96925Y162530D01*
X97034Y162079D01*
X97211Y161651D01*
X97453Y161256D01*
X97754Y160904D01*
X98106Y160603D01*
X98366Y160444D01*
Y152086D01*
X98384Y151855D01*
X98438Y151630D01*
X98527Y151416D01*
X98648Y151218D01*
X98798Y151042D01*
X98805Y151036D01*
X112302Y137539D01*
X111879Y137641D01*
X111417Y137677D01*
X110955Y137641D01*
X110626Y137562D01*
X108648Y139540D01*
X108642Y139547D01*
X108466Y139697D01*
X108344Y139772D01*
X108269Y139818D01*
X108180Y139855D01*
X108054Y139907D01*
X107829Y139961D01*
X107599Y139979D01*
X96619D01*
X96734Y140077D01*
X97035Y140429D01*
X97277Y140824D01*
X97454Y141252D01*
X97563Y141703D01*
X97599Y142165D01*
X97563Y142627D01*
X97454Y143078D01*
X97277Y143506D01*
X97035Y143901D01*
X96734Y144253D01*
X96382Y144554D01*
X95987Y144796D01*
X95559Y144973D01*
X95108Y145082D01*
X94646Y145118D01*
X94184Y145082D01*
X93855Y145003D01*
X85374Y153484D01*
Y162373D01*
X85634Y162532D01*
X85986Y162833D01*
X86287Y163185D01*
X86529Y163580D01*
X86706Y164008D01*
X86815Y164459D01*
X86851Y164921D01*
X86815Y165383D01*
X86706Y165834D01*
X86529Y166262D01*
X86287Y166657D01*
X85986Y167009D01*
X85634Y167310D01*
X85239Y167552D01*
X84811Y167729D01*
X84461Y167814D01*
Y183421D01*
X86696Y183430D01*
X86925Y183485D01*
X87142Y183575D01*
X87343Y183698D01*
X87522Y183851D01*
X87675Y184030D01*
X87798Y184231D01*
X87888Y184448D01*
X87943Y184677D01*
X87961Y184912D01*
X87943Y188547D01*
X87888Y188776D01*
X87798Y188993D01*
X87675Y189194D01*
X87522Y189373D01*
X87343Y189526D01*
X87142Y189649D01*
X87120Y189658D01*
X87159Y189722D01*
X87336Y190150D01*
X87445Y190601D01*
X87481Y191063D01*
X87445Y191525D01*
X87336Y191976D01*
X87159Y192404D01*
X86917Y192799D01*
X86616Y193151D01*
X86264Y193452D01*
X85869Y193694D01*
X85441Y193871D01*
X84990Y193980D01*
X84528Y194016D01*
X84461Y194011D01*
Y224409D01*
G37*
G36*
X66725D02*X84461D01*
Y194011D01*
X84066Y193980D01*
X83615Y193871D01*
X83187Y193694D01*
X82792Y193452D01*
X82440Y193151D01*
X82139Y192799D01*
X81897Y192404D01*
X81720Y191976D01*
X81611Y191525D01*
X81575Y191063D01*
X81611Y190601D01*
X81720Y190150D01*
X81897Y189722D01*
X81909Y189702D01*
X81780Y189649D01*
X81579Y189526D01*
X81400Y189373D01*
X81247Y189194D01*
X81124Y188993D01*
X81034Y188776D01*
X80979Y188547D01*
X80961Y188312D01*
X80979Y184677D01*
X81034Y184448D01*
X81124Y184231D01*
X81247Y184030D01*
X81400Y183851D01*
X81579Y183698D01*
X81780Y183575D01*
X81997Y183485D01*
X82226Y183430D01*
X82461Y183412D01*
X84461Y183421D01*
Y167814D01*
X84360Y167838D01*
X83898Y167874D01*
X83436Y167838D01*
X82985Y167729D01*
X82557Y167552D01*
X82162Y167310D01*
X81810Y167009D01*
X81509Y166657D01*
X81267Y166262D01*
X81090Y165834D01*
X80981Y165383D01*
X80945Y164921D01*
X80981Y164459D01*
X81090Y164008D01*
X81267Y163580D01*
X81509Y163185D01*
X81810Y162833D01*
X82162Y162532D01*
X82422Y162373D01*
Y152873D01*
X82440Y152642D01*
X82494Y152417D01*
X82583Y152203D01*
X82704Y152005D01*
X82854Y151829D01*
X82861Y151823D01*
X84461Y150223D01*
Y142149D01*
X84252Y142165D01*
X83790Y142129D01*
X83339Y142020D01*
X82911Y141843D01*
X82516Y141601D01*
X82164Y141300D01*
X81863Y140948D01*
X81621Y140553D01*
X81444Y140125D01*
X81335Y139674D01*
X81299Y139212D01*
X81335Y138750D01*
X81444Y138299D01*
X81498Y138169D01*
X81508Y138127D01*
X81597Y137913D01*
X81618Y137879D01*
X81621Y137871D01*
X81749Y137662D01*
X81579Y137558D01*
X81400Y137405D01*
X81247Y137226D01*
X81124Y137025D01*
X81034Y136808D01*
X80979Y136579D01*
X80961Y136344D01*
X80979Y132709D01*
X81034Y132480D01*
X81124Y132263D01*
X81247Y132062D01*
X81400Y131883D01*
X81579Y131730D01*
X81780Y131607D01*
X81997Y131517D01*
X82226Y131462D01*
X82461Y131444D01*
X84461Y131453D01*
Y129271D01*
X84398Y129374D01*
X84097Y129726D01*
X83745Y130027D01*
X83350Y130269D01*
X82922Y130446D01*
X82471Y130555D01*
X82009Y130591D01*
X81547Y130555D01*
X81096Y130446D01*
X80668Y130269D01*
X80273Y130027D01*
X79921Y129726D01*
X79759Y129536D01*
X79743Y132679D01*
X79688Y132908D01*
X79598Y133125D01*
X79475Y133326D01*
X79322Y133505D01*
X79143Y133658D01*
X78942Y133781D01*
X78725Y133871D01*
X78496Y133926D01*
X78261Y133944D01*
X74026Y133926D01*
X73797Y133871D01*
X73580Y133781D01*
X73379Y133658D01*
X73200Y133505D01*
X73047Y133326D01*
X72924Y133125D01*
X72834Y132908D01*
X72779Y132679D01*
X72761Y132444D01*
X72777Y129170D01*
X72066Y128459D01*
X66725D01*
Y129360D01*
X68740Y129365D01*
X68893Y129402D01*
X69038Y129462D01*
X69172Y129544D01*
X69291Y129646D01*
X69393Y129765D01*
X69475Y129899D01*
X69535Y130044D01*
X69572Y130197D01*
X69584Y130353D01*
X69578Y134025D01*
X71126Y135573D01*
X71231Y135548D01*
X71693Y135512D01*
X72155Y135548D01*
X72606Y135657D01*
X73034Y135834D01*
X73114Y135883D01*
X73200Y135783D01*
X73379Y135630D01*
X73580Y135507D01*
X73797Y135417D01*
X74026Y135362D01*
X74261Y135344D01*
X78496Y135362D01*
X78725Y135417D01*
X78942Y135507D01*
X79143Y135630D01*
X79322Y135783D01*
X79475Y135962D01*
X79598Y136163D01*
X79688Y136380D01*
X79743Y136609D01*
X79761Y136844D01*
X79743Y140479D01*
X79688Y140708D01*
X79598Y140925D01*
X79475Y141126D01*
X79322Y141305D01*
X79143Y141458D01*
X78942Y141581D01*
X78725Y141671D01*
X78496Y141726D01*
X78261Y141744D01*
X74026Y141726D01*
X73797Y141671D01*
X73580Y141581D01*
X73379Y141458D01*
X73200Y141305D01*
X73047Y141126D01*
X73030Y141098D01*
X72606Y141273D01*
X72155Y141382D01*
X71693Y141418D01*
X71231Y141382D01*
X70780Y141273D01*
X70352Y141096D01*
X69957Y140854D01*
X69605Y140553D01*
X69304Y140201D01*
X69062Y139806D01*
X68885Y139378D01*
X68776Y138927D01*
X68767Y138814D01*
X68740Y138821D01*
X68584Y138833D01*
X66725Y138829D01*
Y139085D01*
X66827Y139110D01*
X67407Y139350D01*
X67942Y139678D01*
X68419Y140086D01*
X68827Y140563D01*
X69155Y141098D01*
X69395Y141678D01*
X69542Y142288D01*
X69591Y142914D01*
X69542Y143540D01*
X69395Y144150D01*
X69155Y144730D01*
X68827Y145265D01*
X68419Y145742D01*
X67942Y146150D01*
X67407Y146478D01*
X66827Y146718D01*
X66725Y146743D01*
Y149085D01*
X66827Y149110D01*
X67407Y149350D01*
X67942Y149678D01*
X68419Y150086D01*
X68827Y150563D01*
X69155Y151098D01*
X69395Y151678D01*
X69542Y152288D01*
X69591Y152914D01*
X69542Y153540D01*
X69395Y154150D01*
X69155Y154730D01*
X68827Y155265D01*
X68419Y155742D01*
X67942Y156150D01*
X67407Y156478D01*
X66827Y156718D01*
X66725Y156743D01*
Y159085D01*
X66827Y159110D01*
X67407Y159350D01*
X67942Y159678D01*
X68419Y160086D01*
X68827Y160563D01*
X69155Y161098D01*
X69395Y161678D01*
X69542Y162288D01*
X69591Y162914D01*
X69542Y163540D01*
X69395Y164150D01*
X69155Y164730D01*
X68827Y165265D01*
X68419Y165742D01*
X67942Y166150D01*
X67407Y166478D01*
X66827Y166718D01*
X66725Y166743D01*
Y169085D01*
X66827Y169110D01*
X67407Y169350D01*
X67942Y169678D01*
X68419Y170086D01*
X68827Y170563D01*
X69155Y171098D01*
X69395Y171678D01*
X69542Y172288D01*
X69591Y172914D01*
X69542Y173540D01*
X69395Y174150D01*
X69155Y174730D01*
X68827Y175265D01*
X68419Y175742D01*
X67942Y176150D01*
X67407Y176478D01*
X66827Y176718D01*
X66725Y176743D01*
Y182234D01*
X67921Y182237D01*
X69016Y181142D01*
X69223Y180965D01*
X69312Y180911D01*
X69453Y180824D01*
X69704Y180720D01*
X69967Y180657D01*
X70237Y180636D01*
X71681D01*
X71650Y180623D01*
X71255Y180381D01*
X70903Y180080D01*
X70602Y179728D01*
X70360Y179333D01*
X70183Y178905D01*
X70074Y178454D01*
X70038Y177992D01*
X70074Y177530D01*
X70183Y177079D01*
X70360Y176651D01*
X70602Y176256D01*
X70903Y175904D01*
X71255Y175603D01*
X71650Y175361D01*
X72078Y175184D01*
X72529Y175075D01*
X72991Y175039D01*
X73453Y175075D01*
X73904Y175184D01*
X74332Y175361D01*
X74727Y175603D01*
X75079Y175904D01*
X75380Y176256D01*
X75622Y176651D01*
X75799Y177079D01*
X75908Y177530D01*
X75944Y177992D01*
X75908Y178454D01*
X75799Y178905D01*
X75622Y179333D01*
X75621Y179335D01*
X75805Y179519D01*
X78496Y179530D01*
X78725Y179585D01*
X78942Y179675D01*
X79143Y179798D01*
X79322Y179951D01*
X79475Y180130D01*
X79598Y180331D01*
X79688Y180548D01*
X79743Y180777D01*
X79761Y181012D01*
X79743Y184647D01*
X79688Y184876D01*
X79598Y185093D01*
X79475Y185294D01*
X79322Y185473D01*
X79143Y185626D01*
X78942Y185749D01*
X78725Y185839D01*
X78496Y185894D01*
X78261Y185912D01*
X74026Y185894D01*
X73797Y185839D01*
X73580Y185749D01*
X73379Y185626D01*
X73200Y185473D01*
X73047Y185294D01*
X72924Y185093D01*
X72834Y184876D01*
X72779Y184647D01*
X72761Y184412D01*
X72763Y184088D01*
X70952D01*
X70368Y184672D01*
X70358Y190865D01*
X70321Y191018D01*
X70261Y191163D01*
X70179Y191297D01*
X70077Y191416D01*
X69958Y191518D01*
X69824Y191600D01*
X69679Y191660D01*
X69526Y191697D01*
X69370Y191709D01*
X66725Y191703D01*
Y193418D01*
X68682D01*
X68778Y193306D01*
X69130Y193005D01*
X69525Y192763D01*
X69953Y192586D01*
X70404Y192477D01*
X70866Y192441D01*
X71317Y192476D01*
X72767Y191026D01*
X72779Y188577D01*
X72834Y188348D01*
X72924Y188131D01*
X73047Y187930D01*
X73200Y187751D01*
X73379Y187598D01*
X73580Y187475D01*
X73797Y187385D01*
X74026Y187330D01*
X74261Y187312D01*
X78496Y187330D01*
X78725Y187385D01*
X78942Y187475D01*
X79143Y187598D01*
X79322Y187751D01*
X79475Y187930D01*
X79598Y188131D01*
X79688Y188348D01*
X79743Y188577D01*
X79761Y188812D01*
X79743Y192447D01*
X79688Y192676D01*
X79598Y192893D01*
X79475Y193094D01*
X79322Y193273D01*
X79143Y193426D01*
X78942Y193549D01*
X78725Y193639D01*
X78496Y193694D01*
X78261Y193712D01*
X74977Y193698D01*
X73775Y194900D01*
X73783Y194932D01*
X73819Y195394D01*
X73783Y195856D01*
X73674Y196307D01*
X73497Y196735D01*
X73255Y197130D01*
X72954Y197482D01*
X72602Y197783D01*
X72207Y198025D01*
X71779Y198202D01*
X71328Y198311D01*
X70866Y198347D01*
X70404Y198311D01*
X69953Y198202D01*
X69525Y198025D01*
X69130Y197783D01*
X68778Y197482D01*
X68682Y197370D01*
X66725D01*
Y224409D01*
G37*
G36*
Y166743D02*X66217Y166865D01*
X65607Y166913D01*
X63268Y169252D01*
X63003Y169478D01*
X62706Y169661D01*
X62383Y169794D01*
X62043Y169876D01*
X61695Y169904D01*
X61683Y169903D01*
X59049D01*
X58827Y170265D01*
X58419Y170742D01*
X57942Y171150D01*
X57914Y171167D01*
X61998Y171168D01*
X62027Y171098D01*
X62355Y170563D01*
X62763Y170086D01*
X63240Y169678D01*
X63775Y169350D01*
X64355Y169110D01*
X64965Y168963D01*
X65591Y168914D01*
X66217Y168963D01*
X66725Y169085D01*
Y166743D01*
G37*
G36*
X55591Y59284D02*X57717Y59289D01*
X57870Y59326D01*
X58015Y59386D01*
X58149Y59468D01*
X58268Y59570D01*
X58370Y59689D01*
X58452Y59823D01*
X58512Y59968D01*
X58549Y60121D01*
X58561Y60277D01*
X58554Y64775D01*
X63166Y69387D01*
X63240Y69323D01*
X63775Y68995D01*
X64355Y68755D01*
X64394Y68746D01*
X64097Y68745D01*
X63944Y68708D01*
X63799Y68648D01*
X63665Y68566D01*
X63546Y68464D01*
X63444Y68345D01*
X63362Y68211D01*
X63302Y68066D01*
X63265Y67913D01*
X63253Y67757D01*
X63265Y60121D01*
X63302Y59968D01*
X63362Y59823D01*
X63444Y59689D01*
X63546Y59570D01*
X63665Y59468D01*
X63799Y59386D01*
X63944Y59326D01*
X64097Y59289D01*
X64253Y59277D01*
X66725Y59283D01*
Y0D01*
X55591D01*
Y59284D01*
G37*
G36*
Y68841D02*X55672D01*
X55903Y68859D01*
X56128Y68913D01*
X56342Y69002D01*
X56540Y69123D01*
X56716Y69273D01*
X56728Y69287D01*
X62379Y74938D01*
X62355Y74910D01*
X62027Y74375D01*
X61787Y73795D01*
X61724Y73535D01*
X56945Y68756D01*
X55591Y68753D01*
Y68841D01*
G37*
G36*
Y73559D02*X56217Y73608D01*
X56827Y73755D01*
X57160Y73893D01*
X55591Y72324D01*
Y73559D01*
G37*
G36*
Y93559D02*X56217Y93608D01*
X56232Y93612D01*
X58937Y90907D01*
X59204Y90679D01*
X59502Y90497D01*
X59825Y90363D01*
X60164Y90282D01*
X60513Y90254D01*
X60525Y90255D01*
X62326D01*
X62355Y90208D01*
X62763Y89731D01*
X63240Y89323D01*
X63775Y88995D01*
X64355Y88755D01*
X64965Y88608D01*
X65591Y88559D01*
X66217Y88608D01*
X66725Y88730D01*
Y86388D01*
X66217Y86510D01*
X65591Y86559D01*
X64965Y86510D01*
X64355Y86363D01*
X63775Y86123D01*
X63240Y85795D01*
X62763Y85387D01*
X62355Y84910D01*
X62027Y84375D01*
X61787Y83795D01*
X61640Y83185D01*
X61591Y82559D01*
X61640Y81933D01*
X61787Y81323D01*
X62027Y80743D01*
X62355Y80208D01*
X62763Y79731D01*
X63240Y79323D01*
X63773Y78996D01*
X62875D01*
X62644Y78978D01*
X62419Y78924D01*
X62205Y78836D01*
X62007Y78714D01*
X61831Y78564D01*
X59257Y75990D01*
X59395Y76323D01*
X59542Y76933D01*
X59591Y77559D01*
X59542Y78185D01*
X59395Y78795D01*
X59155Y79375D01*
X58827Y79910D01*
X58419Y80387D01*
X57942Y80795D01*
X57407Y81123D01*
X56827Y81363D01*
X56217Y81510D01*
X55591Y81559D01*
Y83559D01*
X56217Y83608D01*
X56827Y83755D01*
X57407Y83995D01*
X57942Y84323D01*
X58419Y84731D01*
X58827Y85208D01*
X59155Y85743D01*
X59395Y86323D01*
X59542Y86933D01*
X59591Y87559D01*
X59542Y88185D01*
X59395Y88795D01*
X59155Y89375D01*
X58827Y89910D01*
X58419Y90387D01*
X57942Y90795D01*
X57407Y91123D01*
X56827Y91363D01*
X56217Y91510D01*
X55591Y91559D01*
Y93559D01*
G37*
G36*
Y125007D02*X66725D01*
Y122637D01*
X66662D01*
X66512Y122601D01*
X66369Y122542D01*
X66238Y122461D01*
X66120Y122361D01*
X66020Y122243D01*
X65939Y122112D01*
X65880Y121969D01*
X65844Y121819D01*
X65832Y121665D01*
X65844Y117711D01*
X65880Y117561D01*
X65939Y117418D01*
X66020Y117287D01*
X66120Y117169D01*
X66238Y117069D01*
X66369Y116988D01*
X66512Y116929D01*
X66662Y116893D01*
X66725Y116888D01*
Y115393D01*
X66583Y115392D01*
X66433Y115356D01*
X66290Y115297D01*
X66159Y115216D01*
X66041Y115116D01*
X65941Y114998D01*
X65860Y114867D01*
X65801Y114724D01*
X65765Y114574D01*
X65753Y114420D01*
X65765Y110466D01*
X65801Y110316D01*
X65860Y110173D01*
X65941Y110042D01*
X66041Y109924D01*
X66159Y109824D01*
X66290Y109743D01*
X66427Y109686D01*
Y106459D01*
X66217Y106510D01*
X65591Y106559D01*
X64965Y106510D01*
X64355Y106363D01*
X63775Y106123D01*
X63240Y105795D01*
X62763Y105387D01*
X62355Y104910D01*
X62027Y104375D01*
X61787Y103795D01*
X61640Y103185D01*
X61591Y102559D01*
X61640Y101933D01*
X61787Y101323D01*
X62027Y100743D01*
X62355Y100208D01*
X62763Y99731D01*
X63240Y99323D01*
X63775Y98995D01*
X64355Y98755D01*
X64965Y98608D01*
X65591Y98559D01*
X66217Y98608D01*
X66725Y98730D01*
Y96388D01*
X66217Y96510D01*
X65591Y96559D01*
X64965Y96510D01*
X64355Y96363D01*
X63775Y96123D01*
X63240Y95795D01*
X62763Y95387D01*
X62355Y94910D01*
X62231Y94707D01*
X61435D01*
X59477Y96665D01*
X59542Y96933D01*
X59591Y97559D01*
X59542Y98185D01*
X59395Y98795D01*
X59155Y99375D01*
X58827Y99910D01*
X58419Y100387D01*
X57942Y100795D01*
X57407Y101123D01*
X56827Y101363D01*
X56217Y101510D01*
X55591Y101559D01*
Y103565D01*
X58747Y103571D01*
X58900Y103608D01*
X59045Y103668D01*
X59179Y103750D01*
X59298Y103852D01*
X59400Y103971D01*
X59482Y104105D01*
X59542Y104250D01*
X59579Y104403D01*
X59591Y104559D01*
X59579Y110715D01*
X59542Y110868D01*
X59490Y110994D01*
X59683Y111187D01*
X59929D01*
X59931Y110466D01*
X59967Y110316D01*
X60026Y110173D01*
X60107Y110042D01*
X60207Y109924D01*
X60325Y109824D01*
X60456Y109743D01*
X60599Y109684D01*
X60749Y109648D01*
X60903Y109636D01*
X63889Y109648D01*
X64039Y109684D01*
X64182Y109743D01*
X64313Y109824D01*
X64431Y109924D01*
X64531Y110042D01*
X64612Y110173D01*
X64671Y110316D01*
X64707Y110466D01*
X64719Y110620D01*
X64707Y114574D01*
X64671Y114724D01*
X64612Y114867D01*
X64531Y114998D01*
X64431Y115116D01*
X64313Y115216D01*
X64182Y115297D01*
X64124Y115321D01*
Y116931D01*
X64261Y116988D01*
X64392Y117069D01*
X64510Y117169D01*
X64610Y117287D01*
X64691Y117418D01*
X64750Y117561D01*
X64786Y117711D01*
X64798Y117865D01*
X64786Y121819D01*
X64750Y121969D01*
X64691Y122112D01*
X64610Y122243D01*
X64510Y122361D01*
X64392Y122461D01*
X64261Y122542D01*
X64118Y122601D01*
X63968Y122637D01*
X63814Y122649D01*
X60828Y122637D01*
X60678Y122601D01*
X60535Y122542D01*
X60404Y122461D01*
X60286Y122361D01*
X60186Y122243D01*
X60105Y122112D01*
X60046Y121969D01*
X60010Y121819D01*
X59998Y121665D01*
X60010Y117711D01*
X60046Y117561D01*
X60105Y117418D01*
X60186Y117287D01*
X60286Y117169D01*
X60404Y117069D01*
X60535Y116988D01*
X60672Y116931D01*
Y115374D01*
X60599Y115356D01*
X60456Y115297D01*
X60325Y115216D01*
X60207Y115116D01*
X60107Y114998D01*
X60026Y114867D01*
X59967Y114724D01*
X59947Y114639D01*
X58981D01*
X58969Y114640D01*
X58699Y114618D01*
X58435Y114555D01*
X58185Y114452D01*
X57954Y114310D01*
X57748Y114134D01*
X55591Y111977D01*
Y125007D01*
G37*
G36*
Y129362D02*X56930Y129365D01*
X57083Y129402D01*
X57228Y129462D01*
X57362Y129544D01*
X57481Y129646D01*
X57583Y129765D01*
X57665Y129899D01*
X57725Y130044D01*
X57762Y130197D01*
X57774Y130353D01*
X57765Y135872D01*
X62402Y140509D01*
X62763Y140086D01*
X63240Y139678D01*
X63775Y139350D01*
X64355Y139110D01*
X64965Y138963D01*
X65591Y138914D01*
X66217Y138963D01*
X66725Y139085D01*
Y138829D01*
X63310Y138821D01*
X63157Y138784D01*
X63012Y138724D01*
X62878Y138642D01*
X62759Y138540D01*
X62657Y138421D01*
X62575Y138287D01*
X62515Y138142D01*
X62478Y137989D01*
X62466Y137833D01*
X62478Y130197D01*
X62515Y130044D01*
X62575Y129899D01*
X62657Y129765D01*
X62759Y129646D01*
X62878Y129544D01*
X63012Y129462D01*
X63157Y129402D01*
X63310Y129365D01*
X63466Y129353D01*
X66725Y129360D01*
Y128459D01*
X55591D01*
Y129362D01*
G37*
G36*
Y163914D02*X56217Y163963D01*
X56827Y164110D01*
X57407Y164350D01*
X57942Y164678D01*
X58419Y165086D01*
X58731Y165451D01*
X60771D01*
X61870Y164352D01*
X61787Y164150D01*
X61640Y163540D01*
X61591Y162914D01*
X61640Y162288D01*
X61787Y161678D01*
X62027Y161098D01*
X62355Y160563D01*
X62763Y160086D01*
X63240Y159678D01*
X63775Y159350D01*
X64355Y159110D01*
X64965Y158963D01*
X65591Y158914D01*
X66217Y158963D01*
X66725Y159085D01*
Y156743D01*
X66217Y156865D01*
X65591Y156914D01*
X64965Y156865D01*
X64355Y156718D01*
X63775Y156478D01*
X63240Y156150D01*
X62763Y155742D01*
X62355Y155265D01*
X62027Y154730D01*
X61787Y154150D01*
X61640Y153540D01*
X61591Y152914D01*
X61640Y152288D01*
X61787Y151678D01*
X62027Y151098D01*
X62355Y150563D01*
X62763Y150086D01*
X63240Y149678D01*
X63775Y149350D01*
X64355Y149110D01*
X64965Y148963D01*
X65591Y148914D01*
X66217Y148963D01*
X66725Y149085D01*
Y146743D01*
X66217Y146865D01*
X65591Y146914D01*
X64965Y146865D01*
X64355Y146718D01*
X63775Y146478D01*
X63240Y146150D01*
X62763Y145742D01*
X62355Y145265D01*
X62064Y144790D01*
X62006Y144766D01*
X61961Y144752D01*
X61906Y144725D01*
X61819Y144689D01*
X61761Y144653D01*
X61718Y144632D01*
X61665Y144594D01*
X61588Y144547D01*
X61537Y144503D01*
X61497Y144475D01*
X61449Y144428D01*
X61382Y144371D01*
X55842Y138831D01*
X55591Y138830D01*
Y143914D01*
X56217Y143963D01*
X56827Y144110D01*
X57407Y144350D01*
X57942Y144678D01*
X58419Y145086D01*
X58827Y145563D01*
X59155Y146098D01*
X59395Y146678D01*
X59542Y147288D01*
X59591Y147914D01*
X59542Y148540D01*
X59395Y149150D01*
X59155Y149730D01*
X58827Y150265D01*
X58419Y150742D01*
X57942Y151150D01*
X57407Y151478D01*
X56827Y151718D01*
X56217Y151865D01*
X55591Y151914D01*
Y153914D01*
X56217Y153963D01*
X56827Y154110D01*
X57407Y154350D01*
X57942Y154678D01*
X58419Y155086D01*
X58827Y155563D01*
X59155Y156098D01*
X59395Y156678D01*
X59542Y157288D01*
X59591Y157914D01*
X59542Y158540D01*
X59395Y159150D01*
X59155Y159730D01*
X58827Y160265D01*
X58419Y160742D01*
X57942Y161150D01*
X57407Y161478D01*
X56827Y161718D01*
X56217Y161865D01*
X55591Y161914D01*
Y163914D01*
G37*
G36*
Y193418D02*X66725D01*
Y191703D01*
X64096Y191697D01*
X63943Y191660D01*
X63798Y191600D01*
X63664Y191518D01*
X63545Y191416D01*
X63443Y191297D01*
X63361Y191163D01*
X63301Y191018D01*
X63264Y190865D01*
X63252Y190709D01*
X63264Y183073D01*
X63301Y182920D01*
X63361Y182775D01*
X63443Y182641D01*
X63545Y182522D01*
X63664Y182420D01*
X63798Y182338D01*
X63943Y182278D01*
X64096Y182241D01*
X64252Y182229D01*
X66725Y182234D01*
Y176743D01*
X66217Y176865D01*
X65591Y176914D01*
X64965Y176865D01*
X64355Y176718D01*
X63775Y176478D01*
X63240Y176150D01*
X62763Y175742D01*
X62355Y175265D01*
X62027Y174730D01*
X61900Y174423D01*
X59459D01*
X59482Y174460D01*
X59542Y174605D01*
X59579Y174758D01*
X59591Y174914D01*
X59579Y181070D01*
X59542Y181223D01*
X59482Y181368D01*
X59400Y181502D01*
X59298Y181621D01*
X59179Y181723D01*
X59045Y181805D01*
X58900Y181865D01*
X58747Y181902D01*
X58591Y181914D01*
X57227Y181911D01*
Y182240D01*
X57716Y182241D01*
X57869Y182278D01*
X58014Y182338D01*
X58148Y182420D01*
X58267Y182522D01*
X58369Y182641D01*
X58451Y182775D01*
X58511Y182920D01*
X58548Y183073D01*
X58560Y183229D01*
X58548Y190865D01*
X58511Y191018D01*
X58451Y191163D01*
X58369Y191297D01*
X58267Y191416D01*
X58148Y191518D01*
X58014Y191600D01*
X57869Y191660D01*
X57716Y191697D01*
X57560Y191709D01*
X55591Y191705D01*
Y193418D01*
G37*
G36*
Y224409D02*X66725D01*
Y197370D01*
X55591D01*
Y224409D01*
G37*
G36*
X30591D02*X55591D01*
Y197370D01*
X52088D01*
X52033Y197366D01*
X51969Y197367D01*
X51868Y197353D01*
X51779Y197346D01*
X51724Y197333D01*
X51662Y197324D01*
X51561Y197293D01*
X51477Y197273D01*
X51431Y197254D01*
X51365Y197234D01*
X51270Y197188D01*
X51191Y197155D01*
X51142Y197125D01*
X51087Y197098D01*
X51006Y197042D01*
X50927Y196993D01*
X50885Y196957D01*
X50832Y196920D01*
X50756Y196847D01*
X50691Y196791D01*
X50657Y196751D01*
X50609Y196705D01*
X46770Y192374D01*
X42443Y192367D01*
X42290Y192330D01*
X42145Y192270D01*
X42011Y192188D01*
X41892Y192086D01*
X41790Y191967D01*
X41708Y191833D01*
X41648Y191688D01*
X41611Y191535D01*
X41599Y191379D01*
X41611Y186105D01*
X41648Y185952D01*
X41708Y185807D01*
X41790Y185673D01*
X41892Y185554D01*
X42011Y185452D01*
X42145Y185370D01*
X42290Y185310D01*
X42443Y185273D01*
X42599Y185261D01*
X50235Y185273D01*
X50388Y185310D01*
X50533Y185370D01*
X50667Y185452D01*
X50786Y185554D01*
X50888Y185673D01*
X50970Y185807D01*
X51030Y185952D01*
X51067Y186105D01*
X51079Y186261D01*
X51068Y191266D01*
X52976Y193418D01*
X55591D01*
Y191705D01*
X52286Y191697D01*
X52133Y191660D01*
X51988Y191600D01*
X51854Y191518D01*
X51735Y191416D01*
X51633Y191297D01*
X51551Y191163D01*
X51491Y191018D01*
X51454Y190865D01*
X51442Y190709D01*
X51454Y183073D01*
X51491Y182920D01*
X51551Y182775D01*
X51633Y182641D01*
X51735Y182522D01*
X51854Y182420D01*
X51988Y182338D01*
X52133Y182278D01*
X52286Y182241D01*
X52442Y182229D01*
X52775Y182230D01*
Y181903D01*
X52435Y181902D01*
X52282Y181865D01*
X52137Y181805D01*
X52003Y181723D01*
X51884Y181621D01*
X51782Y181502D01*
X51700Y181368D01*
X51640Y181223D01*
X51603Y181070D01*
X51591Y180914D01*
X51603Y174758D01*
X51640Y174605D01*
X51700Y174460D01*
X51724Y174421D01*
X51345D01*
X51078Y174688D01*
X51067Y179725D01*
X51030Y179878D01*
X50970Y180023D01*
X50888Y180157D01*
X50786Y180276D01*
X50667Y180378D01*
X50533Y180460D01*
X50388Y180520D01*
X50235Y180557D01*
X50079Y180569D01*
X42443Y180557D01*
X42290Y180520D01*
X42145Y180460D01*
X42011Y180378D01*
X41892Y180276D01*
X41790Y180157D01*
X41708Y180023D01*
X41648Y179878D01*
X41611Y179725D01*
X41599Y179569D01*
X41611Y174295D01*
X41648Y174142D01*
X41708Y173997D01*
X41790Y173863D01*
X41892Y173744D01*
X42011Y173642D01*
X42145Y173560D01*
X42290Y173500D01*
X42443Y173463D01*
X42599Y173451D01*
X47704Y173459D01*
X49478Y171684D01*
X49508Y171659D01*
X49521Y171643D01*
X49715Y171477D01*
X49932Y171343D01*
X50168Y171246D01*
X50416Y171186D01*
X50671Y171166D01*
X53267D01*
X53240Y171150D01*
X52763Y170742D01*
X52355Y170265D01*
X52027Y169730D01*
X51787Y169150D01*
X51640Y168540D01*
X51591Y167914D01*
X51640Y167288D01*
X51787Y166678D01*
X52027Y166098D01*
X52355Y165563D01*
X52763Y165086D01*
X53240Y164678D01*
X53775Y164350D01*
X54355Y164110D01*
X54965Y163963D01*
X55591Y163914D01*
Y161914D01*
X54965Y161865D01*
X54355Y161718D01*
X53775Y161478D01*
X53240Y161150D01*
X52763Y160742D01*
X52355Y160265D01*
X52027Y159730D01*
X51787Y159150D01*
X51640Y158540D01*
X51591Y157914D01*
X51640Y157288D01*
X51787Y156678D01*
X52027Y156098D01*
X52355Y155563D01*
X52763Y155086D01*
X53240Y154678D01*
X53775Y154350D01*
X54355Y154110D01*
X54965Y153963D01*
X55591Y153914D01*
Y151914D01*
X54965Y151865D01*
X54355Y151718D01*
X53775Y151478D01*
X53240Y151150D01*
X52763Y150742D01*
X52355Y150265D01*
X52027Y149730D01*
X51787Y149150D01*
X51640Y148540D01*
X51591Y147914D01*
X51640Y147288D01*
X51787Y146678D01*
X51824Y146589D01*
X51291Y146056D01*
X49104D01*
X49098Y148621D01*
X49061Y148774D01*
X49001Y148919D01*
X48919Y149053D01*
X48817Y149172D01*
X48698Y149274D01*
X48564Y149356D01*
X48419Y149416D01*
X48266Y149453D01*
X48110Y149465D01*
X40474Y149453D01*
X40321Y149416D01*
X40176Y149356D01*
X40042Y149274D01*
X39923Y149172D01*
X39821Y149053D01*
X39739Y148919D01*
X39679Y148774D01*
X39642Y148621D01*
X39630Y148465D01*
X39642Y143191D01*
X39679Y143038D01*
X39739Y142893D01*
X39821Y142759D01*
X39923Y142640D01*
X40042Y142538D01*
X40176Y142456D01*
X40321Y142396D01*
X40474Y142359D01*
X40630Y142347D01*
X48266Y142359D01*
X48419Y142396D01*
X48564Y142456D01*
X48698Y142538D01*
X48775Y142604D01*
X52007D01*
X52277Y142625D01*
X52540Y142688D01*
X52791Y142792D01*
X53022Y142934D01*
X53227Y143110D01*
X54264Y144147D01*
X54355Y144110D01*
X54965Y143963D01*
X55591Y143914D01*
Y138830D01*
X51500Y138821D01*
X51347Y138784D01*
X51202Y138724D01*
X51068Y138642D01*
X50949Y138540D01*
X50847Y138421D01*
X50765Y138287D01*
X50705Y138142D01*
X50668Y137989D01*
X50656Y137833D01*
X50668Y130197D01*
X50705Y130044D01*
X50765Y129899D01*
X50847Y129765D01*
X50949Y129646D01*
X51068Y129544D01*
X51202Y129462D01*
X51347Y129402D01*
X51500Y129365D01*
X51656Y129353D01*
X55591Y129362D01*
Y128459D01*
X50204D01*
X48114Y130549D01*
X48266D01*
X48419Y130586D01*
X48564Y130646D01*
X48698Y130728D01*
X48817Y130830D01*
X48919Y130949D01*
X49001Y131083D01*
X49061Y131228D01*
X49098Y131381D01*
X49110Y131537D01*
X49098Y136811D01*
X49061Y136964D01*
X49001Y137109D01*
X48919Y137243D01*
X48817Y137362D01*
X48698Y137464D01*
X48564Y137546D01*
X48419Y137606D01*
X48266Y137643D01*
X48110Y137655D01*
X40474Y137643D01*
X40321Y137606D01*
X40176Y137546D01*
X40042Y137464D01*
X39923Y137362D01*
X39821Y137243D01*
X39739Y137109D01*
X39679Y136964D01*
X39642Y136811D01*
X39630Y136655D01*
X39642Y131381D01*
X39679Y131228D01*
X39739Y131083D01*
X39821Y130949D01*
X39923Y130830D01*
X40042Y130728D01*
X40176Y130646D01*
X40321Y130586D01*
X40474Y130549D01*
X40630Y130537D01*
X43240Y130541D01*
X48268Y125513D01*
X48475Y125336D01*
X48564Y125282D01*
X48705Y125195D01*
X48956Y125091D01*
X49219Y125028D01*
X49489Y125007D01*
X55591D01*
Y111977D01*
X55166Y111552D01*
X52435Y111547D01*
X52282Y111510D01*
X52137Y111450D01*
X52003Y111368D01*
X51884Y111266D01*
X51782Y111147D01*
X51700Y111013D01*
X51640Y110868D01*
X51603Y110715D01*
X51591Y110559D01*
X51603Y104403D01*
X51640Y104250D01*
X51700Y104105D01*
X51782Y103971D01*
X51884Y103852D01*
X52003Y103750D01*
X52137Y103668D01*
X52282Y103608D01*
X52435Y103571D01*
X52591Y103559D01*
X55591Y103565D01*
Y101559D01*
X54965Y101510D01*
X54355Y101363D01*
X53775Y101123D01*
X53240Y100795D01*
X52763Y100387D01*
X52355Y99910D01*
X52027Y99375D01*
X51787Y98795D01*
X51640Y98185D01*
X51591Y97559D01*
X51640Y96933D01*
X51787Y96323D01*
X52027Y95743D01*
X52355Y95208D01*
X52763Y94731D01*
X53240Y94323D01*
X53775Y93995D01*
X54355Y93755D01*
X54965Y93608D01*
X55591Y93559D01*
Y91559D01*
X54965Y91510D01*
X54355Y91363D01*
X53775Y91123D01*
X53240Y90795D01*
X52763Y90387D01*
X52355Y89910D01*
X52027Y89375D01*
X51787Y88795D01*
X51640Y88185D01*
X51591Y87559D01*
X51640Y86933D01*
X51787Y86323D01*
X52027Y85743D01*
X52355Y85208D01*
X52763Y84731D01*
X53240Y84323D01*
X53775Y83995D01*
X54355Y83755D01*
X54965Y83608D01*
X55591Y83559D01*
Y81559D01*
X54965Y81510D01*
X54380Y81369D01*
X52401Y83348D01*
X52196Y83523D01*
X51965Y83665D01*
X51714Y83769D01*
X51515Y83817D01*
X51452Y83832D01*
X51182Y83853D01*
X49887D01*
X49885Y84842D01*
X49848Y84995D01*
X49788Y85140D01*
X49706Y85274D01*
X49604Y85393D01*
X49485Y85495D01*
X49351Y85577D01*
X49206Y85637D01*
X49053Y85674D01*
X48897Y85686D01*
X41261Y85674D01*
X41108Y85637D01*
X40963Y85577D01*
X40829Y85495D01*
X40710Y85393D01*
X40608Y85274D01*
X40526Y85140D01*
X40466Y84995D01*
X40429Y84842D01*
X40417Y84686D01*
X40429Y79412D01*
X40466Y79259D01*
X40526Y79114D01*
X40608Y78980D01*
X40710Y78861D01*
X40829Y78759D01*
X40963Y78677D01*
X41108Y78617D01*
X41261Y78580D01*
X41417Y78568D01*
X49053Y78580D01*
X49206Y78617D01*
X49351Y78677D01*
X49485Y78759D01*
X49604Y78861D01*
X49706Y78980D01*
X49788Y79114D01*
X49848Y79259D01*
X49885Y79412D01*
X49897Y79568D01*
X49895Y80401D01*
X50466D01*
X51870Y78997D01*
X51787Y78795D01*
X51640Y78185D01*
X51591Y77559D01*
X51640Y76933D01*
X51787Y76323D01*
X52027Y75743D01*
X52355Y75208D01*
X52763Y74731D01*
X53240Y74323D01*
X53775Y73995D01*
X54355Y73755D01*
X54965Y73608D01*
X55591Y73559D01*
Y72324D01*
X55060Y71793D01*
X49888D01*
X49885Y73032D01*
X49848Y73185D01*
X49788Y73330D01*
X49706Y73464D01*
X49604Y73583D01*
X49485Y73685D01*
X49351Y73767D01*
X49206Y73827D01*
X49053Y73864D01*
X48897Y73876D01*
X41261Y73864D01*
X41108Y73827D01*
X40963Y73767D01*
X40829Y73685D01*
X40710Y73583D01*
X40608Y73464D01*
X40526Y73330D01*
X40466Y73185D01*
X40429Y73032D01*
X40417Y72876D01*
X40429Y67602D01*
X40466Y67449D01*
X40526Y67304D01*
X40608Y67170D01*
X40710Y67051D01*
X40829Y66949D01*
X40963Y66867D01*
X41108Y66807D01*
X41261Y66770D01*
X41417Y66758D01*
X49053Y66770D01*
X49206Y66807D01*
X49351Y66867D01*
X49485Y66949D01*
X49604Y67051D01*
X49706Y67170D01*
X49788Y67304D01*
X49848Y67449D01*
X49885Y67602D01*
X49897Y67758D01*
X49895Y68841D01*
X55591D01*
Y68753D01*
X52287Y68745D01*
X52134Y68708D01*
X51989Y68648D01*
X51855Y68566D01*
X51736Y68464D01*
X51634Y68345D01*
X51552Y68211D01*
X51492Y68066D01*
X51455Y67913D01*
X51443Y67757D01*
X51455Y60121D01*
X51492Y59968D01*
X51552Y59823D01*
X51634Y59689D01*
X51736Y59570D01*
X51855Y59468D01*
X51989Y59386D01*
X52134Y59326D01*
X52287Y59289D01*
X52443Y59277D01*
X55591Y59284D01*
Y0D01*
X30591D01*
Y60159D01*
X31749Y60250D01*
X32878Y60521D01*
X33951Y60966D01*
X34941Y61572D01*
X35824Y62326D01*
X36578Y63209D01*
X37184Y64199D01*
X37629Y65272D01*
X37900Y66401D01*
X37991Y67559D01*
X37900Y68717D01*
X37629Y69846D01*
X37184Y70919D01*
X36578Y71909D01*
X35824Y72792D01*
X34941Y73546D01*
X33951Y74152D01*
X32878Y74597D01*
X31749Y74868D01*
X30591Y74959D01*
Y105159D01*
X31749Y105250D01*
X32878Y105521D01*
X33951Y105966D01*
X34941Y106572D01*
X35824Y107326D01*
X36578Y108209D01*
X37184Y109199D01*
X37629Y110272D01*
X37900Y111401D01*
X37991Y112559D01*
X37900Y113717D01*
X37629Y114846D01*
X37184Y115919D01*
X36578Y116909D01*
X35824Y117792D01*
X34941Y118546D01*
X33951Y119152D01*
X32878Y119597D01*
X31749Y119868D01*
X30591Y119959D01*
Y130514D01*
X31749Y130605D01*
X32878Y130876D01*
X33951Y131321D01*
X34941Y131927D01*
X35824Y132681D01*
X36578Y133564D01*
X37184Y134554D01*
X37629Y135627D01*
X37900Y136756D01*
X37991Y137914D01*
X37900Y139072D01*
X37629Y140201D01*
X37184Y141274D01*
X36578Y142264D01*
X35824Y143147D01*
X34941Y143901D01*
X33951Y144507D01*
X32878Y144952D01*
X31749Y145223D01*
X30591Y145314D01*
Y175514D01*
X31749Y175605D01*
X32878Y175876D01*
X33951Y176321D01*
X34941Y176927D01*
X35824Y177681D01*
X36578Y178564D01*
X37184Y179554D01*
X37629Y180627D01*
X37900Y181756D01*
X37991Y182914D01*
X37900Y184072D01*
X37629Y185201D01*
X37184Y186274D01*
X36578Y187264D01*
X35824Y188147D01*
X34941Y188901D01*
X33951Y189507D01*
X32878Y189952D01*
X31749Y190223D01*
X30591Y190314D01*
Y224409D01*
G37*
G36*
X15748D02*X30591D01*
Y190314D01*
X29433Y190223D01*
X28304Y189952D01*
X27231Y189507D01*
X26241Y188901D01*
X25358Y188147D01*
X24604Y187264D01*
X23998Y186274D01*
X23553Y185201D01*
X23282Y184072D01*
X23191Y182914D01*
X23282Y181756D01*
X23553Y180627D01*
X23998Y179554D01*
X24604Y178564D01*
X25358Y177681D01*
X26241Y176927D01*
X27231Y176321D01*
X28304Y175876D01*
X29433Y175605D01*
X30591Y175514D01*
Y145314D01*
X29433Y145223D01*
X28304Y144952D01*
X27231Y144507D01*
X26241Y143901D01*
X25358Y143147D01*
X24604Y142264D01*
X23998Y141274D01*
X23553Y140201D01*
X23282Y139072D01*
X23191Y137914D01*
X23282Y136756D01*
X23553Y135627D01*
X23998Y134554D01*
X24604Y133564D01*
X25358Y132681D01*
X26241Y131927D01*
X27231Y131321D01*
X28304Y130876D01*
X29433Y130605D01*
X30591Y130514D01*
Y119959D01*
X29433Y119868D01*
X28304Y119597D01*
X27231Y119152D01*
X26241Y118546D01*
X25358Y117792D01*
X24604Y116909D01*
X23998Y115919D01*
X23553Y114846D01*
X23282Y113717D01*
X23191Y112559D01*
X23282Y111401D01*
X23553Y110272D01*
X23998Y109199D01*
X24604Y108209D01*
X25358Y107326D01*
X26241Y106572D01*
X27231Y105966D01*
X28304Y105521D01*
X29433Y105250D01*
X30591Y105159D01*
Y74959D01*
X29433Y74868D01*
X28304Y74597D01*
X27231Y74152D01*
X26241Y73546D01*
X25358Y72792D01*
X24604Y71909D01*
X23998Y70919D01*
X23553Y69846D01*
X23282Y68717D01*
X23191Y67559D01*
X23282Y66401D01*
X23553Y65272D01*
X23998Y64199D01*
X24604Y63209D01*
X25358Y62326D01*
X26241Y61572D01*
X27231Y60966D01*
X28304Y60521D01*
X29433Y60250D01*
X30591Y60159D01*
Y0D01*
X15748D01*
Y2398D01*
X17836Y2562D01*
X19873Y3051D01*
X21809Y3853D01*
X23595Y4948D01*
X25188Y6308D01*
X26548Y7901D01*
X27643Y9687D01*
X28445Y11623D01*
X28934Y13660D01*
X29098Y15748D01*
X28934Y17836D01*
X28445Y19873D01*
X27643Y21809D01*
X26548Y23595D01*
X25188Y25188D01*
X23595Y26548D01*
X21809Y27643D01*
X19873Y28445D01*
X17836Y28934D01*
X15748Y29098D01*
Y195311D01*
X17836Y195475D01*
X19873Y195964D01*
X21809Y196766D01*
X23595Y197861D01*
X25188Y199221D01*
X26548Y200814D01*
X27643Y202600D01*
X28445Y204536D01*
X28934Y206573D01*
X29098Y208661D01*
X28934Y210749D01*
X28445Y212786D01*
X27643Y214722D01*
X26548Y216508D01*
X25188Y218101D01*
X23595Y219461D01*
X21809Y220556D01*
X19873Y221358D01*
X17836Y221847D01*
X15748Y222011D01*
Y224409D01*
G37*
G36*
X0D02*X15748D01*
Y222011D01*
X13660Y221847D01*
X11623Y221358D01*
X9687Y220556D01*
X7901Y219461D01*
X6308Y218101D01*
X4948Y216508D01*
X3853Y214722D01*
X3051Y212786D01*
X2562Y210749D01*
X2398Y208661D01*
X2562Y206573D01*
X3051Y204536D01*
X3853Y202600D01*
X4948Y200814D01*
X6308Y199221D01*
X7901Y197861D01*
X9687Y196766D01*
X11623Y195964D01*
X13660Y195475D01*
X15748Y195311D01*
Y29098D01*
X13660Y28934D01*
X11623Y28445D01*
X9687Y27643D01*
X7901Y26548D01*
X6308Y25188D01*
X4948Y23595D01*
X3853Y21809D01*
X3051Y19873D01*
X2562Y17836D01*
X2398Y15748D01*
X2562Y13660D01*
X3051Y11623D01*
X3853Y9687D01*
X4948Y7901D01*
X6308Y6308D01*
X7901Y4948D01*
X9687Y3853D01*
X11623Y3051D01*
X13660Y2562D01*
X15748Y2398D01*
Y0D01*
X0D01*
Y224409D01*
G37*
G54D38*X175079Y169291D02*X168386Y175984D01*
G54D12*X176574Y169610D02*X176255Y169291D01*
X176574Y169610D02*Y169291D01*
G54D38*X168386Y175984D02*Y185433D01*
X173346Y190393D01*
G54D14*X177754Y169610D02*X179132Y169806D01*
X178936Y169609D02*X177754Y169610D01*
G54D12*X194053Y174136D02*X194998D01*
X195077Y175750D02*X194250Y174923D01*
X194998Y174568D02*X193622Y175944D01*
X194998Y174136D02*Y174923D01*
X194250D01*
G54D17*X193622Y175944D02*Y181968D01*
G54D15*X193468Y181536D02*X193504Y181248D01*
G54D12*X193898Y163268D02*X194053Y164097D01*
X194998Y164726D02*Y164097D01*
X194053D01*
G54D38*X173346Y190393D02*X193345D01*
G54D17*X178936Y181420D02*Y181810D01*
Y180942D02*Y181810D01*
X178071Y181420D01*
G54D12*X187634Y181536D02*X187598D01*
X183660Y161775D02*X186179Y164294D01*
G54D17*X186378Y180942D02*X186376Y174568D01*
G54D39*X187205Y180942D02*X186378D01*
G54D12*X187598Y181536D02*X187205Y180942D01*
X187634Y181248D02*X187328Y180942D01*
G54D17*X187205D01*
X186378D02*X178936D01*
G54D15*X193468Y181248D02*X193792D01*
G54D17*X187124Y174568D02*X186376D01*
G54D12*X187124Y164726D02*Y164294D01*
X186179D01*
G54D14*X178936Y169806D02*Y168428D01*
G54D40*X203740Y161850D02*Y165787D01*
G54D41*X218386Y165392D02*X217362Y166416D01*
G54D38*X217283Y166455D02*X193345Y190393D01*
G54D40*X194998Y174568D02*X203701Y165865D01*
G54D12*X233070Y62916D02*X233464D01*
X221102Y63582D02*X221340D01*
Y63345D02*Y63582D01*
X223504Y63149D02*Y62795D01*
X223307Y63110D02*X223583D01*
X211811Y66929D02*X209055Y69685D01*
X218502Y128467D02*X217124Y129845D01*
G54D42*X218386Y141535D02*Y165392D01*
G54D12*X218502Y128467D02*Y67837D01*
X228345Y108192D02*X233463Y103074D01*
Y102876D01*
X233464D02*X233463D01*
X218543Y67874D02*X223307Y63110D01*
X233464Y62876D02*Y62916D01*
X224801Y119806D02*X228345Y116262D01*
Y108192D01*
X224766Y119806D02*X224801D01*
X193898Y163268D02*X188622Y157992D01*
G54D40*X194567Y152677D02*X202795Y160905D01*
X194567Y138464D02*Y152677D01*
X202874Y160984D02*X203740Y161850D01*
G54D42*X206378Y129527D02*X218386Y141535D01*
G54D12*X189837Y130042D02*X189565Y130157D01*
X194016Y126968D02*Y131850D01*
X192598Y124881D02*X193976Y126259D01*
Y127795D01*
G54D40*X199213Y133818D02*X194567Y138464D01*
G54D12*X187637Y124877D02*Y124924D01*
X188187Y124877D01*
X189837Y127286D02*X188581Y127377D01*
X178148Y142444D02*Y146497D01*
X170473Y145937D02*X163063D01*
X170394D02*X170165D01*
X175118Y149763D02*X176102Y148543D01*
X170473Y145629D02*X170165Y145937D01*
X178148Y146497D02*X176102Y148543D01*
X171378Y132401D02*X171417Y132440D01*
X175945Y131574D01*
X174921Y157637D02*X174764Y157480D01*
X169014Y117128D02*Y117077D01*
X178148Y142443D02*Y104648D01*
X176023Y105669D02*X175983Y131574D01*
X184830Y112077D02*X183739Y110986D01*
X187637Y112077D02*X184830D01*
X191810Y114577D02*X185078Y114609D01*
X182085D02*X179959Y112444D01*
Y112482D02*Y106537D01*
X191900Y114577D02*X193819Y116496D01*
X183779Y110946D02*X183739Y110986D01*
X189837Y114577D02*X191900D01*
X172636Y99136D02*X178148Y104648D01*
X171849Y101695D02*X176023Y105669D01*
X165668Y106877D02*Y106774D01*
X164447Y111931D02*X164644Y112128D01*
X189762Y104377D02*X188266Y104451D01*
X188187Y104377D01*
X189565Y130157D02*X188622Y129977D01*
X189171Y130042D02*X189565Y130157D01*
X185038Y127286D02*X188581Y127377D01*
X185038Y127286D02*X183660Y128664D01*
X189837Y129977D02*Y130157D01*
X188622Y157992D02*Y129977D01*
X183660Y161775D02*Y128664D01*
G54D43*X180707Y168428D02*Y121537D01*
G54D12*X188975Y122365D02*X189172Y122168D01*
X184841Y122246D02*X189172Y122277D01*
X189837D02*Y122168D01*
Y122277D02*Y122246D01*
X180277Y51441D02*X180154Y51654D01*
X180277Y52532D01*
X180154D02*X180197Y52489D01*
G54D17*Y46457D01*
G54D38*X166139Y41896D02*Y66773D01*
X176624Y77258D01*
G54D12*X191614Y54004D02*Y59804D01*
X187891Y63499D02*X186007D01*
X186614Y58661D02*X188976Y56299D01*
X191593Y59797D02*X187891Y63499D01*
G54D17*X195511Y62441D02*Y46103D01*
G54D12*X195591Y62521D02*X195590Y62522D01*
X185948Y46980D02*X185984Y47016D01*
X190945Y47244D02*X190157D01*
G54D38*X186614Y50787D01*
G54D12*X192126Y48031D02*Y51181D01*
X188976D01*
G54D15*X191732Y49606D02*X190551Y50787D01*
G54D17*X185984Y47016D02*Y58150D01*
G54D12*X192126Y48031D02*X186220Y53937D01*
X188976Y56299D02*Y50000D01*
G54D38*X187795Y55511D02*Y53543D01*
G54D12*X180277Y52532D02*X180154D01*
X180079Y63678D02*X180118Y63717D01*
G54D17*X180079Y63678D02*Y57520D01*
G54D12*X180114Y62745D02*X180092Y62767D01*
X189837Y117177D02*X189864Y117204D01*
X189837Y117177D02*Y117204D01*
Y117128D02*Y117204D01*
Y117128D02*X188739Y117177D01*
X184014Y123073D02*X184841Y122246D01*
X180746Y121537D02*X185155Y117128D01*
X188739Y117177D01*
X193819Y116496D02*Y121380D01*
X196063Y121377D02*X200394D01*
X192520Y121380D02*X196061D01*
X182085Y114609D02*X185550D01*
X191654Y122283D02*X189837D01*
X192520Y121380D02*X191654Y122283D01*
X189837Y122365D02*X189172Y122277D01*
X189837Y122246D02*X189172Y122277D01*
X189837Y122168D02*Y122283D01*
X189172Y122277D02*X188975Y122365D01*
X189837Y124877D02*X192555D01*
X189837Y122365D02*Y122168D01*
Y101777D02*Y101695D01*
X189762Y101777D01*
X189837Y127377D02*Y127286D01*
G54D40*X199213Y81536D02*Y133818D01*
G54D42*X206378Y91180D02*Y129527D01*
G54D12*X185948Y62745D02*X185946Y62747D01*
Y68974D01*
G54D17*X180092Y62767D02*Y77958D01*
G54D12*X194765Y68936D02*X191449D01*
X195670Y68031D02*X195685Y68046D01*
Y74713D01*
X195670Y68031D02*X194765Y68936D01*
X195670Y62521D02*X195679Y62530D01*
X195709Y68070D02*X193525Y65886D01*
X191416D01*
X205866Y68858D02*X206929Y67795D01*
G54D42*X206339Y59624D02*Y91653D01*
G54D12*X195679Y62530D02*X200782D01*
X195670Y68031D02*X196468Y68829D01*
X194646Y69055D02*X197897Y65804D01*
X200077D01*
G54D39*X211811Y46850D02*Y38188D01*
G54D15*X205827Y45395D02*X210120Y41102D01*
G54D41*X210079Y38536D02*Y45276D01*
G54D15*X205827Y45395D02*X209275Y41947D01*
G54D17*X199414Y45804D02*X208745D01*
X199414Y47404D02*X211098D01*
G54D44*X201212Y46500D02*X210017Y37695D01*
G54D12*X198819Y50393D02*X212205D01*
G54D17*X180114Y46980D02*Y41816D01*
G54D12*X185948Y46980D02*X185748Y47180D01*
G54D39*X195472Y39370D02*X195551D01*
X195472Y45767D02*Y39370D01*
G54D12*X193308Y39369D02*X188592D01*
X195435Y45804D02*X195472Y45767D01*
X191614Y47404D02*X190746Y46536D01*
G54D17*X186063D01*
G54D12*X193308Y39369D02*X192739Y38800D01*
X195591Y62521D02*X195511Y62441D01*
X196468Y68829D02*X199953D01*
X195590Y62522D02*X195669Y68780D01*
G54D15*X199647Y54237D02*X206871D01*
G54D44*X207480Y62331D02*X200314Y55165D01*
G54D39*X205827Y55631D02*X199488D01*
G54D12*X199414Y45804D02*X199469Y45749D01*
G54D45*X200787Y52362D02*X210236D01*
G54D42*X206406Y59624D02*X206339D01*
G54D44*X207480Y62521D02*Y55552D01*
G54D12*X205669Y61859D02*Y64115D01*
X207480Y68031D02*X206406Y59624D01*
G54D44*X207480Y62521D02*Y62331D01*
G54D41*X210236Y57086D02*Y66535D01*
G54D12*X198819Y53149D02*Y50393D01*
X212205D02*Y55511D01*
X211811Y57086D02*Y66929D01*
Y38188D02*X210630Y37007D01*
X206254Y30261D02*X206220D01*
X206254Y29661D02*X206220Y29627D01*
X206254Y29661D02*X206456Y29459D01*
X210154Y38461D02*X210079Y38536D01*
X195551Y39370D02*X195748Y39173D01*
X198818Y39369D02*X203152D01*
X192739Y38800D02*Y35069D01*
X199469Y35168D02*Y38848D01*
X196164Y34920D02*Y39163D01*
G54D17*X200511Y28741D02*X206417D01*
X203094Y26501D02*X199012D01*
G54D41*X206254Y29661D02*X203094Y26501D01*
G54D15*X75472Y106260D02*Y112481D01*
G54D12*X87559Y96299D02*X87756Y96654D01*
X87441Y96299D01*
X87598D02*Y96654D01*
Y96614D02*X87559Y96299D01*
X87835Y96654D02*X87598D01*
X87402Y96299D02*X87598D01*
X75945Y112638D02*X75709Y112717D01*
X84395D02*X84291Y112613D01*
X75945Y112638D02*X75472Y112481D01*
X84133Y112717D02*X76363D01*
Y112638D02*Y112717D01*
X75945Y112638D01*
X85511Y109251D02*X84173Y107913D01*
X84395Y112717D02*X76363D01*
X92834Y104685D02*X92677D01*
X91614Y105905D02*X92834Y104685D01*
X93937Y109251D02*X85511D01*
X98740Y105747D02*X105197Y99290D01*
X103504Y106180D02*Y108779D01*
X103386D02*X102992Y109055D01*
Y108779D02*X103504D01*
X105236Y97440D02*X105197D01*
Y99290D02*Y97440D01*
X98543Y105747D02*X98740D01*
X110275Y108030D02*X110629Y107676D01*
X110984Y107794D01*
X105728Y118996D02*Y119016D01*
X113504Y116890D02*X113879Y116949D01*
X113465D02*X113504Y116890D01*
X113465Y116949D02*Y116574D01*
X90473Y112716D02*X90551D01*
X89134Y118149D02*X91457D01*
X91378Y118188D02*X91142D01*
X91457Y118149D02*X92363Y119055D01*
X93937D01*
X93071Y104291D02*Y95708D01*
X92677Y104685D02*X93071Y104291D01*
G54D15*X68416Y120433D02*X75472D01*
G54D12*X68416Y119281D02*X68232D01*
G54D15*X62398Y119057D02*Y112992D01*
X58969Y112913D02*X55394Y109338D01*
G54D12*Y107559D01*
G54D15*X62398Y112992D02*X62319Y112913D01*
G54D12*X55591Y107559D02*X55394D01*
X75960Y120630D02*X75763Y120433D01*
X75472Y120669D01*
Y120276D01*
X75763Y120438D02*X75472Y120433D01*
X75763D02*X75472Y120276D01*
G54D15*X87835Y96654D02*X73819Y82638D01*
G54D12*X90078Y88386D02*X90079D01*
X87598Y96575D02*X86299Y95276D01*
X87598D02*X86299D01*
X87598D02*Y96614D01*
X94528Y92952D02*X93268Y94212D01*
X93071Y95708D02*X93268D01*
Y94212D02*Y95708D01*
X76368Y120433D02*X86850D01*
X76363Y120438D02*X76368Y120433D01*
X86850D02*X89134Y118149D01*
X84920Y116181D02*X87008D01*
X84563Y116538D02*X84920Y116181D01*
X84291Y112613D02*Y107952D01*
G54D15*X74596Y100426D02*X67841D01*
G54D17*X65591Y92559D02*Y92481D01*
G54D15*X75564Y100426D02*Y100394D01*
X75079Y100426D01*
G54D12*X67841D02*X65748Y102519D01*
G54D15*X65631D02*X68153Y105239D01*
G54D12*X65591Y102519D02*X65748D01*
X65591Y102717D02*X65631Y102519D01*
X65591Y102717D02*Y102519D01*
G54D15*X68153Y112036D02*Y105239D01*
G54D12*X99842Y162992D02*X99921Y162913D01*
X83898Y164921D02*Y152873D01*
X94646Y142125D01*
X99842Y162992D02*Y152086D01*
X105728Y126653D02*X104528Y126672D01*
X108307Y124172D02*X102637Y124114D01*
X107913Y121614D02*X109646Y119881D01*
X105728Y119016D02*X103150Y118996D01*
X110236Y108780D02*X111024Y107992D01*
X109606Y114133D02*Y109173D01*
X110984Y107795D01*
X101122Y116437D02*X96299Y111614D01*
X87008Y116181D02*X90473Y112716D01*
X93484Y118996D02*X103150D01*
X96339Y111653D02*X93937Y109251D01*
X91626Y124484D02*Y124173D01*
X90827Y124484D01*
X90551Y124173D01*
X76561Y130512D02*X76181Y130744D01*
X75961D02*X79067Y127638D01*
X76561Y130473D02*X76260Y130744D01*
X76561D02*Y130670D01*
X76260Y130744D01*
X95180Y129231D02*X93311Y127362D01*
X82009D01*
X82285D02*X82283D01*
X82009Y127638D02*X82285Y127362D01*
X82283D02*X82008Y127638D01*
X82009D02*Y127637D01*
X79067Y127638D02*X82009D01*
Y127362D02*Y127638D01*
Y127637D02*X82008Y127638D01*
X90658Y130318D02*Y130314D01*
X76561Y130945D02*Y130473D01*
Y130945D02*X76260Y130744D01*
G54D15*X76363Y120438D02*Y120433D01*
G54D12*X90551Y124173D02*X90433Y124291D01*
X101122Y124114D02*X101063Y124173D01*
X91626D01*
X90433Y124291D02*X90827Y124484D01*
X84961Y138503D02*X107598D01*
X101122Y134349D02*Y134370D01*
X89804Y134567D02*X90276Y134095D01*
Y130314D01*
X90658Y130318D02*X91626D01*
X101122Y129231D02*X95180D01*
X94645Y142637D02*X94646Y142165D01*
X90001Y134607D02*Y134686D01*
X89804D02*X90001D01*
X94173Y142637D02*X94646D01*
X89804Y134488D02*X100983D01*
X84761Y134644D02*Y134606D01*
X99448Y134488D02*X98740D01*
X84252Y139212D02*Y138583D01*
X89804Y134686D02*Y134488D01*
X84761Y134644D02*Y134607D01*
X84252Y139212D02*X84961Y138503D01*
X84761Y134607D02*X90001D01*
X82836Y134644D02*X80433Y137047D01*
X84252Y138583D02*X82912D01*
X84123Y134644D02*X82836D01*
X80433Y137047D02*Y142401D01*
X84761Y134606D02*X84123Y134644D01*
X76561Y138938D02*X76261Y138544D01*
X76561Y138938D02*Y138465D01*
X69882Y152952D02*X64999Y153031D01*
X65591Y151378D02*X67127D01*
X65591Y152914D02*Y151378D01*
X65079Y152993D02*X65039D01*
X65079D02*X64999Y153031D01*
X65591Y154567D02*X67205D01*
X65079Y153072D02*Y152993D01*
X65039D02*X67127Y151378D01*
X65591Y152914D02*X65079Y153031D01*
X65591Y152914D02*X65079D01*
X65591D02*X65079Y152993D01*
Y153031D02*Y152993D01*
Y153031D02*X65591Y154567D01*
G54D15*X76299Y190472D02*Y190512D01*
G54D12*Y190788D02*Y190472D01*
Y190473D02*Y190472D01*
G54D15*Y190473D02*Y190512D01*
G54D12*X70866Y195368D02*Y195394D01*
G54D15*X75762Y190472D02*X70866Y195368D01*
X66811Y185788D02*X70237Y182362D01*
X76299Y190512D02*X75762Y190472D01*
G54D12*X75961Y182712D02*X76362Y182677D01*
Y182712D02*X75767Y182672D01*
X54214Y179764D02*X55789Y178189D01*
G54D15*X55001Y179764D02*X54214D01*
G54D12*X46339Y188820D02*Y189566D01*
X55591Y177914D02*Y178189D01*
X55789D01*
G54D17*X55001Y185788D02*Y179764D01*
G54D46*X50671Y172793D02*X66025Y172796D01*
G54D18*X65632Y173071D02*X66025Y172678D01*
X66419D02*X65591D01*
Y173071D01*
X65632D01*
X66025Y172678D02*X66419D01*
G54D46*X66025Y172796D02*Y172678D01*
G54D39*X52088Y195394D02*X46260Y188820D01*
X46339Y189566D02*X46260Y188820D01*
X47520D02*Y190512D01*
X46339Y189566D01*
X70866Y195394D02*X52088D01*
G54D46*X46341Y177007D02*X46457Y177010D01*
X50630Y172834D01*
X47520Y177010D02*Y177007D01*
X46457Y177010D01*
G54D12*X76362Y182677D02*Y182712D01*
X75961D02*X75611Y182362D01*
G54D15*X70237D01*
G54D12*X76362Y182712D02*X76912D01*
X75767Y182672D02*X76362Y182677D01*
X76561Y182712D02*X76362Y182677D01*
X72587Y178387D02*X72991Y177992D01*
X76912Y182712D02*X72587Y178387D01*
X84528Y191063D02*X84488Y191023D01*
G54D15*Y186612D01*
X84761D02*Y186457D01*
X84488Y186612D01*
X76561Y190512D02*Y190788D01*
Y190512D02*X76299Y190473D01*
G54D17*X61694Y167677D02*X65631Y163740D01*
G54D39*X65591Y162914D02*X65631D01*
X55591Y167914D02*Y167559D01*
X55789Y167677D01*
G54D17*X55591D02*X61694D01*
G54D15*X71614Y64528D02*X75472Y60670D01*
X66812Y64651D02*X71322D01*
G54D12*X75473Y68465D02*X75236Y68858D01*
X75473Y68465D02*X75080Y68858D01*
G54D39*X75773Y68528D02*X75236Y73544D01*
G54D12*X75473Y68465D02*X75773Y68528D01*
Y68465D02*Y68858D01*
X75473Y68465D01*
X75773Y68528D02*Y68858D01*
X83937Y69725D02*X83780Y69568D01*
G54D15*Y64565D01*
G54D12*X71063Y77520D02*X75236Y73544D01*
G54D15*Y68858D01*
G54D12*X75173Y68465D02*X75773Y68528D01*
X75472Y60665D02*X75773Y60259D01*
G54D15*X75173Y60665D02*X77846Y57992D01*
X80906D01*
G54D12*X75472Y60670D02*Y60470D01*
Y60665D02*Y60470D01*
G54D47*X107683Y52238D02*Y56811D01*
Y52238D02*X111683D01*
G54D38*X108818Y77322D02*X81574Y50078D01*
X28268D01*
X14724Y63622D01*
Y81141D02*X25394Y92204D01*
X51063D01*
G54D15*X55591Y77559D02*Y77914D01*
X55394D01*
G54D12*X62875Y77520D02*X71143D01*
X65591Y72559D02*Y72402D01*
X46338Y70317D02*X55672D01*
X65631Y72402D02*X63387D01*
G54D39*X55002Y64017D01*
G54D12*X63387Y72402D02*Y72559D01*
X65591D01*
G54D15*X62319Y112913D02*X58969D01*
G54D38*X14724Y63622D02*Y147046D01*
G54D15*X44370Y131852D02*X49489Y126733D01*
X44370Y134096D02*Y131852D01*
X43189Y145906D02*Y144330D01*
X52007D02*X43189D01*
X55591Y147914D02*X52007Y144330D01*
X62603Y143150D02*X54215Y134762D01*
X62603Y143150D02*Y142914D01*
G54D17*X55591Y97670D02*X55636Y97205D01*
X55591Y97559D02*Y97205D01*
Y96460D02*X54426D01*
G54D15*X71578Y138465D02*X76024Y138938D01*
G54D12*X71693Y138465D02*X72047D01*
X76261Y138544D02*X76024Y138938D01*
G54D15*X62603Y142914D02*X65591D01*
G54D39*X65631Y163740D02*Y162914D01*
X65079Y154487D02*Y152914D01*
G54D12*Y152993D02*X67205Y154567D01*
G54D15*X65237Y142914D02*X62603Y143150D01*
X65591Y142914D02*Y143150D01*
X65237Y142914D01*
G54D12*X80433Y142401D02*X69882Y152952D01*
G54D38*X14724Y147046D02*X25551Y157873D01*
X55591D01*
G54D15*X72362Y126693D02*X72742D01*
G54D12*X68232Y120249D02*X68416Y120433D01*
G54D15*X72742Y126693D02*X76561Y130512D01*
G54D38*X55591Y157873D02*Y158031D01*
G54D39*X61535D01*
X65079Y154487D02*X61535Y158031D01*
G54D15*X49489Y126733D02*X72250D01*
X66025Y132912D02*X71578Y138465D01*
G54D12*X76261Y138544D02*X75867Y138938D01*
X76561Y138544D02*Y138938D01*
Y138465D02*X76261Y138544D01*
G54D15*X73819Y82638D02*X65669Y82559D01*
X75236Y73544D02*X90078Y88386D01*
G54D12*X65591Y82559D02*Y82638D01*
X65669Y82559D01*
X55672Y70317D02*X62875Y77520D01*
G54D15*X55788Y87756D02*X60906Y82638D01*
X65591D01*
X51181Y82127D02*X46338D01*
X55394Y77914D02*X51181Y82127D01*
G54D41*X51063Y92204D02*X55433Y87834D01*
X55591D02*X55433D01*
X55591Y87559D02*Y87834D01*
Y87756D02*X55788D01*
G54D12*X54426Y96460D02*X55636Y97205D01*
G54D17*X55788D02*X60512Y92481D01*
X65591D01*
X55591Y97205D02*X55788D01*
X55591Y97670D02*Y96460D01*
G54D12*X99842Y152086D02*X120039Y131889D01*
X110787Y132440D02*X111181Y132834D01*
Y134881D01*
X174764Y157480D02*X107795D01*
X170473Y145937D02*Y145551D01*
X170394Y145937D01*
X156693Y136574D02*X156654D01*
X156693Y136259D02*Y136417D01*
X128956Y134488D02*X126575Y134349D01*
X120904Y129292D02*X126850Y129231D01*
X120157Y127244D02*X120904Y129292D01*
X116986Y131790D02*X114488Y129292D01*
X110175Y131790D02*X111220Y132835D01*
X128956Y134349D02*Y134488D01*
X124350Y131790D02*X116986D01*
X113622Y124803D02*X111772Y126653D01*
X128956Y126672D02*Y126692D01*
X126732Y126672D01*
X126654Y126652D02*X126732Y126672D01*
X130433Y126653D02*X126654Y126652D01*
X139016Y136181D02*X137323Y134488D01*
X128956D01*
X141063Y130747D02*X134488D01*
X132205Y128464D01*
X130433Y126653D02*X132205Y128464D01*
X128956Y129252D02*X126850Y129231D01*
X128956D02*Y129252D01*
X160737Y127277D02*Y127286D01*
X159447Y127277D01*
X158537Y124777D02*Y124924D01*
X158659Y124777D01*
X114488Y129292D02*X105728D01*
Y131790D02*X110175D01*
X101122Y134349D02*X100983Y134488D01*
X107598Y138503D02*X111377Y134724D01*
X101122Y134349D02*X101101Y134370D01*
X111417Y134724D02*X111260Y134567D01*
X111377Y134724D02*X111417D01*
X111260Y134567D02*Y134566D01*
X111772Y126653D02*X105728D01*
X101122Y124134D02*X102637Y124114D01*
X105728Y126672D02*Y126653D01*
Y126672D02*X108313Y126653D01*
X101122Y124114D02*Y124134D01*
X105728Y129231D02*Y129292D01*
X104291Y129231D01*
X94646Y142637D02*Y142125D01*
G54D45*X146573Y56980D02*Y45197D01*
X164144Y27626D01*
G54D12*X166139Y41896D02*Y42167D01*
X166138D01*
X166139Y44334D02*Y41968D01*
G54D15*X168305Y44334D02*X168107D01*
G54D12*X166138Y42167D01*
X199414Y54004D02*X199647Y54237D01*
X166139Y44334D02*X168305D01*
X189837Y104377D02*Y104451D01*
X189762Y104377D02*Y101777D01*
G54D45*X164144Y27626D02*X197164D01*
G54D12*X194292Y27638D02*X195000D01*
X166139Y41968D02*X166811D01*
X198818Y27559D02*X200511Y29252D01*
G54D17*X180114Y41816D02*X194292Y27638D01*
G54D48*X125187Y30472D02*X111683D01*
Y30438D02*Y30472D01*
G54D47*X126417Y56811D02*X107683D01*
G54D14*X126573Y56981D02*X126587D01*
X126417Y56811D01*
G54D48*X136611Y41896D02*X125187Y30472D01*
G54D14*X126417Y56811D02*Y56980D01*
X126573D01*
Y56981D01*
G54D12*X146693Y124777D02*Y124724D01*
X155945Y144566D02*X161692D01*
X156693Y136417D02*X159016Y134094D01*
Y129877D01*
X156693Y136259D02*X156654Y136574D01*
X152164Y132128D02*Y130081D01*
X156693Y136220D02*Y136574D01*
X163063Y145937D02*X161692Y144566D01*
X154959Y127286D02*X152164Y130081D01*
X152874Y106258D02*Y106377D01*
X140709Y106258D02*X152874D01*
X159839Y106877D02*X165668D01*
X165471Y106774D02*X165668D01*
X153731Y111977D02*X151927Y113781D01*
X151416Y113582D01*
X152202D02*X151927Y113781D01*
X152202D02*Y112127D01*
Y113781D02*Y113582D01*
X151416Y113781D02*Y113582D01*
X167321Y120987D02*X172439D01*
X167321D02*X166011Y119677D01*
X158856Y124924D02*X158659Y124777D01*
X146693D01*
X159447Y127277D02*X154959Y127286D01*
X145158Y124213D02*X146693Y124724D01*
X169014Y117077D02*X159642D01*
X165394Y124370D02*X163228Y122204D01*
X160737D01*
Y122177D02*Y122204D01*
X159291Y122177D01*
X160737Y119677D02*Y119805D01*
X160036Y119677D01*
X160737Y117077D02*Y117049D01*
X159642Y117077D01*
X113504Y116437D02*X126614D01*
X120197Y121535D02*X120236Y121496D01*
X108346Y124212D02*X113425Y119133D01*
X105728Y121555D02*X107874Y121535D01*
X109646Y119881D02*Y114055D01*
X113465Y116574D02*X113544Y116890D01*
X113425Y119133D02*Y116653D01*
X113465Y116574D02*X113504Y116890D01*
Y116437D01*
X113544Y116890D02*X113465D01*
Y116574D02*Y116890D01*
X132874Y124095D02*X132913Y124094D01*
Y124095D02*X132993D01*
X128956D02*X127953Y124114D01*
X132993Y124095D02*X128956D01*
X132953D02*X132874D01*
X132913Y124173D02*Y124094D01*
Y124173D02*Y124095D01*
Y124094D02*Y124133D01*
X128956Y124114D02*Y124095D01*
X124350Y118996D02*X133247D01*
X120236Y121496D02*X127795Y121555D01*
X128956D02*Y121536D01*
X127795Y121555D01*
X166011Y119677D02*X160036D01*
X133247Y118996D02*X142047Y110196D01*
X160587Y111977D02*X160737Y111931D01*
X152202Y112127D02*X151927Y113781D01*
X132598Y116417D02*X133346Y115984D01*
Y113621D01*
X132638Y116417D02*X127008Y116535D01*
X128956Y116417D02*X127008Y116535D01*
X128956Y116437D02*Y116535D01*
Y116417D01*
X127008Y116535D02*X126614Y116437D01*
X165746Y93428D02*Y82404D01*
Y93428D02*X162598Y96576D01*
G54D38*X195236Y77322D02*X108818D01*
G54D12*X188187Y104377D02*X182124Y104372D01*
X189837Y104451D02*X189762Y104377D01*
X182124Y104372D02*X180352Y106144D01*
X179959Y106537D02*X180628Y105868D01*
X187637Y109477D02*X194329D01*
X183739Y110986D02*Y110946D01*
X183779D01*
X113307Y96377D02*X103504Y106180D01*
X102992Y108661D02*X103386Y108779D01*
X105197Y97599D02*X105236Y97440D01*
X102992Y109921D02*Y108661D01*
Y109055D02*Y108779D01*
X94528Y92952D02*X139962D01*
X159841Y101677D02*X160737Y101695D01*
X158537Y104277D02*X153793D01*
X160737Y101695D02*X160431Y101677D01*
X151691Y106379D02*Y106695D01*
X153793Y104277D02*X151691Y106379D01*
X152202Y106734D02*Y106377D01*
X133346Y113621D02*X140709Y106258D01*
X159683Y111931D02*X160587Y111977D01*
X153731D01*
X160737Y111931D02*X164447D01*
X160737Y111977D02*Y111931D01*
Y106877D02*Y106813D01*
X159839Y106877D01*
X142678Y95865D02*Y95668D01*
X142480Y95865D02*X142717Y96102D01*
Y95668D02*Y96102D01*
Y95865D02*X142480D01*
X142717Y95668D02*X142678Y95865D01*
Y95668D02*X139962Y92952D01*
X142717Y96141D02*Y95865D01*
X152202Y106695D02*Y106377D01*
Y106734D02*X151691Y106695D01*
X160825Y99136D02*X172636D01*
X160737Y101695D02*X171849D01*
X158537Y96577D02*Y96576D01*
X159052Y96577D01*
X160234Y99177D02*X160737Y99136D01*
X159052Y96577D02*X162598Y96576D01*
X160737Y101677D02*Y101695D01*
Y99177D02*Y99136D01*
X160825D02*X161219D01*
G54D19*X205667Y193269D03*
G54D20*X187124Y164726D03*
Y174568D03*
X194998Y164726D03*
Y174568D03*
G54D19*X205667Y146025D03*
G54D11*G36*
X230315Y56025D02*Y49726D01*
X236614D01*
Y56025D01*
X230315D01*
G37*
G54D21*X136611Y41896D03*
X166139D03*
G54D11*G36*
X123573Y59980D02*Y53980D01*
X129573D01*
Y59980D01*
X123573D01*
G37*
G54D22*X136573Y56980D03*
X146573D03*
G54D23*X223464Y52876D03*
Y62876D03*
Y72876D03*
X233464Y62876D03*
Y72876D03*
Y82876D03*
Y92876D03*
Y102876D03*
Y112876D03*
X223464Y82876D03*
Y92876D03*
Y102876D03*
Y112876D03*
G54D22*X65591Y142914D03*
Y152914D03*
Y72559D03*
Y92559D03*
Y102559D03*
Y82559D03*
X55591Y147914D03*
X65591Y162914D03*
Y172914D03*
X55591Y167914D03*
G54D11*G36*
X52591Y180914D02*Y174914D01*
X58591D01*
Y180914D01*
X52591D01*
G37*
G54D22*X55591Y157914D03*
Y77559D03*
Y97559D03*
Y87559D03*
G54D11*G36*
X52591Y110559D02*Y104559D01*
X58591D01*
Y110559D01*
X52591D01*
G37*
G54D24*X70866Y195394D03*
X83898Y164921D03*
X84528Y191063D03*
X72991Y177992D03*
X107795Y157480D03*
X99842Y162992D03*
X174921Y157637D03*
X175118Y149763D03*
X170473Y145629D03*
X155945Y144566D03*
X156693Y136220D03*
X152164Y132128D03*
X145158Y124213D03*
X139016Y136181D03*
X141063Y130747D03*
X132913Y124173D03*
X142047Y110196D03*
X142717Y96141D03*
X120197Y121535D03*
X120157Y127244D03*
X111417Y134724D03*
X113622Y124803D03*
X194329Y109477D03*
X184014Y123073D03*
X217124Y129845D03*
X164644Y112128D03*
X165668Y106774D03*
X165746Y82404D03*
X165394Y124370D03*
X183739Y110986D03*
X169014Y117128D03*
X172439Y120987D03*
X171378Y132401D03*
X194016Y131850D03*
X185946Y68974D03*
X87598Y96575D03*
X75236Y73544D03*
X83937Y69725D03*
X80906Y57992D03*
X90079Y88386D03*
X93071Y95709D03*
X98543Y105747D03*
X91614Y105905D03*
X84291Y107952D03*
X90551Y112716D03*
X91378Y118188D03*
X102992Y109921D03*
X97598Y124173D03*
X71693Y138465D03*
X82009Y127638D03*
X89804Y134567D03*
X84252Y139212D03*
X94646Y142165D03*
X113465Y116574D03*
X105197Y97599D03*
X110984Y107794D03*
X113307Y96377D03*
G54D26*X187634Y182216D02*Y181248D01*
X193468Y182216D02*Y181248D01*
G54D49*X176574Y181420D02*X178936D01*
X176574Y169610D02*X178936D01*
G54D50*X101122Y116437D02*X105728D01*
X101122Y118996D02*X105728D01*
X101122Y121555D02*X105728D01*
X101122Y124114D02*X105728D01*
G54D29*X75173Y60665D02*X75773D01*
X75173Y68465D02*X75773D01*
X83373Y64565D02*X83973D01*
G54D49*X66812Y65198D02*Y62836D01*
G54D26*X74596Y106260D02*X75564D01*
X74596Y100426D02*X75564D01*
G54D49*X43976Y82127D02*X46338D01*
X43976Y70317D02*X46338D01*
X55002Y65198D02*Y62836D01*
G54D51*X107683Y30438D02*X111683D01*
X107683Y52238D02*X111683D01*
G54D50*X124350Y124114D02*X128956D01*
X124350Y121555D02*X128956D01*
X124350Y118996D02*X128956D01*
X124350Y116437D02*X128956D01*
X124350Y134349D02*X128956D01*
X124350Y131790D02*X128956D01*
X124350Y129231D02*X128956D01*
X124350Y126672D02*X128956D01*
G54D49*X151416Y113781D02*X152202D01*
X151416Y106695D02*X152202D01*
G54D52*X158537Y96577D02*X160737D01*
G54D53*X158537Y99177D02*X160737D01*
X158537Y101677D02*X160737D01*
X158537Y104277D02*X160737D01*
X158537Y106877D02*X160737D01*
X158537Y109377D02*X160737D01*
X158537Y111977D02*X160737D01*
X158537Y114477D02*X160737D01*
X158537Y117077D02*X160737D01*
X158537Y119677D02*X160737D01*
X158537Y122177D02*X160737D01*
X158537Y124777D02*X160737D01*
X158537Y127277D02*X160737D01*
X158537Y129877D02*X160737D01*
G54D26*X218932Y120487D02*Y119519D01*
X224766Y120487D02*Y119519D01*
G54D53*X187637Y129977D02*X189837D01*
X187637Y127377D02*X189837D01*
X187637Y124877D02*X189837D01*
X187637Y122277D02*X189837D01*
X187637Y119677D02*X189837D01*
X187637Y117177D02*X189837D01*
X187637Y114577D02*X189837D01*
X187637Y112077D02*X189837D01*
X187637Y109477D02*X189837D01*
X187637Y106877D02*X189837D01*
X187637Y104377D02*X189837D01*
X187637Y101777D02*X189837D01*
X187637Y99277D02*X189837D01*
X187637Y96677D02*X189837D01*
G54D49*X195670Y68031D02*Y62521D01*
G54D54*X191614Y55604D02*Y54004D01*
X199414Y55604D02*Y54004D01*
G54D49*X207480Y68031D02*Y62521D01*
G54D55*X205827Y55631D02*X210551D01*
G54D29*X214054Y30261D02*Y29661D01*
X206254Y30261D02*Y29661D01*
X210154Y38461D02*Y37861D01*
G54D55*X205827Y45395D02*X210551D01*
G54D49*X193308Y39369D02*X198818D01*
X193308Y27559D02*X198818D01*
G54D54*X199414Y47404D02*Y45804D01*
X195514Y47404D02*Y45804D01*
X191614Y47404D02*Y45804D01*
G54D26*X185948Y63713D02*Y62745D01*
X180114Y63713D02*Y62745D01*
Y46980D02*Y46012D01*
X185948Y46980D02*Y46012D01*
Y58005D02*Y57037D01*
X180114Y58005D02*Y57037D01*
X180154Y52532D02*Y51564D01*
X185988Y52532D02*Y51564D01*
X90658Y124484D02*X91626D01*
G54D29*X75961Y130744D02*X76561D01*
X84161Y134644D02*X84761D01*
G54D26*X90658Y130318D02*X91626D01*
G54D29*X75961Y138544D02*X76561D01*
G54D50*X101122Y126672D02*X105728D01*
X101122Y129231D02*X105728D01*
X101122Y131790D02*X105728D01*
X101122Y134349D02*X105728D01*
G54D29*X75961Y182712D02*X76561D01*
X75961Y190512D02*X76561D01*
X84161Y186612D02*X84761D01*
G54D49*X45158Y177010D02*X47520D01*
X45158Y188820D02*X47520D01*
X55001Y188150D02*Y185788D01*
X66811Y188150D02*Y185788D01*
G54D26*X62398Y120249D02*Y119281D01*
X68232Y120249D02*Y119281D01*
G54D29*X75763Y120438D02*X76363D01*
G54D26*X62319Y113004D02*Y112036D01*
X68153Y113004D02*Y112036D01*
G54D29*X75763Y112638D02*X76363D01*
X83963Y116538D02*X84563D01*
G54D49*X54215Y135274D02*Y132912D01*
X66025Y135274D02*Y132912D01*
X43189Y145906D02*X45551D01*
X43189Y134096D02*X45551D01*
G54D31*G54D32*G54D33*G54D32*G54D24*G54D22*G54D34*G54D24*G54D31*G54D24*G54D31*G54D35*G54D36*G54D35*G54D36*G54D35*G54D37*M02*
