G04 start of page 2 for group 0 idx 0 *
G04 Title: (unknown), component *
G04 Creator: pcb 1.99z *
G04 CreationDate: Mon 26 Jul 2010 02:03:35 GMT UTC *
G04 For: rob *
G04 Format: Gerber/RS-274X *
G04 PCB-Dimensions: 248031 224409 *
G04 PCB-Coordinate-Origin: lower left *
%MOIN*%
%FSLAX25Y25*%
%LNFRONT*%
%ADD11C,0.0200*%
%ADD12C,0.0098*%
%ADD13C,0.0247*%
%ADD14C,0.0197*%
%ADD15C,0.0148*%
%ADD16C,0.0110*%
%ADD17C,0.0248*%
%ADD18C,0.0079*%
%ADD19C,0.1378*%
%ADD20C,0.0610*%
%ADD21C,0.1260*%
%ADD22C,0.0600*%
%ADD23C,0.0630*%
%ADD24C,0.0394*%
%ADD25R,0.0110X0.0110*%
%ADD26R,0.0283X0.0283*%
%ADD27R,0.0600X0.0600*%
%ADD28R,0.0118X0.0118*%
%ADD29R,0.0340X0.0340*%
%ADD30R,0.0807X0.0807*%
%ADD31C,0.1250*%
%ADD32C,0.0905*%
%ADD33C,0.0374*%
%ADD34C,0.0380*%
%ADD35C,0.0350*%
%ADD36C,0.1280*%
%ADD37C,0.0197*%
G54D11*G36*
X176260Y155005D02*X176262Y155006D01*
X176452Y155122D01*
X188522Y143052D01*
X188384Y143019D01*
X188185Y143067D01*
X187950Y143085D01*
X186613Y143067D01*
X186415Y143019D01*
X186217Y143067D01*
X185982Y143085D01*
X184645Y143067D01*
X184447Y143019D01*
X184248Y143067D01*
X184013Y143085D01*
X182676Y143067D01*
X182478Y143019D01*
X182280Y143067D01*
X182045Y143085D01*
X180708Y143067D01*
X180510Y143019D01*
X180311Y143067D01*
X180076Y143085D01*
X178739Y143067D01*
X178541Y143019D01*
X178343Y143067D01*
X178108Y143085D01*
X176771Y143067D01*
X176573Y143019D01*
X176374Y143067D01*
X176260Y143076D01*
Y147050D01*
X176459Y147132D01*
X176854Y147374D01*
X177206Y147675D01*
X177507Y148027D01*
X177749Y148422D01*
X177926Y148850D01*
X178035Y149301D01*
X178071Y149763D01*
X178035Y150225D01*
X177926Y150676D01*
X177749Y151104D01*
X177507Y151499D01*
X177206Y151851D01*
X176854Y152152D01*
X176459Y152394D01*
X176260Y152476D01*
Y155005D01*
G37*
G36*
X233464Y224409D02*X248031D01*
Y0D01*
X233464D01*
Y2491D01*
X234371Y2562D01*
X236408Y3051D01*
X238344Y3853D01*
X240130Y4948D01*
X241723Y6308D01*
X243083Y7901D01*
X244178Y9687D01*
X244980Y11623D01*
X245469Y13660D01*
X245633Y15748D01*
X245469Y17836D01*
X244980Y19873D01*
X244178Y21809D01*
X243083Y23595D01*
X241723Y25188D01*
X240130Y26548D01*
X238344Y27643D01*
X236408Y28445D01*
X234371Y28934D01*
X233464Y29005D01*
Y48748D01*
X236768Y48754D01*
X236918Y48790D01*
X237061Y48849D01*
X237192Y48930D01*
X237310Y49030D01*
X237410Y49148D01*
X237491Y49279D01*
X237550Y49422D01*
X237586Y49572D01*
X237598Y49726D01*
X237586Y56180D01*
X237550Y56330D01*
X237491Y56473D01*
X237410Y56604D01*
X237310Y56722D01*
X237192Y56822D01*
X237061Y56903D01*
X236918Y56962D01*
X236768Y56998D01*
X236614Y57010D01*
X233464Y57004D01*
Y58742D01*
X234111Y58793D01*
X234741Y58944D01*
X235341Y59193D01*
X235894Y59532D01*
X236387Y59953D01*
X236808Y60446D01*
X237147Y60999D01*
X237396Y61599D01*
X237547Y62229D01*
X237598Y62876D01*
X237547Y63523D01*
X237396Y64153D01*
X237147Y64753D01*
X236808Y65306D01*
X236387Y65799D01*
X235894Y66220D01*
X235341Y66559D01*
X234741Y66808D01*
X234111Y66959D01*
X233464Y67010D01*
Y68742D01*
X234111Y68793D01*
X234741Y68944D01*
X235341Y69193D01*
X235894Y69532D01*
X236387Y69953D01*
X236808Y70446D01*
X237147Y70999D01*
X237396Y71599D01*
X237547Y72229D01*
X237598Y72876D01*
X237547Y73523D01*
X237396Y74153D01*
X237147Y74753D01*
X236808Y75306D01*
X236387Y75799D01*
X235894Y76220D01*
X235341Y76559D01*
X234741Y76808D01*
X234111Y76959D01*
X233464Y77010D01*
Y78742D01*
X234111Y78793D01*
X234741Y78944D01*
X235341Y79193D01*
X235894Y79532D01*
X236387Y79953D01*
X236808Y80446D01*
X237147Y80999D01*
X237396Y81599D01*
X237547Y82229D01*
X237598Y82876D01*
X237547Y83523D01*
X237396Y84153D01*
X237147Y84753D01*
X236808Y85306D01*
X236387Y85799D01*
X235894Y86220D01*
X235341Y86559D01*
X234741Y86808D01*
X234111Y86959D01*
X233464Y87010D01*
Y88742D01*
X234111Y88793D01*
X234741Y88944D01*
X235341Y89193D01*
X235894Y89532D01*
X236387Y89953D01*
X236808Y90446D01*
X237147Y90999D01*
X237396Y91599D01*
X237547Y92229D01*
X237598Y92876D01*
X237547Y93523D01*
X237396Y94153D01*
X237147Y94753D01*
X236808Y95306D01*
X236387Y95799D01*
X235894Y96220D01*
X235341Y96559D01*
X234741Y96808D01*
X234111Y96959D01*
X233464Y97010D01*
Y98742D01*
X234111Y98793D01*
X234741Y98944D01*
X235341Y99193D01*
X235894Y99532D01*
X236387Y99953D01*
X236808Y100446D01*
X237147Y100999D01*
X237396Y101599D01*
X237547Y102229D01*
X237598Y102876D01*
X237547Y103523D01*
X237396Y104153D01*
X237147Y104753D01*
X236808Y105306D01*
X236387Y105799D01*
X235894Y106220D01*
X235341Y106559D01*
X234741Y106808D01*
X234111Y106959D01*
X233464Y107010D01*
Y108742D01*
X234111Y108793D01*
X234741Y108944D01*
X235341Y109193D01*
X235894Y109532D01*
X236387Y109953D01*
X236808Y110446D01*
X237147Y110999D01*
X237396Y111599D01*
X237547Y112229D01*
X237598Y112876D01*
X237547Y113523D01*
X237396Y114153D01*
X237147Y114753D01*
X236808Y115306D01*
X236387Y115799D01*
X235894Y116220D01*
X235341Y116559D01*
X234741Y116808D01*
X234111Y116959D01*
X233464Y117010D01*
Y195404D01*
X234371Y195475D01*
X236408Y195964D01*
X238344Y196766D01*
X240130Y197861D01*
X241723Y199221D01*
X243083Y200814D01*
X244178Y202600D01*
X244980Y204536D01*
X245469Y206573D01*
X245633Y208661D01*
X245469Y210749D01*
X244980Y212786D01*
X244178Y214722D01*
X243083Y216508D01*
X241723Y218101D01*
X240130Y219461D01*
X238344Y220556D01*
X236408Y221358D01*
X234371Y221847D01*
X233464Y221918D01*
Y224409D01*
G37*
G36*
Y107010D02*X232817Y106959D01*
X232187Y106808D01*
X231786Y106641D01*
X229198Y109229D01*
X229192Y109236D01*
X229016Y109386D01*
X228894Y109461D01*
X228819Y109507D01*
X228730Y109544D01*
X228604Y109596D01*
X228379Y109650D01*
X228149Y109668D01*
X226053D01*
X226387Y109953D01*
X226808Y110446D01*
X227147Y110999D01*
X227396Y111599D01*
X227547Y112229D01*
X227598Y112876D01*
X227547Y113523D01*
X227396Y114153D01*
X227147Y114753D01*
X226808Y115306D01*
X226387Y115799D01*
X225894Y116220D01*
X225341Y116559D01*
X224741Y116808D01*
X224111Y116959D01*
X223464Y117010D01*
Y198691D01*
X224436Y197861D01*
X226222Y196766D01*
X228158Y195964D01*
X230195Y195475D01*
X232283Y195311D01*
X233464Y195404D01*
Y117010D01*
X232817Y116959D01*
X232187Y116808D01*
X231587Y116559D01*
X231034Y116220D01*
X230541Y115799D01*
X230120Y115306D01*
X229781Y114753D01*
X229532Y114153D01*
X229381Y113523D01*
X229330Y112876D01*
X229381Y112229D01*
X229532Y111599D01*
X229781Y110999D01*
X230120Y110446D01*
X230541Y109953D01*
X231034Y109532D01*
X231587Y109193D01*
X232187Y108944D01*
X232817Y108793D01*
X233464Y108742D01*
Y107010D01*
G37*
G36*
Y97010D02*X232817Y96959D01*
X232187Y96808D01*
X231587Y96559D01*
X231034Y96220D01*
X230541Y95799D01*
X230120Y95306D01*
X229781Y94753D01*
X229778Y94746D01*
X229749Y94868D01*
X229697Y94994D01*
X229660Y95083D01*
X229614Y95158D01*
X229539Y95280D01*
X229389Y95456D01*
X229382Y95462D01*
X226245Y98599D01*
X226239Y98606D01*
X226063Y98756D01*
X225941Y98831D01*
X225866Y98877D01*
X225777Y98914D01*
X225651Y98966D01*
X225426Y99020D01*
X225196Y99038D01*
X224968D01*
X225341Y99193D01*
X225894Y99532D01*
X226387Y99953D01*
X226808Y100446D01*
X227147Y100999D01*
X227396Y101599D01*
X227547Y102229D01*
X227598Y102876D01*
X227547Y103523D01*
X227396Y104153D01*
X227147Y104753D01*
X226808Y105306D01*
X226387Y105799D01*
X225894Y106220D01*
X225341Y106559D01*
X224963Y106716D01*
X227537D01*
X229699Y104554D01*
X229532Y104153D01*
X229381Y103523D01*
X229330Y102876D01*
X229381Y102229D01*
X229532Y101599D01*
X229781Y100999D01*
X230120Y100446D01*
X230541Y99953D01*
X231034Y99532D01*
X231587Y99193D01*
X232187Y98944D01*
X232817Y98793D01*
X233464Y98742D01*
Y97010D01*
G37*
G36*
Y87010D02*X232817Y86959D01*
X232187Y86808D01*
X231869Y86676D01*
X229821Y88724D01*
Y90934D01*
X230120Y90446D01*
X230541Y89953D01*
X231034Y89532D01*
X231587Y89193D01*
X232187Y88944D01*
X232817Y88793D01*
X233464Y88742D01*
Y87010D01*
G37*
G36*
Y77010D02*X232817Y76959D01*
X232187Y76808D01*
X231701Y76607D01*
X230214Y78094D01*
Y80336D01*
X230541Y79953D01*
X231034Y79532D01*
X231587Y79193D01*
X232187Y78944D01*
X232817Y78793D01*
X233464Y78742D01*
Y77010D01*
G37*
G36*
Y67010D02*X232817Y66959D01*
X232187Y66808D01*
X231674Y66595D01*
X229821Y68448D01*
Y70934D01*
X230120Y70446D01*
X230541Y69953D01*
X231034Y69532D01*
X231587Y69193D01*
X232187Y68944D01*
X232817Y68793D01*
X233464Y68742D01*
Y67010D01*
G37*
G36*
Y57004D02*X231427Y57000D01*
X229821Y58606D01*
Y60934D01*
X230120Y60446D01*
X230541Y59953D01*
X231034Y59532D01*
X231587Y59193D01*
X232187Y58944D01*
X232817Y58793D01*
X233464Y58742D01*
Y57004D01*
G37*
G36*
Y29005D02*X232283Y29098D01*
X230195Y28934D01*
X228158Y28445D01*
X226222Y27643D01*
X224436Y26548D01*
X223464Y25718D01*
Y48742D01*
X224111Y48793D01*
X224741Y48944D01*
X225341Y49193D01*
X225894Y49532D01*
X226387Y49953D01*
X226808Y50446D01*
X227147Y50999D01*
X227396Y51599D01*
X227547Y52229D01*
X227598Y52876D01*
X227547Y53523D01*
X227396Y54153D01*
X227147Y54753D01*
X226808Y55306D01*
X226387Y55799D01*
X225894Y56220D01*
X225341Y56559D01*
X224741Y56808D01*
X224111Y56959D01*
X223464Y57010D01*
Y58742D01*
X224111Y58793D01*
X224741Y58944D01*
X225341Y59193D01*
X225894Y59532D01*
X226387Y59953D01*
X226808Y60446D01*
X226869Y60546D01*
Y57995D01*
X226887Y57764D01*
X226941Y57539D01*
X227030Y57325D01*
X227151Y57127D01*
X227301Y56951D01*
X227308Y56945D01*
X229332Y54921D01*
X229342Y49572D01*
X229378Y49422D01*
X229437Y49279D01*
X229518Y49148D01*
X229618Y49030D01*
X229736Y48930D01*
X229867Y48849D01*
X230010Y48790D01*
X230160Y48754D01*
X230314Y48742D01*
X233464Y48748D01*
Y29005D01*
G37*
G36*
Y0D02*X223464D01*
Y5778D01*
X224436Y4948D01*
X226222Y3853D01*
X228158Y3051D01*
X230195Y2562D01*
X232283Y2398D01*
X233464Y2491D01*
Y0D01*
G37*
G36*
X223464Y224409D02*X233464D01*
Y221918D01*
X232283Y222011D01*
X230195Y221847D01*
X228158Y221358D01*
X226222Y220556D01*
X224436Y219461D01*
X223464Y218631D01*
Y224409D01*
G37*
G36*
Y0D02*X176260D01*
Y51405D01*
X181534Y51411D01*
X181687Y51448D01*
X181832Y51508D01*
X181966Y51590D01*
X182085Y51692D01*
X182187Y51811D01*
X182269Y51945D01*
X182329Y52090D01*
X182366Y52243D01*
X182378Y52399D01*
X182366Y58555D01*
X182329Y58708D01*
X182269Y58853D01*
X182187Y58987D01*
X182085Y59106D01*
X181966Y59208D01*
X181832Y59290D01*
X181687Y59350D01*
X181534Y59387D01*
X181378Y59399D01*
X176260Y59393D01*
Y59941D01*
X180535D01*
X180646Y59895D01*
X180871Y59841D01*
X181102Y59823D01*
X181732D01*
X181963Y59841D01*
X181991Y59848D01*
X182033Y59851D01*
X182258Y59905D01*
X182472Y59994D01*
X182669Y60115D01*
X182845Y60265D01*
X186976Y64396D01*
X186990Y64408D01*
X187140Y64584D01*
X187262Y64782D01*
X187350Y64996D01*
X187404Y65221D01*
X187422Y65452D01*
Y66426D01*
X187682Y66585D01*
X188034Y66886D01*
X188335Y67238D01*
X188577Y67633D01*
X188754Y68061D01*
X188863Y68512D01*
X188899Y68974D01*
X188863Y69436D01*
X188754Y69887D01*
X188577Y70315D01*
X188335Y70710D01*
X188034Y71062D01*
X187682Y71363D01*
X187287Y71605D01*
X186859Y71782D01*
X186408Y71891D01*
X185946Y71927D01*
X185484Y71891D01*
X185033Y71782D01*
X184605Y71605D01*
X184210Y71363D01*
X183858Y71062D01*
X183557Y70710D01*
X183315Y70315D01*
X183138Y69887D01*
X183029Y69436D01*
X182993Y68974D01*
X183029Y68512D01*
X183138Y68061D01*
X183315Y67633D01*
X183557Y67238D01*
X183858Y66886D01*
X184210Y66585D01*
X184470Y66426D01*
Y66064D01*
X182365Y63959D01*
X182366Y63963D01*
X182378Y64119D01*
X182366Y70275D01*
X182329Y70428D01*
X182269Y70573D01*
X182187Y70707D01*
X182085Y70826D01*
X181966Y70928D01*
X181832Y71010D01*
X181687Y71070D01*
X181534Y71107D01*
X181378Y71119D01*
X178208Y71115D01*
Y71444D01*
X180150Y73386D01*
X182999Y73395D01*
X183149Y73431D01*
X183292Y73490D01*
X183423Y73571D01*
X183541Y73671D01*
X183641Y73789D01*
X183722Y73920D01*
X183781Y74063D01*
X183817Y74213D01*
X183829Y74367D01*
X183817Y77353D01*
X183781Y77503D01*
X183722Y77646D01*
X183641Y77777D01*
X183541Y77895D01*
X183423Y77995D01*
X183292Y78076D01*
X183149Y78135D01*
X182999Y78171D01*
X182845Y78183D01*
X178891Y78171D01*
X178741Y78135D01*
X178598Y78076D01*
X178467Y77995D01*
X178349Y77895D01*
X178249Y77777D01*
X178168Y77646D01*
X178117Y77522D01*
X178112Y77543D01*
X178053Y77686D01*
X177972Y77817D01*
X177872Y77935D01*
X177754Y78035D01*
X177623Y78116D01*
X177480Y78175D01*
X177330Y78211D01*
X177176Y78223D01*
X176260Y78220D01*
Y79266D01*
X177330Y79269D01*
X177480Y79305D01*
X177623Y79364D01*
X177754Y79445D01*
X177872Y79545D01*
X177972Y79663D01*
X178053Y79794D01*
X178104Y79918D01*
X178109Y79897D01*
X178168Y79754D01*
X178249Y79623D01*
X178349Y79505D01*
X178467Y79405D01*
X178598Y79324D01*
X178741Y79265D01*
X178891Y79229D01*
X179045Y79217D01*
X182999Y79229D01*
X183149Y79265D01*
X183292Y79324D01*
X183423Y79405D01*
X183541Y79505D01*
X183641Y79623D01*
X183722Y79754D01*
X183781Y79897D01*
X183817Y80047D01*
X183829Y80201D01*
X183817Y83187D01*
X183781Y83337D01*
X183722Y83480D01*
X183641Y83611D01*
X183541Y83729D01*
X183423Y83829D01*
X183292Y83910D01*
X183149Y83969D01*
X182999Y84005D01*
X182845Y84017D01*
X181303Y84012D01*
X180542Y84773D01*
X180709Y84733D01*
X180944Y84715D01*
X182281Y84733D01*
X182479Y84781D01*
X182677Y84733D01*
X182912Y84715D01*
X184249Y84733D01*
X184447Y84781D01*
X184646Y84733D01*
X184881Y84715D01*
X186218Y84733D01*
X186416Y84781D01*
X186614Y84733D01*
X186849Y84715D01*
X188186Y84733D01*
X188384Y84781D01*
X188583Y84733D01*
X188818Y84715D01*
X190155Y84733D01*
X190353Y84781D01*
X190551Y84733D01*
X190786Y84715D01*
X192123Y84733D01*
X192352Y84788D01*
X192569Y84878D01*
X192770Y85001D01*
X192949Y85154D01*
X193102Y85333D01*
X193225Y85534D01*
X193315Y85751D01*
X193370Y85980D01*
X193388Y86215D01*
X193370Y92450D01*
X193315Y92679D01*
X193225Y92896D01*
X193102Y93097D01*
X192949Y93276D01*
X192770Y93429D01*
X192569Y93552D01*
X192352Y93642D01*
X192123Y93697D01*
X191888Y93715D01*
X190551Y93697D01*
X190353Y93649D01*
X190155Y93697D01*
X189920Y93715D01*
X188583Y93697D01*
X188384Y93649D01*
X188186Y93697D01*
X187951Y93715D01*
X186614Y93697D01*
X186416Y93649D01*
X186218Y93697D01*
X185983Y93715D01*
X184646Y93697D01*
X184447Y93649D01*
X184249Y93697D01*
X184014Y93715D01*
X182677Y93697D01*
X182479Y93649D01*
X182281Y93697D01*
X182046Y93715D01*
X180709Y93697D01*
X180510Y93649D01*
X180312Y93697D01*
X180077Y93715D01*
X178740Y93697D01*
X178542Y93649D01*
X178344Y93697D01*
X178109Y93715D01*
X176772Y93697D01*
X176573Y93649D01*
X176375Y93697D01*
X176260Y93706D01*
Y125180D01*
X180799D01*
X180787Y125131D01*
X180766Y124900D01*
X180782Y124669D01*
X180833Y124443D01*
X180920Y124229D01*
X181039Y124030D01*
X181177Y123864D01*
X181097Y123535D01*
X181061Y123073D01*
X181097Y122611D01*
X181206Y122160D01*
X181383Y121732D01*
X181625Y121337D01*
X181926Y120985D01*
X182278Y120684D01*
X182673Y120442D01*
X183101Y120265D01*
X183552Y120156D01*
X184014Y120120D01*
X184476Y120156D01*
X184927Y120265D01*
X185355Y120442D01*
X185750Y120684D01*
X185885Y120799D01*
Y115220D01*
X184497Y113832D01*
X184201Y113903D01*
X183739Y113939D01*
X183277Y113903D01*
X182826Y113794D01*
X182398Y113617D01*
X182003Y113375D01*
X181651Y113074D01*
X181350Y112722D01*
X181108Y112327D01*
X180931Y111899D01*
X180822Y111448D01*
X180786Y110986D01*
X180822Y110524D01*
X180931Y110073D01*
X181108Y109645D01*
X181350Y109250D01*
X181651Y108898D01*
X182003Y108597D01*
X182398Y108355D01*
X182826Y108178D01*
X183277Y108069D01*
X183739Y108033D01*
X184201Y108069D01*
X184652Y108178D01*
X185080Y108355D01*
X185475Y108597D01*
X185827Y108898D01*
X186128Y109250D01*
X186370Y109645D01*
X186547Y110073D01*
X186656Y110524D01*
X186692Y110986D01*
X186656Y111448D01*
X186584Y111745D01*
X188391Y113552D01*
X188405Y113564D01*
X188555Y113740D01*
X188677Y113938D01*
X188765Y114152D01*
X188819Y114377D01*
X188837Y114608D01*
Y124321D01*
X188836Y124339D01*
X188819Y124551D01*
X188765Y124776D01*
X188713Y124902D01*
X188676Y124991D01*
X188636Y125056D01*
X188558Y125183D01*
X189508Y124234D01*
Y112836D01*
X189507Y112824D01*
X189525Y112593D01*
X189579Y112368D01*
X189668Y112154D01*
X189789Y111956D01*
X189939Y111780D01*
X191484Y110235D01*
X191412Y109939D01*
X191376Y109477D01*
X191412Y109015D01*
X191521Y108564D01*
X191698Y108136D01*
X191940Y107741D01*
X192241Y107389D01*
X192593Y107088D01*
X192988Y106846D01*
X193416Y106669D01*
X193867Y106560D01*
X194329Y106524D01*
X194791Y106560D01*
X195242Y106669D01*
X195670Y106846D01*
X196065Y107088D01*
X196417Y107389D01*
X196718Y107741D01*
X196791Y107861D01*
X196776Y107797D01*
X196758Y107562D01*
X196776Y106225D01*
X196824Y106026D01*
X196776Y105828D01*
X196758Y105593D01*
X196776Y104256D01*
X196824Y104058D01*
X196776Y103860D01*
X196758Y103625D01*
X196776Y102288D01*
X196824Y102089D01*
X196776Y101891D01*
X196758Y101656D01*
X196776Y100319D01*
X196824Y100121D01*
X196776Y99923D01*
X196758Y99688D01*
X196776Y98351D01*
X196831Y98122D01*
X196921Y97905D01*
X197044Y97704D01*
X197197Y97525D01*
X197376Y97372D01*
X197577Y97249D01*
X197794Y97159D01*
X198023Y97104D01*
X198258Y97086D01*
X204493Y97104D01*
X204722Y97159D01*
X204939Y97249D01*
X204993Y97282D01*
Y89992D01*
X199283Y84204D01*
X199247Y84226D01*
X199104Y84285D01*
X198954Y84321D01*
X198800Y84333D01*
X190574Y84321D01*
X190424Y84285D01*
X190281Y84226D01*
X190150Y84145D01*
X190032Y84045D01*
X189932Y83927D01*
X189851Y83796D01*
X189792Y83653D01*
X189756Y83503D01*
X189744Y83349D01*
X189756Y61343D01*
X189792Y61193D01*
X189851Y61050D01*
X189932Y60919D01*
X190032Y60801D01*
X190150Y60701D01*
X190281Y60620D01*
X190424Y60561D01*
X190574Y60525D01*
X190728Y60513D01*
X198954Y60525D01*
X199104Y60561D01*
X199247Y60620D01*
X199378Y60701D01*
X199496Y60801D01*
X199596Y60919D01*
X199677Y61050D01*
X199736Y61193D01*
X199772Y61343D01*
X199784Y61497D01*
X199774Y80500D01*
X206765Y87586D01*
Y55629D01*
X197870Y46734D01*
X190574Y46723D01*
X190424Y46687D01*
X190281Y46628D01*
X190150Y46547D01*
X190032Y46447D01*
X189932Y46329D01*
X189851Y46198D01*
X189792Y46055D01*
X189756Y45905D01*
X189744Y45751D01*
X189756Y23745D01*
X189792Y23595D01*
X189851Y23452D01*
X189932Y23321D01*
X190032Y23203D01*
X190150Y23103D01*
X190281Y23022D01*
X190424Y22963D01*
X190574Y22927D01*
X190728Y22915D01*
X198954Y22927D01*
X199104Y22963D01*
X199247Y23022D01*
X199378Y23103D01*
X199496Y23203D01*
X199596Y23321D01*
X199677Y23452D01*
X199736Y23595D01*
X199772Y23745D01*
X199784Y23899D01*
X199773Y44463D01*
X209271Y53961D01*
X209285Y53973D01*
X209435Y54149D01*
X209557Y54347D01*
X209645Y54561D01*
X209699Y54786D01*
X209717Y55017D01*
Y103669D01*
X209939Y103447D01*
Y77680D01*
X209957Y77449D01*
X210011Y77224D01*
X210100Y77010D01*
X210221Y76812D01*
X210371Y76636D01*
X210378Y76630D01*
X220208Y66800D01*
X220214Y66793D01*
X220390Y66643D01*
X220588Y66522D01*
X220802Y66433D01*
X221027Y66379D01*
X221258Y66361D01*
X221264D01*
X221034Y66220D01*
X220541Y65799D01*
X220120Y65306D01*
X219781Y64753D01*
X219532Y64153D01*
X219381Y63523D01*
X219330Y62876D01*
X219381Y62229D01*
X219532Y61599D01*
X219781Y60999D01*
X220120Y60446D01*
X220541Y59953D01*
X221034Y59532D01*
X221587Y59193D01*
X222187Y58944D01*
X222817Y58793D01*
X223464Y58742D01*
Y57010D01*
X222817Y56959D01*
X222187Y56808D01*
X221587Y56559D01*
X221034Y56220D01*
X220541Y55799D01*
X220120Y55306D01*
X219781Y54753D01*
X219532Y54153D01*
X219381Y53523D01*
X219330Y52876D01*
X219381Y52229D01*
X219532Y51599D01*
X219781Y50999D01*
X220120Y50446D01*
X220541Y49953D01*
X221034Y49532D01*
X221587Y49193D01*
X222187Y48944D01*
X222817Y48793D01*
X223464Y48742D01*
Y25718D01*
X222843Y25188D01*
X221483Y23595D01*
X220388Y21809D01*
X219586Y19873D01*
X219097Y17836D01*
X218933Y15748D01*
X219097Y13660D01*
X219586Y11623D01*
X220388Y9687D01*
X221483Y7901D01*
X222843Y6308D01*
X223464Y5778D01*
Y0D01*
G37*
G36*
X205667Y224409D02*X223464D01*
Y218631D01*
X222843Y218101D01*
X221483Y216508D01*
X220388Y214722D01*
X219586Y212786D01*
X219097Y210749D01*
X218933Y208661D01*
X219097Y206573D01*
X219586Y204536D01*
X220388Y202600D01*
X221483Y200814D01*
X222843Y199221D01*
X223464Y198691D01*
Y117010D01*
X222817Y116959D01*
X222187Y116808D01*
X221587Y116559D01*
X221034Y116220D01*
X220541Y115799D01*
X220120Y115306D01*
X219781Y114753D01*
X219532Y114153D01*
X219381Y113523D01*
X219330Y112876D01*
X219370Y112364D01*
X213844Y117890D01*
X213838Y117897D01*
X213662Y118047D01*
X213540Y118122D01*
X213465Y118168D01*
X213376Y118205D01*
X213250Y118257D01*
X213025Y118311D01*
X212813Y118328D01*
X212795Y118329D01*
X205757D01*
X205740Y119608D01*
X205692Y119806D01*
X205740Y120004D01*
X205758Y120239D01*
X205743Y121380D01*
X209336Y121391D01*
X209486Y121427D01*
X209629Y121486D01*
X209760Y121567D01*
X209878Y121667D01*
X209978Y121785D01*
X210059Y121916D01*
X210118Y122059D01*
X210154Y122209D01*
X210166Y122363D01*
X210154Y125349D01*
X210118Y125499D01*
X210059Y125642D01*
X209978Y125773D01*
X209878Y125891D01*
X209760Y125991D01*
X209629Y126072D01*
X209486Y126131D01*
X209336Y126167D01*
X209182Y126179D01*
X205758Y126169D01*
X205744Y127214D01*
X207473Y127219D01*
X207490Y127217D01*
X207535Y127206D01*
X207610Y127200D01*
X207675Y127191D01*
X207717Y127192D01*
X207766Y127188D01*
X207841Y127194D01*
X207907Y127195D01*
X207948Y127202D01*
X207997Y127206D01*
X208058Y127221D01*
X209336Y127225D01*
X209486Y127261D01*
X209629Y127320D01*
X209760Y127401D01*
X209878Y127501D01*
X209978Y127619D01*
X210059Y127750D01*
X210118Y127893D01*
X210154Y128043D01*
X210166Y128197D01*
X210165Y128369D01*
X214576D01*
X214735Y128109D01*
X215036Y127757D01*
X215388Y127456D01*
X215783Y127214D01*
X216211Y127037D01*
X216662Y126928D01*
X217124Y126892D01*
X217586Y126928D01*
X218037Y127037D01*
X218465Y127214D01*
X218860Y127456D01*
X219212Y127757D01*
X219513Y128109D01*
X219755Y128504D01*
X219932Y128932D01*
X220041Y129383D01*
X220077Y129845D01*
X220041Y130307D01*
X219932Y130758D01*
X219755Y131186D01*
X219513Y131581D01*
X219212Y131933D01*
X218860Y132234D01*
X218465Y132476D01*
X218037Y132653D01*
X217586Y132762D01*
X217124Y132798D01*
X216662Y132762D01*
X216211Y132653D01*
X215783Y132476D01*
X215388Y132234D01*
X215036Y131933D01*
X214735Y131581D01*
X214576Y131321D01*
X210121D01*
X210118Y131333D01*
X210059Y131476D01*
X209978Y131607D01*
X209878Y131725D01*
X209760Y131825D01*
X209629Y131906D01*
X209486Y131965D01*
X209336Y132001D01*
X209182Y132013D01*
X205667Y132002D01*
Y138151D01*
X206899Y138248D01*
X208100Y138536D01*
X209242Y139009D01*
X210295Y139655D01*
X211235Y140457D01*
X212037Y141397D01*
X212683Y142450D01*
X213156Y143592D01*
X213444Y144793D01*
X213541Y146025D01*
X213444Y147257D01*
X213156Y148458D01*
X212683Y149600D01*
X212037Y150653D01*
X211235Y151593D01*
X210295Y152395D01*
X209242Y153041D01*
X208100Y153514D01*
X206899Y153802D01*
X205667Y153899D01*
Y185395D01*
X206899Y185492D01*
X208100Y185780D01*
X209242Y186253D01*
X210295Y186899D01*
X211235Y187701D01*
X212037Y188641D01*
X212683Y189694D01*
X213156Y190836D01*
X213444Y192037D01*
X213541Y193269D01*
X213444Y194501D01*
X213156Y195702D01*
X212683Y196844D01*
X212037Y197897D01*
X211235Y198837D01*
X210295Y199639D01*
X209242Y200285D01*
X208100Y200758D01*
X206899Y201046D01*
X205667Y201143D01*
Y224409D01*
G37*
G36*
X191061D02*X205667D01*
Y201143D01*
X204435Y201046D01*
X203234Y200758D01*
X202092Y200285D01*
X201039Y199639D01*
X200099Y198837D01*
X199297Y197897D01*
X198651Y196844D01*
X198178Y195702D01*
X197890Y194501D01*
X197793Y193269D01*
X197890Y192037D01*
X198178Y190836D01*
X198651Y189694D01*
X199297Y188641D01*
X200099Y187701D01*
X201039Y186899D01*
X202092Y186253D01*
X203234Y185780D01*
X204435Y185492D01*
X205667Y185395D01*
Y153899D01*
X204435Y153802D01*
X203234Y153514D01*
X202092Y153041D01*
X201039Y152395D01*
X200099Y151593D01*
X199297Y150653D01*
X198651Y149600D01*
X198178Y148458D01*
X197890Y147257D01*
X197793Y146025D01*
X197890Y144793D01*
X198178Y143592D01*
X198651Y142450D01*
X199297Y141397D01*
X200099Y140457D01*
X201039Y139655D01*
X202092Y139009D01*
X203234Y138536D01*
X204435Y138248D01*
X205667Y138151D01*
Y132002D01*
X205228Y132001D01*
X205078Y131965D01*
X204935Y131906D01*
X204804Y131825D01*
X204686Y131725D01*
X204586Y131607D01*
X204505Y131476D01*
X204446Y131333D01*
X204410Y131183D01*
X204398Y131029D01*
X204399Y130704D01*
X204258Y130715D01*
X202598Y130710D01*
X193374Y139934D01*
X193369Y141820D01*
X193314Y142049D01*
X193224Y142266D01*
X193101Y142467D01*
X192948Y142646D01*
X192769Y142799D01*
X192720Y142829D01*
X192688Y142907D01*
X192651Y142996D01*
X192605Y143071D01*
X192530Y143193D01*
X192380Y143369D01*
X192373Y143375D01*
X191061Y144687D01*
Y163894D01*
X191160Y163479D01*
X191403Y162894D01*
X191734Y162354D01*
X192145Y161873D01*
X192626Y161462D01*
X193166Y161131D01*
X193751Y160888D01*
X194367Y160741D01*
X194998Y160691D01*
X195629Y160741D01*
X196245Y160888D01*
X196830Y161131D01*
X197370Y161462D01*
X197851Y161873D01*
X198262Y162354D01*
X198593Y162894D01*
X198836Y163479D01*
X198983Y164095D01*
X199033Y164726D01*
X198983Y165357D01*
X198836Y165973D01*
X198593Y166558D01*
X198262Y167098D01*
X197851Y167579D01*
X197370Y167990D01*
X196830Y168321D01*
X196245Y168564D01*
X195629Y168711D01*
X194998Y168761D01*
X194367Y168711D01*
X193751Y168564D01*
X193166Y168321D01*
X192626Y167990D01*
X192145Y167579D01*
X191734Y167098D01*
X191403Y166558D01*
X191160Y165973D01*
X191061Y165558D01*
Y173736D01*
X191160Y173321D01*
X191403Y172736D01*
X191734Y172196D01*
X192145Y171715D01*
X192626Y171304D01*
X193166Y170973D01*
X193751Y170730D01*
X194367Y170583D01*
X194998Y170533D01*
X195629Y170583D01*
X196245Y170730D01*
X196830Y170973D01*
X197370Y171304D01*
X197851Y171715D01*
X198262Y172196D01*
X198593Y172736D01*
X198836Y173321D01*
X198983Y173937D01*
X199033Y174568D01*
X198983Y175199D01*
X198836Y175815D01*
X198593Y176400D01*
X198262Y176940D01*
X197851Y177421D01*
X197370Y177832D01*
X196830Y178163D01*
X196245Y178406D01*
X195629Y178553D01*
X194998Y178603D01*
X194367Y178553D01*
X193751Y178406D01*
X193166Y178163D01*
X192626Y177832D01*
X192145Y177421D01*
X191734Y176940D01*
X191403Y176400D01*
X191160Y175815D01*
X191061Y175400D01*
Y224409D01*
G37*
G36*
X176260D02*X191061D01*
Y175400D01*
X190962Y175815D01*
X190719Y176400D01*
X190388Y176940D01*
X189977Y177421D01*
X189496Y177832D01*
X188956Y178163D01*
X188371Y178406D01*
X187755Y178553D01*
X187124Y178603D01*
X186493Y178553D01*
X185877Y178406D01*
X185292Y178163D01*
X184752Y177832D01*
X184271Y177421D01*
X183860Y176940D01*
X183529Y176400D01*
X183286Y175815D01*
X183139Y175199D01*
X183089Y174568D01*
X183139Y173937D01*
X183286Y173321D01*
X183529Y172736D01*
X183860Y172196D01*
X184271Y171715D01*
X184752Y171304D01*
X185292Y170973D01*
X185877Y170730D01*
X186493Y170583D01*
X187124Y170533D01*
X187755Y170583D01*
X188371Y170730D01*
X188956Y170973D01*
X189496Y171304D01*
X189977Y171715D01*
X190388Y172196D01*
X190719Y172736D01*
X190962Y173321D01*
X191061Y173736D01*
Y165558D01*
X190962Y165973D01*
X190719Y166558D01*
X190388Y167098D01*
X189977Y167579D01*
X189496Y167990D01*
X188956Y168321D01*
X188371Y168564D01*
X187755Y168711D01*
X187124Y168761D01*
X186493Y168711D01*
X185877Y168564D01*
X185292Y168321D01*
X184752Y167990D01*
X184271Y167579D01*
X183860Y167098D01*
X183529Y166558D01*
X183286Y165973D01*
X183139Y165357D01*
X183089Y164726D01*
X183139Y164095D01*
X183286Y163479D01*
X183529Y162894D01*
X183860Y162354D01*
X184271Y161873D01*
X184752Y161462D01*
X185292Y161131D01*
X185877Y160888D01*
X186493Y160741D01*
X187124Y160691D01*
X187755Y160741D01*
X188371Y160888D01*
X188956Y161131D01*
X189496Y161462D01*
X189977Y161873D01*
X190388Y162354D01*
X190719Y162894D01*
X190962Y163479D01*
X191061Y163894D01*
Y144687D01*
X177854Y157894D01*
X177838Y158099D01*
X177729Y158550D01*
X177552Y158978D01*
X177310Y159373D01*
X177009Y159725D01*
X176657Y160026D01*
X176262Y160268D01*
X176260Y160269D01*
Y160665D01*
X177867Y160668D01*
X178020Y160705D01*
X178165Y160765D01*
X178299Y160847D01*
X178418Y160949D01*
X178520Y161068D01*
X178602Y161202D01*
X178662Y161347D01*
X178699Y161500D01*
X178711Y161656D01*
X178699Y172048D01*
X178662Y172201D01*
X178602Y172346D01*
X178520Y172480D01*
X178418Y172599D01*
X178299Y172701D01*
X178165Y172783D01*
X178020Y172843D01*
X177867Y172880D01*
X177711Y172892D01*
X176260Y172889D01*
Y174800D01*
X177866Y174803D01*
X178019Y174840D01*
X178164Y174900D01*
X178298Y174982D01*
X178417Y175084D01*
X178519Y175203D01*
X178601Y175337D01*
X178661Y175482D01*
X178698Y175635D01*
X178710Y175791D01*
X178698Y186183D01*
X178661Y186336D01*
X178601Y186481D01*
X178519Y186615D01*
X178417Y186734D01*
X178298Y186836D01*
X178164Y186918D01*
X178019Y186978D01*
X177866Y187015D01*
X177710Y187027D01*
X176260Y187024D01*
Y224409D01*
G37*
G36*
X156109Y71070D02*X156358Y71319D01*
X163031D01*
X163262Y71337D01*
X163487Y71391D01*
X163701Y71480D01*
X163899Y71601D01*
X164075Y71751D01*
X164087Y71765D01*
X172405Y80083D01*
X172440Y79937D01*
X172499Y79794D01*
X172580Y79663D01*
X172680Y79545D01*
X172798Y79445D01*
X172929Y79364D01*
X173072Y79305D01*
X173222Y79269D01*
X173376Y79257D01*
X176260Y79266D01*
Y78220D01*
X173222Y78211D01*
X173072Y78175D01*
X172929Y78116D01*
X172798Y78035D01*
X172680Y77935D01*
X172580Y77817D01*
X172499Y77686D01*
X172440Y77543D01*
X172404Y77393D01*
X172392Y77239D01*
X172399Y75518D01*
X170994Y74113D01*
X167402D01*
X167171Y74095D01*
X166946Y74041D01*
X166732Y73953D01*
X166534Y73831D01*
X166358Y73681D01*
X163793Y71116D01*
X156261Y71107D01*
X156109Y71070D01*
G37*
G36*
X176186Y172889D02*Y174800D01*
X176260D01*
Y172889D01*
X176186D01*
G37*
G36*
X176260Y143076D02*X176139Y143085D01*
X174802Y143067D01*
X174604Y143019D01*
X174406Y143067D01*
X174171Y143085D01*
X172834Y143067D01*
X172636Y143019D01*
X172437Y143067D01*
X172202Y143085D01*
X171950Y143082D01*
X172209Y143240D01*
X172561Y143541D01*
X172862Y143893D01*
X173104Y144288D01*
X173281Y144716D01*
X173390Y145167D01*
X173426Y145629D01*
X173390Y146091D01*
X173281Y146542D01*
X173104Y146970D01*
X172862Y147365D01*
X172561Y147717D01*
X172209Y148018D01*
X171814Y148260D01*
X171386Y148437D01*
X170935Y148546D01*
X170473Y148582D01*
X170011Y148546D01*
X169679Y148466D01*
X170254Y149035D01*
X172265D01*
X172310Y148850D01*
X172487Y148422D01*
X172729Y148027D01*
X173030Y147675D01*
X173382Y147374D01*
X173777Y147132D01*
X174205Y146955D01*
X174656Y146846D01*
X175118Y146810D01*
X175580Y146846D01*
X176031Y146955D01*
X176260Y147050D01*
Y143076D01*
G37*
G36*
X166139Y59941D02*X176260D01*
Y59393D01*
X170986Y59387D01*
X170833Y59350D01*
X170688Y59290D01*
X170554Y59208D01*
X170435Y59106D01*
X170333Y58987D01*
X170251Y58853D01*
X170191Y58708D01*
X170154Y58555D01*
X170142Y58399D01*
X170154Y52243D01*
X170191Y52090D01*
X170251Y51945D01*
X170333Y51811D01*
X170435Y51692D01*
X170554Y51590D01*
X170688Y51508D01*
X170833Y51448D01*
X170986Y51411D01*
X171142Y51399D01*
X176260Y51405D01*
Y0D01*
X166139D01*
Y34596D01*
X167281Y34686D01*
X168395Y34953D01*
X169453Y35392D01*
X170430Y35990D01*
X171301Y36734D01*
X172045Y37605D01*
X172643Y38582D01*
X173082Y39640D01*
X173349Y40754D01*
X173439Y41896D01*
X173349Y43038D01*
X173082Y44152D01*
X172643Y45210D01*
X172045Y46187D01*
X171301Y47058D01*
X170430Y47802D01*
X169453Y48400D01*
X168395Y48839D01*
X167281Y49106D01*
X166139Y49196D01*
Y51410D01*
X166809Y51411D01*
X166962Y51448D01*
X167107Y51508D01*
X167241Y51590D01*
X167360Y51692D01*
X167462Y51811D01*
X167544Y51945D01*
X167604Y52090D01*
X167641Y52243D01*
X167653Y52399D01*
X167641Y58555D01*
X167604Y58708D01*
X167544Y58853D01*
X167462Y58987D01*
X167360Y59106D01*
X167241Y59208D01*
X167107Y59290D01*
X166962Y59350D01*
X166809Y59387D01*
X166653Y59399D01*
X166139Y59398D01*
Y59941D01*
G37*
G36*
Y79482D02*X166208Y79487D01*
X166659Y79596D01*
X167087Y79773D01*
X167482Y80015D01*
X167834Y80316D01*
X168135Y80668D01*
X168377Y81063D01*
X168554Y81491D01*
X168663Y81942D01*
X168699Y82404D01*
X168663Y82866D01*
X168554Y83317D01*
X168377Y83745D01*
X168135Y84140D01*
X167834Y84492D01*
X167567Y84720D01*
X168501Y84733D01*
X168699Y84781D01*
X168898Y84733D01*
X169133Y84715D01*
X170069Y84728D01*
X170021Y83792D01*
X170020Y83779D01*
Y81872D01*
X166139Y77991D01*
Y79482D01*
G37*
G36*
Y116492D02*X166206Y116215D01*
X166383Y115787D01*
X166625Y115392D01*
X166926Y115040D01*
X167278Y114739D01*
X167538Y114580D01*
Y112685D01*
X167452Y113041D01*
X167275Y113469D01*
X167033Y113864D01*
X166732Y114216D01*
X166380Y114517D01*
X166139Y114665D01*
Y116492D01*
G37*
G36*
Y121521D02*X166307Y121562D01*
X166735Y121739D01*
X167130Y121981D01*
X167482Y122282D01*
X167783Y122634D01*
X168025Y123029D01*
X168202Y123457D01*
X168311Y123908D01*
X168347Y124370D01*
X168311Y124832D01*
X168202Y125283D01*
X168163Y125376D01*
X168177Y125368D01*
X168200Y125357D01*
X168227Y125341D01*
X168302Y125310D01*
X168388Y125270D01*
X168417Y125262D01*
X168441Y125252D01*
X168534Y125229D01*
X168612Y125208D01*
X168636Y125205D01*
X168666Y125198D01*
X168759Y125191D01*
X168842Y125181D01*
X168869Y125182D01*
X168897Y125180D01*
X176260D01*
Y93706D01*
X176140Y93715D01*
X174803Y93697D01*
X174605Y93649D01*
X174407Y93697D01*
X174172Y93715D01*
X172835Y93697D01*
X172636Y93649D01*
X172438Y93697D01*
X172203Y93715D01*
X171821Y93710D01*
X173391Y95280D01*
X173405Y95292D01*
X173555Y95468D01*
X173677Y95666D01*
X173765Y95880D01*
X173819Y96105D01*
X173837Y96336D01*
Y118391D01*
X174175Y118598D01*
X174527Y118899D01*
X174828Y119251D01*
X175070Y119646D01*
X175247Y120074D01*
X175356Y120525D01*
X175392Y120987D01*
X175356Y121449D01*
X175247Y121900D01*
X175070Y122328D01*
X174828Y122723D01*
X174527Y123075D01*
X174175Y123376D01*
X173780Y123618D01*
X173352Y123795D01*
X172901Y123904D01*
X172439Y123940D01*
X171977Y123904D01*
X171526Y123795D01*
X171098Y123618D01*
X170703Y123376D01*
X170351Y123075D01*
X170050Y122723D01*
X169808Y122328D01*
X169631Y121900D01*
X169522Y121449D01*
X169486Y120987D01*
X169522Y120525D01*
X169631Y120074D01*
X169662Y120000D01*
X169476Y120045D01*
X169014Y120081D01*
X168552Y120045D01*
X168101Y119936D01*
X167673Y119759D01*
X167278Y119517D01*
X166926Y119216D01*
X166625Y118864D01*
X166383Y118469D01*
X166206Y118041D01*
X166139Y117764D01*
Y121521D01*
G37*
G36*
Y224409D02*X176260D01*
Y187024D01*
X171554Y187015D01*
X171401Y186978D01*
X171256Y186918D01*
X171122Y186836D01*
X171003Y186734D01*
X170901Y186615D01*
X170819Y186481D01*
X170759Y186336D01*
X170722Y186183D01*
X170710Y186027D01*
X170722Y175635D01*
X170759Y175482D01*
X170819Y175337D01*
X170901Y175203D01*
X171003Y175084D01*
X171122Y174982D01*
X171256Y174900D01*
X171401Y174840D01*
X171554Y174803D01*
X171710Y174791D01*
X173234Y174794D01*
Y172883D01*
X171555Y172880D01*
X171402Y172843D01*
X171257Y172783D01*
X171123Y172701D01*
X171004Y172599D01*
X170902Y172480D01*
X170820Y172346D01*
X170760Y172201D01*
X170723Y172048D01*
X170711Y171892D01*
X170723Y161500D01*
X170760Y161347D01*
X170820Y161202D01*
X170902Y161068D01*
X171004Y160949D01*
X171123Y160847D01*
X171257Y160765D01*
X171402Y160705D01*
X171555Y160668D01*
X171711Y160656D01*
X176260Y160665D01*
Y160269D01*
X175834Y160445D01*
X175383Y160554D01*
X174921Y160590D01*
X174459Y160554D01*
X174008Y160445D01*
X173580Y160268D01*
X173185Y160026D01*
X172833Y159725D01*
X172532Y159373D01*
X172290Y158978D01*
X172113Y158550D01*
X172004Y158099D01*
X171968Y157637D01*
X172004Y157175D01*
X172113Y156724D01*
X172290Y156296D01*
X172532Y155901D01*
X172833Y155549D01*
X173185Y155248D01*
X173580Y155006D01*
X174008Y154829D01*
X174459Y154720D01*
X174921Y154684D01*
X175383Y154720D01*
X175834Y154829D01*
X176260Y155005D01*
Y152476D01*
X176031Y152571D01*
X175580Y152680D01*
X175118Y152716D01*
X174656Y152680D01*
X174205Y152571D01*
X173777Y152394D01*
X173382Y152152D01*
X173189Y151987D01*
X169667D01*
X169655Y151988D01*
X169641Y151987D01*
X169607D01*
X169376Y151969D01*
X169151Y151915D01*
X168937Y151826D01*
X168739Y151705D01*
X168563Y151555D01*
X168413Y151379D01*
X168396Y151351D01*
X166139Y149117D01*
Y151493D01*
X168226Y153580D01*
X170234Y153588D01*
X170384Y153624D01*
X170527Y153683D01*
X170658Y153764D01*
X170776Y153864D01*
X170876Y153982D01*
X170957Y154113D01*
X171016Y154256D01*
X171052Y154406D01*
X171064Y154560D01*
X171052Y158514D01*
X171016Y158664D01*
X170957Y158807D01*
X170876Y158938D01*
X170776Y159056D01*
X170658Y159156D01*
X170527Y159237D01*
X170384Y159296D01*
X170234Y159332D01*
X170080Y159344D01*
X167094Y159332D01*
X166944Y159296D01*
X166801Y159237D01*
X166670Y159156D01*
X166552Y159056D01*
X166452Y158938D01*
X166371Y158807D01*
X166312Y158664D01*
X166276Y158514D01*
X166264Y158360D01*
X166272Y155800D01*
X166139Y155667D01*
Y160668D01*
X166147D01*
X166300Y160705D01*
X166445Y160765D01*
X166579Y160847D01*
X166698Y160949D01*
X166800Y161068D01*
X166882Y161202D01*
X166942Y161347D01*
X166979Y161500D01*
X166991Y161656D01*
X166979Y172048D01*
X166942Y172201D01*
X166882Y172346D01*
X166800Y172480D01*
X166698Y172599D01*
X166579Y172701D01*
X166445Y172783D01*
X166300Y172843D01*
X166147Y172880D01*
X166139Y172881D01*
Y174803D01*
X166146D01*
X166299Y174840D01*
X166444Y174900D01*
X166578Y174982D01*
X166697Y175084D01*
X166799Y175203D01*
X166881Y175337D01*
X166941Y175482D01*
X166978Y175635D01*
X166990Y175791D01*
X166978Y186183D01*
X166941Y186336D01*
X166881Y186481D01*
X166799Y186615D01*
X166697Y186734D01*
X166578Y186836D01*
X166444Y186918D01*
X166299Y186978D01*
X166146Y187015D01*
X166139Y187016D01*
Y224409D01*
G37*
G36*
Y155667D02*X165229Y154757D01*
X165218Y158514D01*
X165182Y158664D01*
X165123Y158807D01*
X165042Y158938D01*
X164942Y159056D01*
X164824Y159156D01*
X164693Y159237D01*
X164550Y159296D01*
X164400Y159332D01*
X164306Y159339D01*
Y160665D01*
X166139Y160668D01*
Y155667D01*
G37*
G36*
Y149117D02*X165255Y148242D01*
Y150609D01*
X166139Y151493D01*
Y149117D01*
G37*
G36*
X136611Y120273D02*X137526Y121188D01*
X137540Y121200D01*
X137579Y121246D01*
Y118801D01*
X137539Y118761D01*
X137389Y118585D01*
X137268Y118387D01*
X137179Y118173D01*
X137125Y117948D01*
X137107Y117717D01*
Y94488D01*
X137125Y94257D01*
X137179Y94032D01*
X137268Y93818D01*
X137389Y93620D01*
X137539Y93444D01*
X137546Y93438D01*
X140683Y90301D01*
X140689Y90294D01*
X140865Y90144D01*
X141063Y90023D01*
X141277Y89934D01*
X141502Y89880D01*
X141733Y89862D01*
X146850D01*
X147081Y89880D01*
X147306Y89934D01*
X147520Y90023D01*
X147718Y90144D01*
X147894Y90294D01*
X147936Y90343D01*
X147972Y90374D01*
X149101Y91503D01*
X149115Y91515D01*
X149265Y91691D01*
X149387Y91889D01*
X149475Y92103D01*
X149529Y92328D01*
X149547Y92559D01*
Y97087D01*
X155123Y97103D01*
X155352Y97158D01*
X155569Y97248D01*
X155770Y97371D01*
X155949Y97524D01*
X156102Y97703D01*
X156225Y97904D01*
X156315Y98121D01*
X156370Y98350D01*
X156388Y98585D01*
X156374Y99643D01*
X156414Y99646D01*
X156639Y99700D01*
X156853Y99789D01*
X157051Y99910D01*
X157227Y100060D01*
X157239Y100074D01*
X160597Y103432D01*
X160611Y103444D01*
X160761Y103620D01*
X160883Y103818D01*
X160971Y104032D01*
X161025Y104257D01*
X161043Y104488D01*
Y117933D01*
X164635Y121525D01*
X164932Y121453D01*
X165394Y121417D01*
X165856Y121453D01*
X166139Y121521D01*
Y117764D01*
X166097Y117590D01*
X166061Y117128D01*
X166097Y116666D01*
X166139Y116492D01*
Y114665D01*
X165985Y114759D01*
X165557Y114936D01*
X165106Y115045D01*
X164644Y115081D01*
X164182Y115045D01*
X163731Y114936D01*
X163303Y114759D01*
X162908Y114517D01*
X162556Y114216D01*
X162255Y113864D01*
X162013Y113469D01*
X161836Y113041D01*
X161727Y112590D01*
X161691Y112128D01*
X161727Y111666D01*
X161836Y111215D01*
X162013Y110787D01*
X162255Y110392D01*
X162556Y110040D01*
X162908Y109739D01*
X163303Y109497D01*
X163731Y109320D01*
X164059Y109241D01*
X163932Y109163D01*
X163580Y108862D01*
X163279Y108510D01*
X163037Y108115D01*
X162860Y107687D01*
X162751Y107236D01*
X162715Y106774D01*
X162751Y106312D01*
X162860Y105861D01*
X163037Y105433D01*
X163279Y105038D01*
X163580Y104686D01*
X163932Y104385D01*
X164153Y104250D01*
Y98960D01*
X162734Y97541D01*
X162584Y97365D01*
X162463Y97167D01*
X162374Y96953D01*
X162320Y96728D01*
X162302Y96497D01*
Y93714D01*
X161024Y93697D01*
X160795Y93642D01*
X160578Y93552D01*
X160377Y93429D01*
X160198Y93276D01*
X160045Y93097D01*
X159922Y92896D01*
X159832Y92679D01*
X159777Y92450D01*
X159759Y92215D01*
X159775Y86819D01*
X158762Y85806D01*
X136611D01*
Y120273D01*
G37*
G36*
X146573Y82854D02*X159374D01*
X159605Y82872D01*
X159830Y82926D01*
X160044Y83015D01*
X160242Y83136D01*
X160418Y83286D01*
X160430Y83300D01*
X161853Y84723D01*
X162596Y84733D01*
X162794Y84781D01*
X162992Y84733D01*
X163227Y84715D01*
X163930Y84724D01*
X163658Y84492D01*
X163357Y84140D01*
X163115Y83745D01*
X162938Y83317D01*
X162829Y82866D01*
X162793Y82404D01*
X162829Y81942D01*
X162938Y81491D01*
X163115Y81063D01*
X163357Y80668D01*
X163658Y80316D01*
X164010Y80015D01*
X164405Y79773D01*
X164833Y79596D01*
X165284Y79487D01*
X165746Y79451D01*
X166139Y79482D01*
Y77991D01*
X162419Y74271D01*
X155748D01*
X155517Y74253D01*
X155292Y74199D01*
X155078Y74111D01*
X154880Y73989D01*
X154704Y73839D01*
X152460Y71595D01*
X152310Y71419D01*
X152189Y71221D01*
X152100Y71007D01*
X152046Y70782D01*
X152028Y70551D01*
Y64094D01*
X152046Y63863D01*
X152100Y63638D01*
X152189Y63424D01*
X152310Y63226D01*
X152460Y63050D01*
X152467Y63044D01*
X155131Y60380D01*
X155137Y60373D01*
X155313Y60223D01*
X155511Y60102D01*
X155725Y60013D01*
X155950Y59959D01*
X156181Y59941D01*
X166139D01*
Y59398D01*
X156261Y59387D01*
X156108Y59350D01*
X155963Y59290D01*
X155829Y59208D01*
X155710Y59106D01*
X155608Y58987D01*
X155526Y58853D01*
X155466Y58708D01*
X155429Y58555D01*
X155417Y58399D01*
X155429Y52243D01*
X155466Y52090D01*
X155526Y51945D01*
X155608Y51811D01*
X155710Y51692D01*
X155829Y51590D01*
X155963Y51508D01*
X156108Y51448D01*
X156261Y51411D01*
X156417Y51399D01*
X166139Y51410D01*
Y49196D01*
X164997Y49106D01*
X163883Y48839D01*
X162825Y48400D01*
X161848Y47802D01*
X160977Y47058D01*
X160233Y46187D01*
X159635Y45210D01*
X159196Y44152D01*
X158929Y43038D01*
X158839Y41896D01*
X158929Y40754D01*
X159196Y39640D01*
X159635Y38582D01*
X160233Y37605D01*
X160977Y36734D01*
X161848Y35990D01*
X162825Y35392D01*
X163883Y34953D01*
X164997Y34686D01*
X166139Y34596D01*
Y0D01*
X146573D01*
Y52480D01*
X147277Y52535D01*
X147964Y52700D01*
X148616Y52970D01*
X149218Y53339D01*
X149755Y53798D01*
X150214Y54335D01*
X150583Y54937D01*
X150853Y55589D01*
X151018Y56276D01*
X151073Y56980D01*
X151018Y57684D01*
X150853Y58371D01*
X150583Y59023D01*
X150214Y59625D01*
X149755Y60162D01*
X149218Y60621D01*
X148616Y60990D01*
X147964Y61260D01*
X147277Y61425D01*
X146573Y61480D01*
Y82854D01*
G37*
G36*
X136611Y52483D02*X137277Y52535D01*
X137964Y52700D01*
X138616Y52970D01*
X139218Y53339D01*
X139755Y53798D01*
X140214Y54335D01*
X140583Y54937D01*
X140853Y55589D01*
X141018Y56276D01*
X141073Y56980D01*
X141018Y57684D01*
X140853Y58371D01*
X140583Y59023D01*
X140214Y59625D01*
X139755Y60162D01*
X139218Y60621D01*
X138616Y60990D01*
X137964Y61260D01*
X137277Y61425D01*
X137136Y61436D01*
X136611Y61961D01*
Y82854D01*
X146573D01*
Y61480D01*
X145869Y61425D01*
X145182Y61260D01*
X144530Y60990D01*
X143928Y60621D01*
X143391Y60162D01*
X142932Y59625D01*
X142563Y59023D01*
X142293Y58371D01*
X142128Y57684D01*
X142073Y56980D01*
X142128Y56276D01*
X142293Y55589D01*
X142563Y54937D01*
X142932Y54335D01*
X143391Y53798D01*
X143928Y53339D01*
X144530Y52970D01*
X145182Y52700D01*
X145869Y52535D01*
X146573Y52480D01*
Y0D01*
X136611D01*
Y34596D01*
X137753Y34686D01*
X138867Y34953D01*
X139925Y35392D01*
X140902Y35990D01*
X141773Y36734D01*
X142517Y37605D01*
X143115Y38582D01*
X143554Y39640D01*
X143821Y40754D01*
X143911Y41896D01*
X143821Y43038D01*
X143554Y44152D01*
X143115Y45210D01*
X142517Y46187D01*
X141773Y47058D01*
X140902Y47802D01*
X139925Y48400D01*
X138867Y48839D01*
X137753Y49106D01*
X136611Y49196D01*
Y52483D01*
G37*
G36*
Y61961D02*X133026Y65546D01*
X132762Y65771D01*
X132465Y65953D01*
X132144Y66087D01*
X131805Y66168D01*
X131458Y66196D01*
X131446Y66195D01*
X104895D01*
X104882Y66196D01*
X104535Y66169D01*
X104196Y66088D01*
X103874Y65954D01*
X103577Y65772D01*
X103312Y65546D01*
X93016Y55250D01*
X83673D01*
Y56980D01*
X83714Y57079D01*
X83753Y57239D01*
X83778Y57300D01*
X83832Y57525D01*
X83850Y57756D01*
X83845Y57815D01*
X83859Y57992D01*
X83823Y58454D01*
X83714Y58905D01*
X83673Y59004D01*
Y61374D01*
X85908Y61383D01*
X86137Y61438D01*
X86354Y61528D01*
X86555Y61651D01*
X86734Y61804D01*
X86887Y61983D01*
X87010Y62184D01*
X87100Y62401D01*
X87155Y62630D01*
X87173Y62865D01*
X87155Y66500D01*
X87100Y66729D01*
X87010Y66946D01*
X86887Y67147D01*
X86734Y67326D01*
X86555Y67479D01*
X86354Y67602D01*
X86137Y67692D01*
X86083Y67705D01*
X86326Y67989D01*
X86568Y68384D01*
X86745Y68812D01*
X86854Y69263D01*
X86890Y69725D01*
X86854Y70187D01*
X86745Y70638D01*
X86568Y71066D01*
X86326Y71461D01*
X86025Y71813D01*
X85673Y72114D01*
X85278Y72356D01*
X84850Y72533D01*
X84399Y72642D01*
X83937Y72678D01*
X83673Y72657D01*
Y86372D01*
X85159Y84886D01*
X85125Y84802D01*
X85089Y84652D01*
X85077Y84498D01*
X85089Y80544D01*
X85125Y80394D01*
X85184Y80251D01*
X85265Y80120D01*
X85300Y80079D01*
X85265Y80037D01*
X85184Y79906D01*
X85125Y79763D01*
X85089Y79613D01*
X85077Y79459D01*
X85089Y75505D01*
X85125Y75355D01*
X85184Y75212D01*
X85265Y75081D01*
X85365Y74963D01*
X85483Y74863D01*
X85614Y74782D01*
X85757Y74723D01*
X85907Y74687D01*
X86061Y74675D01*
X89047Y74687D01*
X89197Y74723D01*
X89340Y74782D01*
X89471Y74863D01*
X89589Y74963D01*
X89689Y75081D01*
X89770Y75212D01*
X89829Y75355D01*
X89865Y75505D01*
X89877Y75659D01*
X89865Y79613D01*
X89829Y79763D01*
X89770Y79906D01*
X89689Y80037D01*
X89654Y80078D01*
X89689Y80120D01*
X89770Y80251D01*
X89829Y80394D01*
X89865Y80544D01*
X89877Y80698D01*
X89865Y84652D01*
X89829Y84802D01*
X89770Y84945D01*
X89689Y85076D01*
X89589Y85194D01*
X89471Y85294D01*
X89340Y85375D01*
X89197Y85434D01*
X89047Y85470D01*
X88893Y85482D01*
X88683Y85481D01*
X88635Y85559D01*
X88485Y85735D01*
X88478Y85741D01*
X85031Y89188D01*
X85027Y89579D01*
X84991Y89729D01*
X84954Y89818D01*
X84991Y89907D01*
X85027Y90057D01*
X85039Y90211D01*
X85029Y91295D01*
X89584D01*
X89166Y91194D01*
X88738Y91017D01*
X88343Y90775D01*
X87991Y90474D01*
X87690Y90122D01*
X87448Y89727D01*
X87271Y89299D01*
X87162Y88848D01*
X87126Y88386D01*
X87162Y87924D01*
X87271Y87473D01*
X87448Y87045D01*
X87690Y86650D01*
X87991Y86298D01*
X88343Y85997D01*
X88738Y85755D01*
X89166Y85578D01*
X89617Y85469D01*
X90079Y85433D01*
X90541Y85469D01*
X90992Y85578D01*
X91420Y85755D01*
X91815Y85997D01*
X91835Y86014D01*
Y85470D01*
X91741D01*
X91591Y85434D01*
X91448Y85375D01*
X91317Y85294D01*
X91199Y85194D01*
X91099Y85076D01*
X91018Y84945D01*
X90959Y84802D01*
X90923Y84652D01*
X90911Y84498D01*
X90923Y80544D01*
X90959Y80394D01*
X91018Y80251D01*
X91099Y80120D01*
X91134Y80079D01*
X91099Y80037D01*
X91018Y79906D01*
X90959Y79763D01*
X90923Y79613D01*
X90911Y79459D01*
X90923Y75505D01*
X90959Y75355D01*
X91018Y75212D01*
X91099Y75081D01*
X91199Y74963D01*
X91317Y74863D01*
X91448Y74782D01*
X91591Y74723D01*
X91741Y74687D01*
X91895Y74675D01*
X94881Y74687D01*
X95031Y74723D01*
X95174Y74782D01*
X95305Y74863D01*
X95423Y74963D01*
X95523Y75081D01*
X95604Y75212D01*
X95663Y75355D01*
X95699Y75505D01*
X95711Y75659D01*
Y75690D01*
X95879Y75760D01*
X96077Y75881D01*
X96253Y76031D01*
X96403Y76207D01*
X96524Y76405D01*
X96613Y76619D01*
X96667Y76844D01*
X96685Y77075D01*
Y77433D01*
X99298Y80046D01*
X99312Y80058D01*
X99462Y80234D01*
X99584Y80432D01*
X99672Y80646D01*
X99726Y80871D01*
X99744Y81102D01*
Y87091D01*
X102632Y84203D01*
X102640Y82324D01*
X102676Y82174D01*
X102735Y82031D01*
X102816Y81900D01*
X102916Y81782D01*
X103034Y81682D01*
X103165Y81601D01*
X103308Y81542D01*
X103458Y81506D01*
X103612Y81494D01*
X107566Y81506D01*
X107716Y81542D01*
X107859Y81601D01*
X107990Y81682D01*
X108108Y81782D01*
X108208Y81900D01*
X108289Y82031D01*
X108348Y82174D01*
X108384Y82324D01*
X108396Y82478D01*
X108395Y82839D01*
X108407Y82850D01*
X108557Y83026D01*
X108587Y83075D01*
X109810Y84298D01*
X109824Y84310D01*
X109974Y84486D01*
X110096Y84684D01*
X110184Y84898D01*
X110238Y85123D01*
X110256Y85354D01*
Y101890D01*
X110238Y102121D01*
X110184Y102346D01*
X110095Y102560D01*
X109974Y102758D01*
X109824Y102934D01*
X109648Y103084D01*
X109450Y103205D01*
X109236Y103294D01*
X109011Y103348D01*
X108780Y103366D01*
X108326D01*
Y106518D01*
X108353Y106453D01*
X108595Y106058D01*
X108896Y105706D01*
X109248Y105405D01*
X109643Y105163D01*
X110071Y104986D01*
X110522Y104877D01*
X110984Y104841D01*
X111446Y104877D01*
X111897Y104986D01*
X112325Y105163D01*
X112707Y105397D01*
X112712Y101222D01*
X112749Y101069D01*
X112809Y100924D01*
X112891Y100790D01*
X112993Y100671D01*
X113112Y100569D01*
X113246Y100487D01*
X113391Y100427D01*
X113544Y100390D01*
X113700Y100378D01*
X116938Y100384D01*
X119934Y97388D01*
X119940Y97381D01*
X120116Y97231D01*
X120314Y97110D01*
X120528Y97021D01*
X120753Y96967D01*
X120984Y96949D01*
X131535D01*
X131766Y96967D01*
X131991Y97021D01*
X132205Y97110D01*
X132403Y97231D01*
X132579Y97381D01*
X132591Y97395D01*
X134061Y98865D01*
X134075Y98877D01*
X134225Y99053D01*
X134347Y99251D01*
X134435Y99465D01*
X134489Y99690D01*
X134507Y99921D01*
Y118169D01*
X136611Y120273D01*
Y85806D01*
X131198D01*
X119475Y97415D01*
X119470Y97421D01*
X119294Y97571D01*
X119289Y97574D01*
X119288Y97575D01*
X119226Y97613D01*
X119096Y97692D01*
X119093Y97693D01*
X119090Y97695D01*
X119019Y97724D01*
X118882Y97781D01*
X118657Y97835D01*
X118654D01*
X118651Y97836D01*
X118508Y97846D01*
X118426Y97853D01*
X115855D01*
X115696Y98113D01*
X115395Y98465D01*
X115043Y98766D01*
X114648Y99008D01*
X114220Y99185D01*
X113769Y99294D01*
X113307Y99330D01*
X112845Y99294D01*
X112394Y99185D01*
X111966Y99008D01*
X111571Y98766D01*
X111219Y98465D01*
X110918Y98113D01*
X110676Y97718D01*
X110499Y97290D01*
X110390Y96839D01*
X110354Y96377D01*
X110390Y95915D01*
X110499Y95464D01*
X110676Y95036D01*
X110918Y94641D01*
X111219Y94289D01*
X111571Y93988D01*
X111966Y93746D01*
X112394Y93569D01*
X112845Y93460D01*
X113307Y93424D01*
X113769Y93460D01*
X114220Y93569D01*
X114648Y93746D01*
X115043Y93988D01*
X115395Y94289D01*
X115696Y94641D01*
X115855Y94901D01*
X117819D01*
X128743Y84083D01*
X128793Y83874D01*
X128882Y83660D01*
X129003Y83462D01*
X129153Y83286D01*
X129329Y83136D01*
X129527Y83015D01*
X129741Y82926D01*
X129966Y82872D01*
X130197Y82854D01*
X136611D01*
Y61961D01*
G37*
G36*
X126573Y61757D02*X130537D01*
X132832Y59462D01*
X132563Y59023D01*
X132293Y58371D01*
X132128Y57684D01*
X132073Y56980D01*
X132128Y56276D01*
X132293Y55589D01*
X132563Y54937D01*
X132932Y54335D01*
X133391Y53798D01*
X133928Y53339D01*
X134530Y52970D01*
X135182Y52700D01*
X135869Y52535D01*
X136573Y52480D01*
X136611Y52483D01*
Y49196D01*
X135469Y49106D01*
X134355Y48839D01*
X133297Y48400D01*
X132320Y47802D01*
X131449Y47058D01*
X130705Y46187D01*
X130107Y45210D01*
X129668Y44152D01*
X129401Y43038D01*
X129311Y41896D01*
X129401Y40754D01*
X129668Y39640D01*
X130107Y38582D01*
X130705Y37605D01*
X131449Y36734D01*
X132320Y35990D01*
X133297Y35392D01*
X134355Y34953D01*
X135469Y34686D01*
X136611Y34596D01*
Y0D01*
X126573D01*
Y52489D01*
X129808Y52498D01*
X130037Y52553D01*
X130254Y52643D01*
X130455Y52766D01*
X130634Y52919D01*
X130787Y53098D01*
X130910Y53299D01*
X131000Y53516D01*
X131055Y53745D01*
X131073Y53980D01*
X131055Y60215D01*
X131000Y60444D01*
X130910Y60661D01*
X130787Y60862D01*
X130634Y61041D01*
X130455Y61194D01*
X130254Y61317D01*
X130037Y61407D01*
X129808Y61462D01*
X129573Y61480D01*
X126573Y61471D01*
Y61757D01*
G37*
G36*
X83673Y50812D02*X93937D01*
X94284Y50839D01*
X94623Y50921D01*
X94944Y51054D01*
X95241Y51236D01*
X95506Y51462D01*
X105801Y61757D01*
X126573D01*
Y61471D01*
X123338Y61462D01*
X123109Y61407D01*
X122892Y61317D01*
X122691Y61194D01*
X122512Y61041D01*
X122359Y60862D01*
X122236Y60661D01*
X122146Y60444D01*
X122091Y60215D01*
X122073Y59980D01*
X122091Y53745D01*
X122146Y53516D01*
X122236Y53299D01*
X122359Y53098D01*
X122512Y52919D01*
X122691Y52766D01*
X122892Y52643D01*
X123109Y52553D01*
X123338Y52498D01*
X123573Y52480D01*
X126573Y52489D01*
Y0D01*
X104331D01*
Y31496D01*
X83673D01*
Y50812D01*
G37*
G36*
Y59004D02*X83537Y59333D01*
X83295Y59728D01*
X82994Y60080D01*
X82642Y60381D01*
X82247Y60623D01*
X81819Y60800D01*
X81368Y60909D01*
X80906Y60945D01*
X80444Y60909D01*
X80148Y60837D01*
X79278Y61707D01*
X79272Y61714D01*
X79096Y61864D01*
X78974Y61939D01*
X78958Y61949D01*
X78955Y62600D01*
X78900Y62829D01*
X78810Y63046D01*
X78687Y63247D01*
X78534Y63426D01*
X78355Y63579D01*
X78154Y63702D01*
X77937Y63792D01*
X77708Y63847D01*
X77473Y63865D01*
X75473Y63856D01*
Y65274D01*
X77708Y65283D01*
X77937Y65338D01*
X78154Y65428D01*
X78355Y65551D01*
X78534Y65704D01*
X78687Y65883D01*
X78810Y66084D01*
X78900Y66301D01*
X78955Y66530D01*
X78973Y66765D01*
X78955Y70400D01*
X78900Y70629D01*
X78810Y70846D01*
X78687Y71047D01*
X78534Y71226D01*
X78355Y71379D01*
X78154Y71502D01*
X77937Y71592D01*
X77708Y71647D01*
X77501Y71663D01*
X77625Y71808D01*
X77867Y72203D01*
X78044Y72631D01*
X78153Y73082D01*
X78189Y73544D01*
X78153Y74006D01*
X78044Y74457D01*
X77867Y74885D01*
X77625Y75280D01*
X77324Y75632D01*
X76972Y75933D01*
X76577Y76175D01*
X76149Y76352D01*
X75698Y76461D01*
X75473Y76479D01*
Y86122D01*
X76221D01*
X76452Y86140D01*
X76677Y86194D01*
X76891Y86283D01*
X77089Y86404D01*
X77265Y86554D01*
X77277Y86568D01*
X79299Y88590D01*
X79303Y88089D01*
X79339Y87939D01*
X79398Y87796D01*
X79479Y87665D01*
X79579Y87547D01*
X79697Y87447D01*
X79828Y87366D01*
X79971Y87307D01*
X80121Y87271D01*
X80275Y87259D01*
X82778Y87267D01*
X83673Y86372D01*
Y72657D01*
X83475Y72642D01*
X83024Y72533D01*
X82596Y72356D01*
X82201Y72114D01*
X81849Y71813D01*
X81548Y71461D01*
X81306Y71066D01*
X81129Y70638D01*
X81020Y70187D01*
X80984Y69725D01*
X81020Y69263D01*
X81129Y68812D01*
X81306Y68384D01*
X81548Y67989D01*
X81754Y67748D01*
X81438Y67747D01*
X81209Y67692D01*
X80992Y67602D01*
X80791Y67479D01*
X80612Y67326D01*
X80459Y67147D01*
X80336Y66946D01*
X80246Y66729D01*
X80191Y66500D01*
X80173Y66265D01*
X80191Y62630D01*
X80246Y62401D01*
X80336Y62184D01*
X80459Y61983D01*
X80612Y61804D01*
X80791Y61651D01*
X80992Y61528D01*
X81209Y61438D01*
X81438Y61383D01*
X81673Y61365D01*
X83673Y61374D01*
Y59004D01*
G37*
G36*
Y55250D02*X81979D01*
X82247Y55361D01*
X82642Y55603D01*
X82994Y55904D01*
X83295Y56256D01*
X83537Y56651D01*
X83673Y56980D01*
Y55250D01*
G37*
G36*
X75473Y50812D02*X83673D01*
Y31496D01*
X75473D01*
Y50812D01*
G37*
G36*
Y176408D02*X75622Y176651D01*
X75799Y177079D01*
X75908Y177530D01*
X75944Y177992D01*
X75908Y178454D01*
X75799Y178905D01*
X75622Y179333D01*
X75533Y179478D01*
X76853Y179484D01*
X82748Y173589D01*
X80403Y173580D01*
X80253Y173544D01*
X80110Y173485D01*
X79979Y173404D01*
X79861Y173304D01*
X79761Y173186D01*
X79680Y173055D01*
X79621Y172912D01*
X79585Y172762D01*
X79573Y172608D01*
X79585Y168654D01*
X79621Y168504D01*
X79680Y168361D01*
X79761Y168230D01*
X79861Y168112D01*
X79979Y168012D01*
X80110Y167931D01*
X80253Y167872D01*
X80403Y167836D01*
X80557Y167824D01*
X82279Y167831D01*
X82558Y167552D01*
X82557D01*
X82162Y167310D01*
X81810Y167009D01*
X81509Y166657D01*
X81267Y166262D01*
X81090Y165834D01*
X80981Y165383D01*
X80945Y164921D01*
X80981Y164459D01*
X81090Y164008D01*
X81267Y163580D01*
X81509Y163185D01*
X81810Y162833D01*
X82154Y162539D01*
X80314D01*
X80303Y163754D01*
X80267Y163904D01*
X80230Y163993D01*
X80267Y164082D01*
X80303Y164232D01*
X80315Y164386D01*
X80303Y165722D01*
X80267Y165872D01*
X80208Y166015D01*
X80127Y166146D01*
X80027Y166264D01*
X79909Y166364D01*
X79778Y166445D01*
X79635Y166504D01*
X79485Y166540D01*
X79331Y166552D01*
X75473Y166540D01*
Y167827D01*
X77709Y167836D01*
X77859Y167872D01*
X78002Y167931D01*
X78133Y168012D01*
X78251Y168112D01*
X78351Y168230D01*
X78432Y168361D01*
X78491Y168504D01*
X78527Y168654D01*
X78539Y168808D01*
X78527Y172762D01*
X78491Y172912D01*
X78432Y173055D01*
X78351Y173186D01*
X78251Y173304D01*
X78133Y173404D01*
X78002Y173485D01*
X77859Y173544D01*
X77709Y173580D01*
X77555Y173592D01*
X75473Y173584D01*
Y176408D01*
G37*
G36*
Y187278D02*X78297Y187290D01*
X78526Y187345D01*
X78743Y187435D01*
X78944Y187558D01*
X79123Y187711D01*
X79276Y187890D01*
X79399Y188091D01*
X79489Y188308D01*
X79544Y188537D01*
X79562Y188772D01*
X79548Y191572D01*
X80948Y192972D01*
X82287D01*
X82139Y192799D01*
X81897Y192404D01*
X81720Y191976D01*
X81611Y191525D01*
X81575Y191063D01*
X81611Y190601D01*
X81720Y190150D01*
X81897Y189723D01*
X81798Y189699D01*
X81581Y189609D01*
X81380Y189486D01*
X81201Y189333D01*
X81048Y189154D01*
X80925Y188953D01*
X80835Y188736D01*
X80780Y188507D01*
X80762Y188272D01*
X80780Y184637D01*
X80835Y184408D01*
X80925Y184191D01*
X81048Y183990D01*
X81201Y183811D01*
X81380Y183658D01*
X81581Y183535D01*
X81798Y183445D01*
X82027Y183390D01*
X82262Y183372D01*
X86497Y183390D01*
X86726Y183445D01*
X86943Y183535D01*
X87144Y183658D01*
X87323Y183811D01*
X87476Y183990D01*
X87599Y184191D01*
X87689Y184408D01*
X87744Y184637D01*
X87762Y184872D01*
X87744Y188507D01*
X87689Y188736D01*
X87599Y188953D01*
X87476Y189154D01*
X87323Y189333D01*
X87144Y189486D01*
X87050Y189544D01*
X87159Y189722D01*
X87336Y190150D01*
X87445Y190601D01*
X87481Y191063D01*
X87445Y191525D01*
X87336Y191976D01*
X87159Y192404D01*
X86917Y192799D01*
X86769Y192972D01*
X89074D01*
X89075Y192971D01*
Y185118D01*
X89093Y184887D01*
X89147Y184662D01*
X89236Y184448D01*
X89357Y184250D01*
X89507Y184074D01*
X89514Y184068D01*
X101082Y172500D01*
X101259Y172349D01*
X101357Y172289D01*
X131516Y142130D01*
Y126770D01*
X131177Y126562D01*
X130825Y126261D01*
X130524Y125909D01*
X130282Y125514D01*
X130105Y125086D01*
X129996Y124635D01*
X129960Y124173D01*
X129996Y123711D01*
X130105Y123260D01*
X130282Y122832D01*
X130524Y122437D01*
X130825Y122085D01*
X131177Y121784D01*
X131572Y121542D01*
X132000Y121365D01*
X132451Y121256D01*
X132913Y121220D01*
X133375Y121256D01*
X133434Y121270D01*
X132196Y120032D01*
X132163Y120012D01*
X131987Y119862D01*
X131837Y119686D01*
X131716Y119488D01*
X131627Y119274D01*
X131573Y119049D01*
X131555Y118818D01*
Y112604D01*
X131420Y112614D01*
X129896Y112611D01*
Y113692D01*
X129972Y113782D01*
X130053Y113913D01*
X130112Y114056D01*
X130148Y114206D01*
X130160Y114360D01*
X130148Y118314D01*
X130112Y118464D01*
X130053Y118607D01*
X129972Y118738D01*
X129872Y118856D01*
X129754Y118956D01*
X129623Y119037D01*
X129480Y119096D01*
X129330Y119132D01*
X129176Y119144D01*
X126190Y119132D01*
X126040Y119096D01*
X125897Y119037D01*
X125766Y118956D01*
X125648Y118856D01*
X125548Y118738D01*
X125467Y118607D01*
X125408Y118464D01*
X125372Y118314D01*
X125360Y118160D01*
X125372Y114206D01*
X125408Y114056D01*
X125467Y113913D01*
X125548Y113782D01*
X125648Y113664D01*
X125766Y113564D01*
X125897Y113483D01*
X126040Y113424D01*
X126190Y113388D01*
X126344Y113376D01*
X126944Y113378D01*
Y112605D01*
X125264Y112602D01*
X125111Y112565D01*
X124966Y112505D01*
X124832Y112423D01*
X124713Y112321D01*
X124611Y112202D01*
X124529Y112068D01*
X124469Y111923D01*
X124432Y111770D01*
X124420Y111614D01*
X124432Y101222D01*
X124469Y101069D01*
X124529Y100924D01*
X124611Y100790D01*
X124713Y100671D01*
X124832Y100569D01*
X124966Y100487D01*
X125111Y100427D01*
X125264Y100390D01*
X125420Y100378D01*
X131412Y100390D01*
X130923Y99901D01*
X121595D01*
X120584Y100912D01*
X120591Y100924D01*
X120651Y101069D01*
X120688Y101222D01*
X120700Y101378D01*
X120688Y111770D01*
X120651Y111923D01*
X120591Y112068D01*
X120509Y112202D01*
X120407Y112321D01*
X120288Y112423D01*
X120154Y112505D01*
X120009Y112565D01*
X119856Y112602D01*
X119700Y112614D01*
X113544Y112602D01*
X113391Y112565D01*
X113246Y112505D01*
X113112Y112423D01*
X112993Y112321D01*
X112891Y112202D01*
X112809Y112068D01*
X112749Y111923D01*
X112712Y111770D01*
X112700Y111614D01*
X112702Y110194D01*
X112325Y110425D01*
X111897Y110602D01*
X111446Y110711D01*
X110984Y110747D01*
X110522Y110711D01*
X110071Y110602D01*
X109643Y110425D01*
X109248Y110183D01*
X108896Y109882D01*
X108595Y109530D01*
X108353Y109135D01*
X108326Y109070D01*
Y109349D01*
X112706Y113729D01*
X113003Y113657D01*
X113465Y113621D01*
X113927Y113657D01*
X114378Y113766D01*
X114806Y113943D01*
X115201Y114185D01*
X115553Y114486D01*
X115854Y114838D01*
X116013Y115098D01*
X119535D01*
X119538Y114206D01*
X119574Y114056D01*
X119633Y113913D01*
X119714Y113782D01*
X119814Y113664D01*
X119932Y113564D01*
X120063Y113483D01*
X120206Y113424D01*
X120356Y113388D01*
X120510Y113376D01*
X123496Y113388D01*
X123646Y113424D01*
X123789Y113483D01*
X123920Y113564D01*
X124038Y113664D01*
X124138Y113782D01*
X124219Y113913D01*
X124278Y114056D01*
X124314Y114206D01*
X124326Y114360D01*
X124314Y118314D01*
X124278Y118464D01*
X124219Y118607D01*
X124138Y118738D01*
X124038Y118856D01*
X123920Y118956D01*
X123789Y119037D01*
X123646Y119096D01*
X123496Y119132D01*
X123342Y119144D01*
X121920Y119138D01*
X121933Y119146D01*
X122285Y119447D01*
X122586Y119799D01*
X122655Y119912D01*
X122752Y119920D01*
X122977Y119974D01*
X123191Y120062D01*
X123388Y120184D01*
X123564Y120334D01*
X123570Y120341D01*
X125380Y122151D01*
X125394Y122163D01*
X125544Y122339D01*
X125666Y122537D01*
X125754Y122751D01*
X125808Y122976D01*
X125826Y123207D01*
Y131790D01*
X125808Y132021D01*
X125754Y132246D01*
X125665Y132460D01*
X125544Y132658D01*
X125394Y132834D01*
X125218Y132984D01*
X125020Y133105D01*
X124954Y133132D01*
X113996Y144001D01*
Y157992D01*
X113978Y158223D01*
X113924Y158448D01*
X113909Y158484D01*
X113903Y158509D01*
X113815Y158723D01*
X113693Y158920D01*
X113543Y159096D01*
X101170Y171469D01*
X101164Y171476D01*
X100988Y171626D01*
X100866Y171701D01*
X100791Y171747D01*
X100702Y171784D01*
X100576Y171836D01*
X100351Y171890D01*
X100139Y171907D01*
X100121Y171908D01*
X88603D01*
X79560Y180951D01*
X79562Y180972D01*
X79544Y184607D01*
X79489Y184836D01*
X79399Y185053D01*
X79276Y185254D01*
X79123Y185433D01*
X78944Y185586D01*
X78743Y185709D01*
X78526Y185799D01*
X78297Y185854D01*
X78062Y185872D01*
X75473Y185861D01*
Y187278D01*
G37*
G36*
Y224409D02*X166139D01*
Y187016D01*
X165990Y187027D01*
X159834Y187015D01*
X159681Y186978D01*
X159536Y186918D01*
X159402Y186836D01*
X159283Y186734D01*
X159181Y186615D01*
X159099Y186481D01*
X159039Y186336D01*
X159002Y186183D01*
X158990Y186027D01*
X158992Y184434D01*
X158973D01*
Y184528D01*
X158937Y184678D01*
X158878Y184821D01*
X158797Y184952D01*
X158697Y185070D01*
X158579Y185170D01*
X158448Y185251D01*
X158305Y185310D01*
X158155Y185346D01*
X158001Y185358D01*
X154047Y185346D01*
X153897Y185310D01*
X153754Y185251D01*
X153623Y185170D01*
X153505Y185070D01*
X153405Y184952D01*
X153324Y184821D01*
X153265Y184678D01*
X153229Y184528D01*
X153217Y184374D01*
X153229Y181388D01*
X153265Y181238D01*
X153324Y181095D01*
X153405Y180964D01*
X153505Y180846D01*
X153623Y180746D01*
X153754Y180665D01*
X153897Y180606D01*
X154047Y180570D01*
X154201Y180558D01*
X158155Y180570D01*
X158305Y180606D01*
X158448Y180665D01*
X158579Y180746D01*
X158697Y180846D01*
X158797Y180964D01*
X158878Y181095D01*
X158937Y181238D01*
X158973Y181388D01*
X158980Y181482D01*
X158995D01*
X159002Y175635D01*
X159039Y175482D01*
X159099Y175337D01*
X159181Y175203D01*
X159283Y175084D01*
X159402Y174982D01*
X159536Y174900D01*
X159681Y174840D01*
X159834Y174803D01*
X159990Y174791D01*
X166139Y174803D01*
Y172881D01*
X165991Y172892D01*
X159835Y172880D01*
X159682Y172843D01*
X159537Y172783D01*
X159403Y172701D01*
X159284Y172599D01*
X159182Y172480D01*
X159100Y172346D01*
X159040Y172201D01*
X159003Y172048D01*
X158991Y171892D01*
X159003Y161500D01*
X159040Y161347D01*
X159100Y161202D01*
X159182Y161068D01*
X159284Y160949D01*
X159403Y160847D01*
X159537Y160765D01*
X159682Y160705D01*
X159835Y160668D01*
X159991Y160656D01*
X161354Y160659D01*
Y159332D01*
X161260D01*
X161110Y159296D01*
X160967Y159237D01*
X160836Y159156D01*
X160718Y159056D01*
X160618Y158938D01*
X160537Y158807D01*
X160478Y158664D01*
X160442Y158514D01*
X160430Y158360D01*
X160442Y154406D01*
X160478Y154256D01*
X160537Y154113D01*
X160618Y153982D01*
X160718Y153864D01*
X160836Y153764D01*
X160967Y153683D01*
X161110Y153624D01*
X161260Y153588D01*
X161414Y153576D01*
X164059Y153587D01*
X162736Y152264D01*
X162684Y152202D01*
X162586Y152088D01*
X162465Y151891D01*
X162458Y151873D01*
X157093Y157238D01*
Y174733D01*
X158155Y174736D01*
X158305Y174772D01*
X158448Y174831D01*
X158579Y174912D01*
X158697Y175012D01*
X158797Y175130D01*
X158878Y175261D01*
X158937Y175404D01*
X158973Y175554D01*
X158985Y175708D01*
X158973Y178694D01*
X158937Y178844D01*
X158878Y178987D01*
X158797Y179118D01*
X158697Y179236D01*
X158579Y179336D01*
X158448Y179417D01*
X158305Y179476D01*
X158155Y179512D01*
X158001Y179524D01*
X154047Y179512D01*
X153897Y179476D01*
X153754Y179417D01*
X153623Y179336D01*
X153505Y179236D01*
X153405Y179118D01*
X153324Y178987D01*
X153265Y178844D01*
X153229Y178694D01*
X153217Y178540D01*
X153229Y175554D01*
X153265Y175404D01*
X153324Y175261D01*
X153405Y175130D01*
X153505Y175012D01*
X153623Y174912D01*
X153754Y174831D01*
X153897Y174772D01*
X154047Y174736D01*
X154141Y174729D01*
Y156627D01*
X154159Y156396D01*
X154213Y156171D01*
X154302Y155957D01*
X154423Y155759D01*
X154573Y155583D01*
X154580Y155577D01*
X160333Y149824D01*
Y142762D01*
X160197Y142646D01*
X160044Y142467D01*
X159921Y142266D01*
X159831Y142049D01*
X159776Y141820D01*
X159758Y141585D01*
X159776Y135350D01*
X159831Y135121D01*
X159921Y134904D01*
X160044Y134703D01*
X160197Y134524D01*
X160374Y134373D01*
Y130590D01*
X160382Y130492D01*
X160385Y130415D01*
X160391Y130386D01*
X160393Y130358D01*
X160410Y130287D01*
X160430Y130188D01*
X160443Y130152D01*
X160448Y130133D01*
X160470Y130080D01*
X160510Y129971D01*
X160527Y129940D01*
X160536Y129919D01*
X160577Y129852D01*
X160624Y129769D01*
X160643Y129745D01*
X160657Y129722D01*
X160709Y129661D01*
X160767Y129588D01*
X160792Y129565D01*
X160808Y129546D01*
X160857Y129504D01*
X160937Y129430D01*
X160968Y129410D01*
X160984Y129396D01*
X161042Y129361D01*
X161130Y129302D01*
X164798Y127255D01*
X164481Y127178D01*
X164053Y127001D01*
X163658Y126759D01*
X163306Y126458D01*
X163005Y126106D01*
X162763Y125711D01*
X162586Y125283D01*
X162477Y124832D01*
X162441Y124370D01*
X162477Y123908D01*
X162548Y123612D01*
X158523Y119587D01*
X158373Y119411D01*
X158252Y119213D01*
X158163Y118999D01*
X158109Y118774D01*
X158091Y118543D01*
Y105100D01*
X156376Y103385D01*
X156370Y103859D01*
X156322Y104057D01*
X156370Y104255D01*
X156388Y104490D01*
X156370Y105827D01*
X156322Y106026D01*
X156370Y106224D01*
X156388Y106459D01*
X156370Y107796D01*
X156322Y107994D01*
X156370Y108192D01*
X156388Y108427D01*
X156370Y109764D01*
X156322Y109963D01*
X156370Y110161D01*
X156388Y110396D01*
X156370Y111733D01*
X156322Y111931D01*
X156370Y112129D01*
X156388Y112364D01*
X156370Y113701D01*
X156322Y113900D01*
X156370Y114098D01*
X156388Y114333D01*
X156370Y115670D01*
X156322Y115868D01*
X156370Y116066D01*
X156388Y116301D01*
X156370Y117638D01*
X156322Y117837D01*
X156370Y118035D01*
X156388Y118270D01*
X156370Y119607D01*
X156322Y119805D01*
X156370Y120003D01*
X156388Y120238D01*
X156370Y121575D01*
X156322Y121774D01*
X156370Y121972D01*
X156388Y122207D01*
X156370Y123544D01*
X156322Y123742D01*
X156370Y123940D01*
X156388Y124175D01*
X156374Y125219D01*
X156499D01*
X156730Y125237D01*
X156955Y125291D01*
X157169Y125380D01*
X157367Y125501D01*
X157543Y125651D01*
X157555Y125665D01*
X159495Y127605D01*
X159509Y127617D01*
X159659Y127793D01*
X159781Y127991D01*
X159869Y128205D01*
X159923Y128430D01*
X159941Y128661D01*
Y134528D01*
X159940Y134546D01*
X159923Y134758D01*
X159869Y134983D01*
X159817Y135109D01*
X159780Y135198D01*
X159734Y135273D01*
X159659Y135395D01*
X159552Y135520D01*
X159610Y135758D01*
X159646Y136220D01*
X159610Y136682D01*
X159501Y137133D01*
X159324Y137561D01*
X159082Y137956D01*
X158781Y138308D01*
X158429Y138609D01*
X158034Y138851D01*
X157606Y139028D01*
X157155Y139137D01*
X156693Y139173D01*
X156231Y139137D01*
X155780Y139028D01*
X155352Y138851D01*
X154957Y138609D01*
X154605Y138308D01*
X154304Y137956D01*
X154062Y137561D01*
X153885Y137133D01*
X153776Y136682D01*
X153740Y136220D01*
X153776Y135758D01*
X153885Y135307D01*
X154062Y134879D01*
X154304Y134484D01*
X154605Y134132D01*
X154957Y133831D01*
X155352Y133589D01*
X155780Y133412D01*
X156231Y133303D01*
X156693Y133267D01*
X156989Y133290D01*
Y129273D01*
X156381Y128665D01*
X156370Y129449D01*
X156315Y129678D01*
X156225Y129895D01*
X156102Y130096D01*
X155949Y130275D01*
X155770Y130428D01*
X155569Y130551D01*
X155352Y130641D01*
X155123Y130696D01*
X154888Y130714D01*
X154750D01*
X154795Y130787D01*
X154972Y131215D01*
X155081Y131666D01*
X155117Y132128D01*
X155081Y132590D01*
X154972Y133041D01*
X154795Y133469D01*
X154553Y133864D01*
X154252Y134216D01*
X153900Y134517D01*
X153505Y134759D01*
X153077Y134936D01*
X152626Y135045D01*
X152164Y135081D01*
X151702Y135045D01*
X151251Y134936D01*
X150823Y134759D01*
X150428Y134517D01*
X150076Y134216D01*
X149775Y133864D01*
X149533Y133469D01*
X149356Y133041D01*
X149247Y132590D01*
X149211Y132128D01*
X149247Y131666D01*
X149356Y131215D01*
X149533Y130787D01*
X149587Y130699D01*
X148653Y130696D01*
X148424Y130641D01*
X148207Y130551D01*
X148006Y130428D01*
X147827Y130275D01*
X147674Y130096D01*
X147551Y129895D01*
X147461Y129678D01*
X147406Y129449D01*
X147388Y129214D01*
X147406Y127877D01*
X147454Y127679D01*
X147406Y127481D01*
X147388Y127246D01*
X147401Y126270D01*
X147271Y126272D01*
X147246Y126301D01*
X146894Y126602D01*
X146499Y126844D01*
X146071Y127021D01*
X145620Y127130D01*
X145158Y127166D01*
X144696Y127130D01*
X144245Y127021D01*
X143817Y126844D01*
X143422Y126602D01*
X143070Y126301D01*
X142972Y126186D01*
Y128506D01*
X143151Y128659D01*
X143452Y129011D01*
X143694Y129406D01*
X143871Y129834D01*
X143980Y130285D01*
X144016Y130747D01*
X143980Y131209D01*
X143871Y131660D01*
X143694Y132088D01*
X143452Y132483D01*
X143151Y132835D01*
X142799Y133136D01*
X142404Y133378D01*
X141976Y133555D01*
X141525Y133664D01*
X141063Y133700D01*
X140601Y133664D01*
X140505Y133641D01*
X140752Y133792D01*
X141104Y134093D01*
X141405Y134445D01*
X141647Y134840D01*
X141824Y135268D01*
X141933Y135719D01*
X141969Y136181D01*
X141933Y136643D01*
X141824Y137094D01*
X141647Y137522D01*
X141405Y137917D01*
X141104Y138269D01*
X140752Y138570D01*
X140357Y138812D01*
X139929Y138989D01*
X139478Y139098D01*
X139016Y139134D01*
X138554Y139098D01*
X138103Y138989D01*
X137675Y138812D01*
X137280Y138570D01*
X137027Y138354D01*
Y140020D01*
X140097Y143090D01*
X153397D01*
X153556Y142830D01*
X153857Y142478D01*
X154209Y142177D01*
X154604Y141935D01*
X155032Y141758D01*
X155483Y141649D01*
X155945Y141613D01*
X156407Y141649D01*
X156858Y141758D01*
X157286Y141935D01*
X157681Y142177D01*
X158033Y142478D01*
X158334Y142830D01*
X158576Y143225D01*
X158753Y143653D01*
X158862Y144104D01*
X158898Y144566D01*
X158862Y145028D01*
X158753Y145479D01*
X158576Y145907D01*
X158334Y146302D01*
X158033Y146654D01*
X157681Y146955D01*
X157286Y147197D01*
X156858Y147374D01*
X156407Y147483D01*
X155945Y147519D01*
X155483Y147483D01*
X155032Y147374D01*
X154604Y147197D01*
X154209Y146955D01*
X153857Y146654D01*
X153556Y146302D01*
X153397Y146042D01*
X139487D01*
X139256Y146024D01*
X139031Y145970D01*
X138817Y145882D01*
X138619Y145760D01*
X138443Y145610D01*
X134507Y141674D01*
X134468Y141628D01*
Y142742D01*
X134467Y142760D01*
X134450Y142972D01*
X134396Y143197D01*
X134344Y143323D01*
X134307Y143412D01*
X134261Y143487D01*
X134186Y143609D01*
X134036Y143785D01*
X134029Y143791D01*
X103155Y174665D01*
X102980Y174814D01*
X102880Y174876D01*
X92027Y185729D01*
Y193583D01*
X92026Y193601D01*
X92009Y193813D01*
X91955Y194038D01*
X91903Y194164D01*
X91866Y194253D01*
X91820Y194328D01*
X91745Y194450D01*
X91595Y194626D01*
X91588Y194632D01*
X90735Y195485D01*
X90729Y195492D01*
X90553Y195642D01*
X90431Y195717D01*
X90356Y195763D01*
X90267Y195800D01*
X90141Y195852D01*
X89916Y195906D01*
X89686Y195924D01*
X80338D01*
X80107Y195906D01*
X79882Y195852D01*
X79668Y195764D01*
X79470Y195642D01*
X79294Y195492D01*
X77471Y193669D01*
X75473Y193661D01*
Y224409D01*
G37*
G36*
Y63856D02*X73238Y63847D01*
X73009Y63792D01*
X72792Y63702D01*
X72591Y63579D01*
X72412Y63426D01*
X72259Y63247D01*
X72136Y63046D01*
X72046Y62829D01*
X71991Y62600D01*
X71973Y62365D01*
X71975Y61948D01*
X69863D01*
X62303Y69508D01*
Y70293D01*
X62355Y70208D01*
X62763Y69731D01*
X63240Y69323D01*
X63775Y68995D01*
X64355Y68755D01*
X64965Y68608D01*
X65591Y68559D01*
X66217Y68608D01*
X66827Y68755D01*
X67407Y68995D01*
X67942Y69323D01*
X68419Y69731D01*
X68827Y70208D01*
X69155Y70743D01*
X69395Y71323D01*
X69542Y71933D01*
X69591Y72559D01*
X69542Y73185D01*
X69395Y73795D01*
X69155Y74375D01*
X68827Y74910D01*
X68419Y75387D01*
X67942Y75795D01*
X67407Y76123D01*
X66827Y76363D01*
X66217Y76510D01*
X65591Y76559D01*
X64965Y76510D01*
X64355Y76363D01*
X63775Y76123D01*
X63240Y75795D01*
X62763Y75387D01*
X62355Y74910D01*
X62303Y74825D01*
Y80293D01*
X62355Y80208D01*
X62763Y79731D01*
X63240Y79323D01*
X63775Y78995D01*
X64355Y78755D01*
X64965Y78608D01*
X65591Y78559D01*
X66217Y78608D01*
X66827Y78755D01*
X67407Y78995D01*
X67942Y79323D01*
X68419Y79731D01*
X68827Y80208D01*
X69155Y80743D01*
X69395Y81323D01*
X69542Y81933D01*
X69591Y82559D01*
X69542Y83185D01*
X69395Y83795D01*
X69155Y84375D01*
X68827Y84910D01*
X68419Y85387D01*
X67942Y85795D01*
X67409Y86122D01*
X75473D01*
Y76479D01*
X75236Y76497D01*
X74774Y76461D01*
X74323Y76352D01*
X73895Y76175D01*
X73500Y75933D01*
X73148Y75632D01*
X72847Y75280D01*
X72605Y74885D01*
X72428Y74457D01*
X72319Y74006D01*
X72283Y73544D01*
X72319Y73082D01*
X72428Y72631D01*
X72605Y72203D01*
X72847Y71808D01*
X73028Y71597D01*
X73009Y71592D01*
X72792Y71502D01*
X72591Y71379D01*
X72412Y71226D01*
X72259Y71047D01*
X72136Y70846D01*
X72046Y70629D01*
X71991Y70400D01*
X71973Y70165D01*
X71991Y66530D01*
X72046Y66301D01*
X72136Y66084D01*
X72259Y65883D01*
X72412Y65704D01*
X72591Y65551D01*
X72792Y65428D01*
X73009Y65338D01*
X73238Y65283D01*
X73473Y65265D01*
X75473Y65274D01*
Y63856D01*
G37*
G36*
X65591Y50812D02*X75473D01*
Y31496D01*
X65591D01*
Y50812D01*
G37*
G36*
Y224409D02*X75473D01*
Y193661D01*
X74690Y193658D01*
X73711Y194636D01*
X73783Y194932D01*
X73819Y195394D01*
X73783Y195856D01*
X73674Y196307D01*
X73497Y196735D01*
X73255Y197130D01*
X72954Y197482D01*
X72602Y197783D01*
X72207Y198025D01*
X71779Y198202D01*
X71328Y198311D01*
X70866Y198347D01*
X70404Y198311D01*
X69953Y198202D01*
X69525Y198025D01*
X69130Y197783D01*
X68778Y197482D01*
X68477Y197130D01*
X68235Y196735D01*
X68058Y196307D01*
X67949Y195856D01*
X67913Y195394D01*
X67949Y194932D01*
X68058Y194481D01*
X68235Y194053D01*
X68477Y193658D01*
X68778Y193306D01*
X69130Y193005D01*
X69525Y192763D01*
X69953Y192586D01*
X70404Y192477D01*
X70866Y192441D01*
X71328Y192477D01*
X71624Y192549D01*
X72565Y191608D01*
X72580Y188537D01*
X72635Y188308D01*
X72725Y188091D01*
X72848Y187890D01*
X73001Y187711D01*
X73180Y187558D01*
X73381Y187435D01*
X73598Y187345D01*
X73827Y187290D01*
X74062Y187272D01*
X75473Y187278D01*
Y185861D01*
X73827Y185854D01*
X73598Y185799D01*
X73381Y185709D01*
X73180Y185586D01*
X73001Y185433D01*
X72848Y185254D01*
X72725Y185053D01*
X72635Y184836D01*
X72580Y184607D01*
X72562Y184372D01*
X72578Y181180D01*
X72288Y180851D01*
X72078Y180800D01*
X71650Y180623D01*
X71255Y180381D01*
X70903Y180080D01*
X70602Y179728D01*
X70360Y179333D01*
X70183Y178905D01*
X70074Y178454D01*
X70038Y177992D01*
X70074Y177530D01*
X70183Y177079D01*
X70360Y176651D01*
X70602Y176256D01*
X70903Y175904D01*
X71255Y175603D01*
X71650Y175361D01*
X72078Y175184D01*
X72529Y175075D01*
X72991Y175039D01*
X73453Y175075D01*
X73904Y175184D01*
X74332Y175361D01*
X74727Y175603D01*
X75079Y175904D01*
X75380Y176256D01*
X75473Y176408D01*
Y173584D01*
X74569Y173580D01*
X74419Y173544D01*
X74276Y173485D01*
X74145Y173404D01*
X74027Y173304D01*
X73927Y173186D01*
X73846Y173055D01*
X73787Y172912D01*
X73751Y172762D01*
X73739Y172608D01*
X73740Y172353D01*
X73581Y172256D01*
X73405Y172106D01*
X73255Y171930D01*
X73134Y171732D01*
X73045Y171518D01*
X72991Y171293D01*
X72973Y171062D01*
X72991Y170831D01*
X73045Y170606D01*
X73134Y170392D01*
X73255Y170194D01*
X73405Y170018D01*
X73581Y169868D01*
X73748Y169766D01*
X73751Y168654D01*
X73787Y168504D01*
X73846Y168361D01*
X73927Y168230D01*
X74027Y168112D01*
X74145Y168012D01*
X74276Y167931D01*
X74419Y167872D01*
X74569Y167836D01*
X74723Y167824D01*
X75473Y167827D01*
Y166540D01*
X75397D01*
X75247Y166504D01*
X75104Y166445D01*
X74973Y166364D01*
X74855Y166264D01*
X74755Y166146D01*
X74674Y166015D01*
X74615Y165872D01*
X74579Y165722D01*
X74567Y165568D01*
X74577Y164463D01*
X74364Y164412D01*
X74150Y164323D01*
X73952Y164202D01*
X73776Y164052D01*
X73771Y164046D01*
X73759Y164036D01*
X71397Y161674D01*
Y162559D01*
X71379Y162790D01*
X71325Y163015D01*
X71236Y163229D01*
X71115Y163427D01*
X70965Y163603D01*
X70789Y163753D01*
X70591Y163874D01*
X70377Y163963D01*
X70152Y164017D01*
X69921Y164035D01*
X69690Y164017D01*
X69465Y163963D01*
X69442Y163954D01*
X69395Y164150D01*
X69155Y164730D01*
X68827Y165265D01*
X68419Y165742D01*
X67942Y166150D01*
X67407Y166478D01*
X66827Y166718D01*
X66217Y166865D01*
X65591Y166914D01*
Y168914D01*
X66217Y168963D01*
X66827Y169110D01*
X67407Y169350D01*
X67942Y169678D01*
X68419Y170086D01*
X68827Y170563D01*
X69155Y171098D01*
X69395Y171678D01*
X69542Y172288D01*
X69591Y172914D01*
X69542Y173540D01*
X69395Y174150D01*
X69155Y174730D01*
X68827Y175265D01*
X68419Y175742D01*
X67942Y176150D01*
X67407Y176478D01*
X66827Y176718D01*
X66217Y176865D01*
X65591Y176914D01*
Y224409D01*
G37*
G36*
X55591Y50811D02*X55603Y50812D01*
X65591D01*
Y31496D01*
X55591D01*
Y50811D01*
G37*
G36*
Y224409D02*X65591D01*
Y176914D01*
X64965Y176865D01*
X64355Y176718D01*
X63775Y176478D01*
X63240Y176150D01*
X62763Y175742D01*
X62355Y175265D01*
X62027Y174730D01*
X61787Y174150D01*
X61640Y173540D01*
X61591Y172914D01*
X61640Y172288D01*
X61787Y171678D01*
X62027Y171098D01*
X62355Y170563D01*
X62763Y170086D01*
X63240Y169678D01*
X63775Y169350D01*
X64355Y169110D01*
X64965Y168963D01*
X65591Y168914D01*
Y166914D01*
X64965Y166865D01*
X64355Y166718D01*
X63775Y166478D01*
X63240Y166150D01*
X62763Y165742D01*
X62355Y165265D01*
X62205Y165021D01*
X61633D01*
X59508Y167146D01*
X59542Y167288D01*
X59591Y167914D01*
X59542Y168540D01*
X59395Y169150D01*
X59155Y169730D01*
X58827Y170265D01*
X58419Y170742D01*
X57942Y171150D01*
X57407Y171478D01*
X56827Y171718D01*
X56217Y171865D01*
X55591Y171914D01*
Y173920D01*
X58747Y173926D01*
X58900Y173963D01*
X59045Y174023D01*
X59179Y174105D01*
X59298Y174207D01*
X59400Y174326D01*
X59482Y174460D01*
X59542Y174605D01*
X59579Y174758D01*
X59591Y174914D01*
X59579Y181070D01*
X59542Y181223D01*
X59482Y181368D01*
X59400Y181502D01*
X59298Y181621D01*
X59179Y181723D01*
X59045Y181805D01*
X58900Y181865D01*
X58747Y181902D01*
X58591Y181914D01*
X55591Y181908D01*
Y224409D01*
G37*
G36*
X30591D02*X55591D01*
Y181908D01*
X52435Y181902D01*
X52282Y181865D01*
X52137Y181805D01*
X52003Y181723D01*
X51884Y181621D01*
X51782Y181502D01*
X51700Y181368D01*
X51640Y181223D01*
X51603Y181070D01*
X51591Y180914D01*
X51603Y174758D01*
X51640Y174605D01*
X51700Y174460D01*
X51782Y174326D01*
X51884Y174207D01*
X52003Y174105D01*
X52137Y174023D01*
X52282Y173963D01*
X52435Y173926D01*
X52591Y173914D01*
X55591Y173920D01*
Y171914D01*
X54965Y171865D01*
X54355Y171718D01*
X53775Y171478D01*
X53240Y171150D01*
X52763Y170742D01*
X52355Y170265D01*
X52027Y169730D01*
X51787Y169150D01*
X51640Y168540D01*
X51591Y167914D01*
X51616Y167600D01*
X43937Y159921D01*
X43711Y159654D01*
X43529Y159357D01*
X43395Y159034D01*
X43313Y158694D01*
X43286Y158346D01*
Y87244D01*
X43293Y87160D01*
X43253Y63163D01*
X43252Y63150D01*
X43280Y62802D01*
X43361Y62464D01*
X43494Y62142D01*
X43676Y61845D01*
X43902Y61580D01*
X54020Y51462D01*
X54286Y51235D01*
X54583Y51053D01*
X54905Y50920D01*
X55243Y50839D01*
X55591Y50811D01*
Y31496D01*
X30591D01*
Y60159D01*
X31749Y60250D01*
X32878Y60521D01*
X33951Y60966D01*
X34941Y61572D01*
X35824Y62326D01*
X36578Y63209D01*
X37184Y64199D01*
X37629Y65272D01*
X37900Y66401D01*
X37991Y67559D01*
X37900Y68717D01*
X37629Y69846D01*
X37184Y70919D01*
X36578Y71909D01*
X35824Y72792D01*
X34941Y73546D01*
X33951Y74152D01*
X32878Y74597D01*
X31749Y74868D01*
X30591Y74959D01*
Y105159D01*
X31749Y105250D01*
X32878Y105521D01*
X33951Y105966D01*
X34941Y106572D01*
X35824Y107326D01*
X36578Y108209D01*
X37184Y109199D01*
X37629Y110272D01*
X37900Y111401D01*
X37991Y112559D01*
X37900Y113717D01*
X37629Y114846D01*
X37184Y115919D01*
X36578Y116909D01*
X35824Y117792D01*
X34941Y118546D01*
X33951Y119152D01*
X32878Y119597D01*
X31749Y119868D01*
X30591Y119959D01*
Y130514D01*
X31749Y130605D01*
X32878Y130876D01*
X33951Y131321D01*
X34941Y131927D01*
X35824Y132681D01*
X36578Y133564D01*
X37184Y134554D01*
X37629Y135627D01*
X37900Y136756D01*
X37991Y137914D01*
X37900Y139072D01*
X37629Y140201D01*
X37184Y141274D01*
X36578Y142264D01*
X35824Y143147D01*
X34941Y143901D01*
X33951Y144507D01*
X32878Y144952D01*
X31749Y145223D01*
X30591Y145314D01*
Y175514D01*
X31749Y175605D01*
X32878Y175876D01*
X33951Y176321D01*
X34941Y176927D01*
X35824Y177681D01*
X36578Y178564D01*
X37184Y179554D01*
X37629Y180627D01*
X37900Y181756D01*
X37991Y182914D01*
X37900Y184072D01*
X37629Y185201D01*
X37184Y186274D01*
X36578Y187264D01*
X35824Y188147D01*
X34941Y188901D01*
X33951Y189507D01*
X32878Y189952D01*
X31749Y190223D01*
X30591Y190314D01*
Y224409D01*
G37*
G36*
X15748D02*X30591D01*
Y190314D01*
X29433Y190223D01*
X28304Y189952D01*
X27231Y189507D01*
X26241Y188901D01*
X25358Y188147D01*
X24604Y187264D01*
X23998Y186274D01*
X23553Y185201D01*
X23282Y184072D01*
X23191Y182914D01*
X23282Y181756D01*
X23553Y180627D01*
X23998Y179554D01*
X24604Y178564D01*
X25358Y177681D01*
X26241Y176927D01*
X27231Y176321D01*
X28304Y175876D01*
X29433Y175605D01*
X30591Y175514D01*
Y145314D01*
X29433Y145223D01*
X28304Y144952D01*
X27231Y144507D01*
X26241Y143901D01*
X25358Y143147D01*
X24604Y142264D01*
X23998Y141274D01*
X23553Y140201D01*
X23282Y139072D01*
X23191Y137914D01*
X23282Y136756D01*
X23553Y135627D01*
X23998Y134554D01*
X24604Y133564D01*
X25358Y132681D01*
X26241Y131927D01*
X27231Y131321D01*
X28304Y130876D01*
X29433Y130605D01*
X30591Y130514D01*
Y119959D01*
X29433Y119868D01*
X28304Y119597D01*
X27231Y119152D01*
X26241Y118546D01*
X25358Y117792D01*
X24604Y116909D01*
X23998Y115919D01*
X23553Y114846D01*
X23282Y113717D01*
X23191Y112559D01*
X23282Y111401D01*
X23553Y110272D01*
X23998Y109199D01*
X24604Y108209D01*
X25358Y107326D01*
X26241Y106572D01*
X27231Y105966D01*
X28304Y105521D01*
X29433Y105250D01*
X30591Y105159D01*
Y74959D01*
X29433Y74868D01*
X28304Y74597D01*
X27231Y74152D01*
X26241Y73546D01*
X25358Y72792D01*
X24604Y71909D01*
X23998Y70919D01*
X23553Y69846D01*
X23282Y68717D01*
X23191Y67559D01*
X23282Y66401D01*
X23553Y65272D01*
X23998Y64199D01*
X24604Y63209D01*
X25358Y62326D01*
X26241Y61572D01*
X27231Y60966D01*
X28304Y60521D01*
X29433Y60250D01*
X30591Y60159D01*
Y31496D01*
X15748D01*
Y195311D01*
X17836Y195475D01*
X19873Y195964D01*
X21809Y196766D01*
X23595Y197861D01*
X25188Y199221D01*
X26548Y200814D01*
X27643Y202600D01*
X28445Y204536D01*
X28934Y206573D01*
X29098Y208661D01*
X28934Y210749D01*
X28445Y212786D01*
X27643Y214722D01*
X26548Y216508D01*
X25188Y218101D01*
X23595Y219461D01*
X21809Y220556D01*
X19873Y221358D01*
X17836Y221847D01*
X15748Y222011D01*
Y224409D01*
G37*
G36*
X0D02*X15748D01*
Y222011D01*
X13660Y221847D01*
X11623Y221358D01*
X9687Y220556D01*
X7901Y219461D01*
X6308Y218101D01*
X4948Y216508D01*
X3853Y214722D01*
X3051Y212786D01*
X2562Y210749D01*
X2398Y208661D01*
X2562Y206573D01*
X3051Y204536D01*
X3853Y202600D01*
X4948Y200814D01*
X6308Y199221D01*
X7901Y197861D01*
X9687Y196766D01*
X11623Y195964D01*
X13660Y195475D01*
X15748Y195311D01*
Y31496D01*
X0D01*
Y224409D01*
G37*
G54D12*X95209Y77075D02*X93311D01*
X93741Y149409D02*Y157008D01*
X95209Y78043D02*Y77075D01*
X99960Y92771D02*X94543D01*
X99960Y90802D02*X96045D01*
X93313Y88070D01*
Y85163D01*
X101671Y159015D02*X95184D01*
X94332D02*X93426Y159008D01*
X97717Y157086D02*X93780D01*
X101981Y152677D02*X101773Y152871D01*
X130591Y84330D02*X118426Y96377D01*
X131535Y98425D02*X133031Y99921D01*
X116890Y102519D02*X120984Y98425D01*
X131535D01*
X108780Y85354D02*Y101890D01*
X107363Y83937D02*Y83894D01*
X105996D01*
X105028D02*Y83937D01*
X105996Y90591D02*X105709Y89728D01*
X105996D02*Y90591D01*
X118426Y96377D02*X113307D01*
X105028Y89728D02*X103969Y90787D01*
X121926Y116062D02*X121299Y115776D01*
X113465Y116574D02*X121926D01*
X128420Y115776D02*X127760D01*
X104386Y96708D02*X105197Y97519D01*
X99960Y96708D02*X104386D01*
G54D13*X104882Y63976D02*X131457D01*
X136378Y59055D01*
G54D14*Y56980D01*
X136573D02*X136378D01*
G54D12*X228345Y67837D02*X233266Y62916D01*
X228345Y64491D02*Y57995D01*
X233464Y62876D02*Y62916D01*
X233266D01*
X228345Y74333D02*Y67837D01*
X224605Y78073D02*X228345Y74333D01*
X228738Y77483D02*X233463Y72758D01*
X233464Y82876D02*Y82995D01*
X233463D01*
X233464Y72876D02*Y72758D01*
X233463D01*
X221258Y67837D02*X224999D01*
X228345Y64491D01*
Y57995D02*X233463Y52877D01*
X233464Y52876D02*Y52877D01*
X233463D01*
X221258Y78073D02*X224605D01*
X213187Y86144D02*X221258Y78073D01*
X211415Y104058D02*Y77680D01*
X215353Y94411D02*X222045Y87719D01*
X225195D01*
X213187Y104845D02*Y86144D01*
X215353Y105239D02*Y94411D01*
X208241Y104726D02*Y55017D01*
X225195Y87719D02*X228738Y84176D01*
Y77483D01*
X206469Y103225D02*Y89386D01*
X194880Y173743D02*X225982Y142838D01*
X194998Y173743D02*X194053D01*
X191336Y139884D02*X191337D01*
X228345Y88113D02*X233463Y82995D01*
X217203Y101972D02*X221455Y97562D01*
X225195D01*
X228345Y94412D01*
X217203Y106734D02*Y101972D01*
X228345Y94412D02*Y88113D01*
X221455Y108192D02*X228148D01*
X233463Y102877D01*
X231888Y119018D02*X234251D01*
X226179Y124727D02*X231888Y119018D01*
X225982Y142838D02*Y124727D01*
X237990Y97167D02*X233463Y92640D01*
X233464Y92876D02*Y92640D01*
X233463D01*
X203738Y124727D02*X226179D01*
X234251Y119018D02*X234644Y118625D01*
X234250Y119018D02*X237990Y115081D01*
Y97167D01*
X233464Y102876D02*Y102877D01*
X233463D01*
X207766Y128664D02*X207675Y129613D01*
X207766Y128664D02*Y129845D01*
X203707Y108979D02*X206494D01*
X211415Y77680D02*X221258Y67837D01*
X194764Y77522D02*X194605Y74293D01*
X208241Y55017D02*X194880Y41656D01*
X206469Y89386D02*X194764Y77522D01*
Y41656D02*X194880D01*
X194764Y74293D02*X194605D01*
X169646Y93621D02*X172361Y96336D01*
X165471Y106774D02*X165668D01*
X164644Y118270D02*Y111971D01*
X163777Y137915D02*X163778D01*
X162991Y169727D02*X162946Y169924D01*
X162749D02*X162991D01*
X162946D02*X162749D01*
X169647Y150511D02*X169607D01*
X174953Y166774D02*X174711D01*
X172439Y120908D02*Y120986D01*
Y120987D02*Y120947D01*
Y120908D02*X172361D01*
X169685Y86767D02*Y93543D01*
X169684Y86766D02*X169685Y86767D01*
X167717Y96693D02*Y90629D01*
X169684Y91664D02*X169683D01*
X161810Y86766D02*X159374Y84330D01*
X163778Y96497D02*Y91664D01*
X165746Y86766D02*Y82404D01*
X165629Y98348D02*X163778Y96497D01*
X165746Y82404D02*Y82798D01*
X165747Y86766D02*X165746D01*
X171652D02*X171496Y83716D01*
X173621Y86766D02*Y83032D01*
X174921Y81657D01*
X175589Y86766D02*Y85822D01*
X177041Y84370D01*
X178858D01*
X180866Y82362D01*
X175760Y81657D02*Y81732D01*
X174921Y81657D01*
X180866Y82362D02*Y81617D01*
X181429D02*Y81456D01*
X180866Y81617D01*
X181429Y75783D02*Y75515D01*
X171496Y81260D02*Y83779D01*
Y81260D02*X163031Y72795D01*
X156181Y61417D02*X180984D01*
X185946Y65452D02*X181802Y61308D01*
X181102Y61299D02*X181732D01*
X153504Y64094D02*X156181Y61417D01*
X181141Y75712D02*X181338Y75783D01*
X180461D02*X176732Y72054D01*
X174792Y75823D02*X171606Y72637D01*
X167402D01*
X176732Y72054D02*Y67119D01*
X185946Y68974D02*Y65452D01*
X178378Y67119D02*Y67204D01*
X176732Y67119D01*
X167402Y72637D02*X163426Y68661D01*
X161850Y67119D01*
X163031Y72795D02*X155748D01*
X153504Y70551D01*
Y64094D01*
X163653Y67119D02*Y68661D01*
X181429Y75515D02*X181338Y75783D01*
X181429Y75712D02*X181338Y75783D01*
X154337Y101104D02*X156183D01*
X159567Y104488D01*
X149439Y103110D02*X150945Y103073D01*
X149439Y105039D02*X150157Y105041D01*
X142520Y96141D02*Y103110D01*
X147204Y105039D02*X149439D01*
X142520Y103110D02*X149439D01*
Y99136D02*X148071Y97768D01*
X130197Y84330D02*X159374D01*
X148071Y97768D02*Y92559D01*
X142717Y96141D02*Y95511D01*
Y95944D02*X142520Y96141D01*
X142717Y95944D02*X142520Y95511D01*
X142717D02*X142520D01*
X141733Y91338D02*X146850D01*
X138583Y94488D02*X141733Y91338D01*
X148071Y92559D02*X146929Y91417D01*
X154337Y124726D02*Y124727D01*
X151573Y124726D01*
X154337Y128663D02*Y128861D01*
X155945Y144763D02*X154409D01*
X155945Y144566D02*Y144763D01*
X163653Y55399D02*X165472Y53580D01*
X159417Y55360D02*Y55400D01*
Y55399D02*X163653D01*
G54D15*X174142D01*
G54D12*X166378Y43467D02*Y42047D01*
Y43467D02*X166139Y41896D01*
X165472Y43467D02*X166378D01*
X165472Y42047D02*X166378Y43467D01*
G54D15*X178378Y55399D02*Y55157D01*
X176575Y55399D01*
G54D12*X165472Y42047D02*Y43467D01*
X166139Y41896D02*X165472Y42047D01*
X166378D01*
X93311Y78043D02*X95209D01*
X98268Y81102D01*
G54D13*X93937Y53031D02*X104882Y63976D01*
G54D12*X165472Y41692D02*X165787Y41377D01*
X166496D02*X165787D01*
X166139D02*X166496D01*
G54D15*X165472Y53580D02*Y41692D01*
G54D12*X166139Y41896D02*Y41377D01*
X98268Y81102D02*Y88624D01*
X108780Y85354D02*X107363Y83937D01*
X105028D01*
X105996Y89728D02*X105961Y89763D01*
X105028Y83894D02*X100339Y88583D01*
X104846Y90591D02*X105709Y89728D01*
X93311Y82114D02*Y87720D01*
X93313Y85163D02*X93307Y85157D01*
X90882Y92771D02*X93150Y95747D01*
X93071Y95669D02*Y95630D01*
X90079Y88386D02*X91050D01*
X90079D02*Y88504D01*
Y88386D02*X90473Y88780D01*
X90079D02*Y88386D01*
Y88504D02*X91168Y88780D01*
X90079D02*X91378D01*
X90473D01*
X94543Y92771D02*X90079Y88307D01*
X83408Y88724D02*X87441Y84691D01*
Y82284D01*
X87481Y82244D01*
X87477Y82114D02*X87481Y82110D01*
X87477Y82244D02*X87481D01*
X70827Y77401D02*X76654D01*
X83858Y69882D02*Y70040D01*
X76654Y77401D02*X84016Y70039D01*
X75236Y73544D02*X75197Y73505D01*
X83937Y69882D02*X83858D01*
X83937Y70040D02*X83622D01*
X79425Y90802D02*X76260Y87637D01*
X87477Y77075D02*X87481D01*
X79331Y90708D02*X76221Y87598D01*
G54D16*X37794Y17125D02*X42519Y14763D01*
X49605Y17125D02*X44881Y14763D01*
X48030Y13188D02*X49605Y12007D01*
X44881Y14763D02*X48030Y13188D01*
X42519Y14763D02*X39369Y13188D01*
X37794Y17125D02*X43700Y19094D01*
X49605Y17125D01*
X39369Y13188D02*X37794Y12007D01*
G54D12*X87481Y82110D02*Y77075D01*
X75773Y68465D02*Y68229D01*
X75197Y68465D01*
X69252Y60472D02*X75709D01*
G54D13*X45472Y63149D02*X55590Y53031D01*
G54D12*X82374Y57755D02*X82334Y57795D01*
G54D13*X55590Y53031D02*X93937D01*
G54D12*X80906Y57599D02*X80748D01*
X82334Y57795D02*X80787D01*
X78228Y60670D02*X75773D01*
X80906Y57992D02*X78228Y60670D01*
X75773Y60665D02*Y60670D01*
X80906Y57599D02*Y59331D01*
Y57914D02*Y57599D01*
X79685Y59331D02*X80906Y57914D01*
X83937Y69725D02*X83622Y70040D01*
X83937Y69567D02*Y70040D01*
X80906Y59331D02*X79685D01*
X83937Y64565D02*Y69725D01*
Y69567D02*X83858Y70040D01*
X60827Y68897D02*X69252Y60472D01*
X70787Y77363D02*X65591Y82559D01*
X75197Y73505D02*Y68465D01*
X65591Y82559D02*X65906D01*
X60827Y84094D02*Y68897D01*
X76221Y87598D02*X64331D01*
G54D13*X45512Y87440D02*X45472Y63149D01*
G54D17*X60513Y92637D02*X65591D01*
Y92559D02*Y92637D01*
G54D12*X64331Y87598D02*X60827Y84094D01*
X210628Y129845D02*X211219D01*
X207282D02*X207675Y129613D01*
X207766Y129845D02*X207675Y129613D01*
X207766Y129845D02*X217124D01*
X203707Y128664D02*X203541Y128665D01*
Y128664D01*
X203738Y126695D02*Y124727D01*
X203707Y126696D02*Y126695D01*
Y128664D02*X207675Y129613D01*
X206494Y108979D02*X211415Y104058D01*
X207676Y112916D02*X215353Y105239D01*
X207085Y110947D02*X213187Y104845D01*
X212794Y116853D02*X221455Y108192D01*
X208975Y114923D02*X217203Y106734D01*
X203707Y110948D02*Y110947D01*
X203542Y110948D02*X203707Y110947D01*
Y107010D02*X205957D01*
X203707Y107011D02*Y107010D01*
X205957D02*X208241Y104726D01*
X203707Y105042D02*X204652D01*
X206469Y103225D01*
X203707Y112916D02*X207676D01*
X203707Y114923D02*X208975D01*
X203707Y114885D02*Y114923D01*
Y116853D02*X212794D01*
X203707Y110947D02*X207085D01*
X168664Y156104D02*X163780Y151220D01*
X175787Y157716D02*X174921Y157637D01*
X175866Y157716D02*X174921D01*
Y157637D02*Y157716D01*
Y157795D02*X175787Y157716D01*
X161809Y150435D02*X155617Y156627D01*
X191336Y142325D02*X175866Y157795D01*
X182872Y169215D02*X190352D01*
X155945Y144685D02*X155787Y144763D01*
X156693Y136220D02*Y136496D01*
X175118Y149763D02*Y150944D01*
X174724D01*
X191337Y139884D02*X202557Y128664D01*
X196614Y134448D02*X196732D01*
X194016Y131850D02*X196614Y134448D01*
X182242Y124884D02*X184014Y123073D01*
X186812Y129015D02*X190984Y124846D01*
X185025Y126656D02*X186534Y125147D01*
X187361Y124320D02*X185340Y126341D01*
X191336Y141034D02*Y142325D01*
X168897Y126656D02*X185025D01*
X182281Y124884D02*X171258D01*
X159567Y118543D02*X165394Y124370D01*
X159567Y104488D02*Y118543D01*
X141496Y120827D02*Y130274D01*
X145158Y124213D02*X146733Y124804D01*
X141102Y130668D02*X141496Y130274D01*
X144961Y117362D02*X141496Y120827D01*
X132953Y124094D02*X132992Y124133D01*
X136496Y125196D02*X135472Y126220D01*
Y130669D01*
X132953Y124094D02*X132835D01*
X132913Y124173D02*Y124094D01*
Y124095D02*Y124094D01*
X141063Y130668D02*X141102D01*
X132992Y142741D02*Y124133D01*
X135551Y130826D02*Y140630D01*
X137598Y135157D02*X138622Y136181D01*
X139016D01*
Y135314D02*X137756Y135157D01*
X139016Y136181D02*Y135157D01*
X137598D01*
X155590Y144566D02*X139487D01*
X141063Y130747D02*Y130668D01*
X139055Y125905D02*X137756Y127204D01*
Y135157D01*
X142047Y110196D02*X147204Y105039D01*
X148494Y107010D02*X146284Y109220D01*
X146063Y109330D02*Y116103D01*
X146299Y109173D02*X146220Y109252D01*
X133031Y99921D02*Y118818D01*
X128420Y109047D02*X127760D01*
X149439Y107010D02*X148494D01*
X149439Y103073D02*Y103110D01*
Y105041D02*Y105039D01*
X122520Y121377D02*X122480Y121417D01*
X124350Y123207D02*Y131790D01*
X120197Y121535D02*Y121417D01*
X133228Y118976D02*X136496Y122244D01*
Y125196D01*
X139055Y118188D02*Y125905D01*
X128420Y109047D02*Y115776D01*
X171258Y124884D02*X164644Y118270D01*
X172400Y120908D02*X172361Y120986D01*
X183739Y110986D02*Y112206D01*
Y110986D02*X187361Y114608D01*
Y124320D01*
X172439Y120987D02*X172400Y120908D01*
X172439Y120947D02*X172400Y120908D01*
X163819Y132441D02*X170314Y128779D01*
X161850Y130590D02*X168897Y126656D01*
X170314Y128779D02*X186812Y129015D01*
X154337Y126695D02*X156499D01*
X158465Y128661D02*Y134527D01*
X156499Y126695D02*X158465Y128661D01*
X167714Y136136D02*X167716Y134126D01*
Y134330D02*Y134291D01*
X170229Y131613D02*X171378D01*
X167716Y134126D02*X170229Y131613D01*
X171378Y132401D02*Y131613D01*
X158465Y134527D02*X156693Y136299D01*
X161809Y138506D02*X161849D01*
X156614Y136496D02*X156693Y136417D01*
Y136220D01*
Y136496D02*X156614D01*
X156693Y136220D02*Y136299D01*
X194329Y109477D02*X190983Y112823D01*
X190984Y124846D02*Y112834D01*
X164644Y111852D02*X164525Y111971D01*
X164644D02*X164525D01*
X169014Y98112D02*Y117128D01*
X172361Y120908D02*Y96336D01*
X169094Y98070D02*X167717Y96693D01*
X165629Y106774D02*Y98348D01*
X164644Y112955D02*Y111852D01*
X94646Y142165D02*X100984Y135827D01*
X95787Y136024D02*X94961Y136850D01*
X97598Y124173D02*X95813Y125958D01*
Y135236D01*
X120157Y127244D02*X112677Y134724D01*
X111417D01*
X95787Y135314D02*Y136024D01*
X106850Y109959D02*Y101890D01*
X116700Y108424D02*X116890Y102519D01*
Y104378D02*X116700D01*
Y108307D02*X115747D01*
X113465Y116574D02*X106850Y109959D01*
X113465Y116534D02*X113505Y116574D01*
X113465Y116534D02*Y117283D01*
X112756D01*
X98543Y118779D02*Y105708D01*
Y105747D02*X98740Y105708D01*
X98543D01*
X96614Y110905D02*Y119527D01*
X107795Y157480D02*X107637Y157322D01*
X97874Y156929D02*X97717Y157086D01*
X93741Y156732D02*Y157008D01*
Y157007D02*Y156732D01*
X101981Y152677D02*X103543D01*
X113622Y123700D02*X112047Y123661D01*
X113622Y124803D02*Y123661D01*
X111968D01*
X74449Y171062D02*X76139D01*
Y170224D02*X76142Y170227D01*
X76139D02*X76142D01*
X70157Y158346D02*X74803Y162992D01*
X72370Y165008D02*X69921Y162559D01*
Y161191D01*
X76084Y163008D02*X74820D01*
X76139Y170224D02*X76143Y170220D01*
Y165008D01*
X76084D02*X72370D01*
X65472Y148149D02*X66181D01*
X70157Y150669D02*X67637Y148149D01*
X65591Y153032D02*Y153296D01*
X65551D02*X67020D01*
X65591D02*X65551D01*
X66756D02*X65591Y153032D01*
X67020Y153296D02*X66756D01*
X60866Y144242D02*X64656Y148032D01*
X64724Y148110D02*X64763Y148149D01*
X65591Y153296D02*Y152914D01*
X60787Y144133D02*X62205Y145551D01*
X70157Y158346D02*Y157204D01*
X65551Y153729D02*Y153296D01*
X69921Y161191D02*X64005Y155275D01*
X65551Y153729D01*
X64763Y148149D02*X67637D01*
G54D17*X65591Y162914D02*Y162795D01*
G54D12*X72835Y157322D02*Y141670D01*
X70157Y150669D02*Y157244D01*
X72835Y157243D02*Y157322D01*
X155617Y177124D02*Y156627D01*
Y182958D02*X162990D01*
X162946Y177366D02*X163143Y177563D01*
X162990D02*X163143D01*
X162990Y177366D02*X162946D01*
X135551Y140630D02*X139487Y144566D01*
X154337Y128861D02*X152164Y128663D01*
X151573Y124726D02*X146733Y124804D01*
X152164Y132128D02*Y128663D01*
X149488Y144566D02*X150551D01*
X162991Y164656D02*X162830D01*
X155590Y144566D02*X155787Y144763D01*
X155945Y144566D02*X155748Y144763D01*
X162830Y156944D02*Y164656D01*
X112756Y117283D02*X113505Y116574D01*
X146260Y109133D02*X146063Y109330D01*
Y116103D02*X144843Y117323D01*
X100984Y135827D02*Y121220D01*
X96614Y119527D02*X90551Y125590D01*
X111968Y123661D02*X113110Y124803D01*
X113622D01*
X122480Y121417D02*X120197D01*
X124350Y123207D02*X122520Y121377D01*
X124350Y131653D02*X112520Y143386D01*
X161809Y150435D02*Y141034D01*
X163780Y151220D02*X163778Y137915D01*
X165746Y141034D02*Y146650D01*
X174291Y150511D02*X174724Y150944D01*
X169607Y150511D02*X174291D01*
X165746Y146650D02*X169647Y150511D01*
X169683Y144839D02*X170473Y145629D01*
X169683Y141034D02*Y144839D01*
X163780Y132519D02*X163777Y138585D01*
X161850Y130590D02*X161849Y138506D01*
X164644Y112955D02*Y112128D01*
X89134Y156811D02*Y155472D01*
X101655Y152677D02*X101300Y152871D01*
X104725Y153896D02*X103584Y152755D01*
X103544Y152795D01*
X101773Y152871D01*
X105472Y154606D02*X103543Y152677D01*
X101981Y152871D02*Y152677D01*
X99429Y168168D02*X105472Y162125D01*
X107795Y157480D02*Y157322D01*
X105472D02*X107795D01*
X102112Y173621D02*X132992Y142741D01*
X105472Y154606D02*Y162125D01*
X112520Y143346D02*Y157992D01*
X112500Y158052D02*X100120Y170432D01*
X194053Y173940D02*X194880Y173743D01*
X190352Y169215D02*X194053Y172916D01*
X194998Y173940D02*X194880Y173743D01*
X194053Y172916D02*Y173743D01*
X194998Y174568D02*Y173743D01*
X174711Y168892D02*X174710Y168893D01*
X175787Y157716D02*X175866Y157795D01*
X174921D02*Y157637D01*
X174710Y168893D02*Y178791D01*
X180590Y166774D02*X174711D01*
X182912Y169215D02*X180590Y166774D01*
X110984Y107794D02*X115747Y108307D01*
X127760Y116744D02*X128420D01*
X121299Y115776D02*X121926D01*
X102992Y109921D02*Y114645D01*
X112047Y123661D01*
X116700Y106889D02*X116222D01*
X138976Y118110D02*X138583Y117717D01*
Y94488D01*
X120039Y127244D02*X120157D01*
X132913Y124095D02*X132835Y124094D01*
X105197Y97599D02*X104173Y96536D01*
X80866Y94740D02*X75338D01*
X64252Y97008D02*X60787Y100473D01*
X73071Y97008D02*X64252D01*
X80354Y103189D02*Y122992D01*
Y116497D02*Y116496D01*
X76195Y116617D02*X76276Y116536D01*
X80354Y116497D01*
X80197Y116535D02*X80236Y116574D01*
X80354Y116497D02*X80079Y116496D01*
X80354D01*
X80808Y96624D02*Y96654D01*
X80818Y96624D01*
X80942Y101919D02*X80945Y102205D01*
Y96654D01*
X75338Y94740D02*X73071Y97007D01*
X80818Y96624D02*X80945Y96654D01*
X80866Y90802D02*X79425D01*
X80354Y103189D02*X80079D01*
X81063Y102205D01*
X86776Y101919D02*X86805Y101890D01*
X80942Y102205D02*X81063D01*
X80818Y96624D02*X87638Y96614D01*
X86063Y96575D02*X87598D01*
Y96614D02*X87638D01*
X87598Y96575D02*Y96614D01*
X80866Y92771D02*X90882D01*
X80236Y116574D02*X85591D01*
X87165Y116102D02*X83701D01*
X84242Y116259D02*X85000D01*
X83963Y116538D02*X84242Y116259D01*
X84395Y120517D02*X84557Y120355D01*
X86732Y120511D02*X89055Y118188D01*
X84401Y120511D02*X86732D01*
X84395Y120517D02*X84401Y120511D01*
X84291Y107952D02*Y112677D01*
X90551Y112716D02*X87165Y116102D01*
X91614Y107322D02*X91692Y105905D01*
X89055Y118188D02*X91378D01*
X100984Y121220D02*X98543Y118779D01*
X91614Y105905D02*X91692D01*
X91614D02*Y107401D01*
Y105905D02*X96614Y110905D01*
X91103Y88503D02*X90039D01*
X91260Y88346D02*X91103Y88503D01*
X103969Y90787D02*X98976D01*
X99960Y94740D02*X94347D01*
X93071Y95669D02*X94252D01*
X94347Y94740D02*X93245Y95842D01*
X93071Y95709D02*Y95630D01*
X93245Y95842D02*X93111Y95708D01*
X108780Y101890D02*X86805D01*
X60787Y101654D02*Y101693D01*
G54D17*X45512Y158346D02*Y87244D01*
G54D12*X60787Y100473D02*Y144133D01*
G54D13*X55591Y97559D02*X45512Y87440D01*
G54D17*X55591Y97559D02*X60513Y92637D01*
X60710Y162795D02*X65591D01*
X45512Y158346D02*X54843Y167677D01*
X55591Y167914D02*X60710Y162795D01*
X55591Y167914D02*Y167677D01*
X54843D01*
G54D12*X88403Y163009D02*X88110Y162716D01*
X90551Y192716D02*Y193503D01*
Y193110D02*Y193582D01*
X89685Y194448D02*X89173D01*
X80338D02*X89685D01*
X90551Y193582D02*X89685Y194448D01*
X90394Y193739D01*
X102126Y173543D02*X90551Y185118D01*
X84528Y186572D02*Y191063D01*
X76378Y182638D02*Y182534D01*
X90551Y185118D02*Y193582D01*
X83962Y186572D02*X73304D01*
X75961Y182672D02*X75803Y182604D01*
X76362Y182638D02*X76378Y182604D01*
X70866Y195394D02*X75669Y190591D01*
X76362Y190472D02*X80338Y194448D01*
X76362Y190472D02*Y190591D01*
Y182604D02*Y182672D01*
Y182638D01*
X76378D02*X75961Y182762D01*
X76378Y182534D02*X75961Y182672D01*
X76362D02*X76378Y182604D01*
X76362D02*X75961Y182672D01*
X76362D02*X76378Y182565D01*
X72991Y177992D02*X72085Y178387D01*
X69252Y182520D02*Y176259D01*
X73304Y186572D02*X69252Y182520D01*
X76378Y182046D02*X87992Y170432D01*
X69252Y176259D02*X74449Y171062D01*
X72085Y178387D02*X75803Y182604D01*
X76378Y182638D02*X75961Y182672D01*
Y182762D02*Y182672D01*
X76378Y182565D02*X75961Y182672D01*
X76362Y182638D01*
X76378Y182046D02*Y182672D01*
X89137Y145837D02*X89213Y145761D01*
Y145551D02*X89137Y145512D01*
Y144842D02*Y142674D01*
Y145761D02*X89213D01*
X89137Y145551D02*X89213D01*
X89685Y134686D02*X84449Y134644D01*
X93071Y132638D02*X90472Y130039D01*
X93071Y135894D02*X86299Y142666D01*
X89804Y134567D02*X89685Y134686D01*
X89137Y142674D02*X95000Y136811D01*
X93071Y132598D02*Y135894D01*
X84761Y135555D02*Y134607D01*
Y134644D02*Y135555D01*
Y134607D02*X84449Y134644D01*
X86299Y142666D02*Y161063D01*
X89138Y151035D02*Y156381D01*
X89137Y144842D02*X93741Y149409D01*
X91299Y158976D02*X89134Y156811D01*
X91614Y158976D02*X91299D01*
X83303Y144869D02*X83229D01*
X78684Y157108D02*X83229Y152563D01*
Y144869D01*
X78684Y161008D02*Y161063D01*
X77127Y161008D01*
X75961Y138544D02*X72835Y141670D01*
X76561Y138582D02*X76260Y138544D01*
X76561D02*Y138582D01*
X75590Y138465D02*X71693D01*
X75882D02*Y138544D01*
X90472Y130039D02*Y124646D01*
X84761Y134644D02*X86142Y133263D01*
Y126457D01*
X90551Y125590D02*Y126377D01*
X84252Y139212D02*X83622Y138582D01*
X76260Y138544D01*
X76221D02*X75590Y138465D01*
X75961Y138544D02*X75882Y138465D01*
Y138544D02*X75590Y138465D01*
X81693Y124331D02*X80354Y122992D01*
X86142Y126457D02*X84016Y124331D01*
X81693D01*
X76299Y130434D02*X76260Y130744D01*
X75961D02*X77098Y129607D01*
X76561Y130744D02*Y130395D01*
X77098Y129607D02*Y130744D01*
X76561Y130395D02*X76299Y130434D01*
X82009Y127638D02*X81891Y127520D01*
X77098Y129607D02*X82284Y127599D01*
X82009Y127638D02*Y127520D01*
Y127599D02*X82284D01*
X82009Y127520D02*X81891D01*
X86498Y161063D02*X78684D01*
Y159108D02*X74621D01*
X72835Y157322D01*
X95184Y159008D02*Y159015D01*
X97913Y160984D02*X99842Y162992D01*
X101981Y152871D02*X97845Y157007D01*
X95184Y161008D02*X97913Y160984D01*
X101671Y158705D02*Y159015D01*
X95184D02*X93426Y159008D01*
X87992Y170432D02*X100120D01*
X84029Y168168D02*X99429D01*
X81973Y170224D02*X84029Y168168D01*
X88343Y162908D02*X86498Y161063D01*
X95171Y164908D02*X83898Y164921D01*
X91733Y158976D02*X94332Y159015D01*
X95236Y163009D02*X88403D01*
X43700Y6692D02*G75*G03X52558Y15550I0J8858D01*G01*
X34842Y15552D02*G75*G03X43702Y6692I8860J0D01*G01*
X43699Y24409D02*G75*G03X34842Y15552I0J-8857D01*G01*
X52558Y15550D02*G75*G03X43699Y24409I-8859J0D01*G01*
G54D18*X59775Y21342D02*X61935D01*
X62655Y22062D01*
X61935Y22782D02*X62655Y22062D01*
X59775Y22782D02*X61935D01*
X59055Y23502D02*X59775Y22782D01*
X59055Y23502D02*X59775Y24222D01*
X61935D01*
X62655Y23502D01*
X59055Y22062D02*X59775Y21342D01*
X65104Y23502D02*Y21342D01*
Y23502D02*X65824Y24222D01*
X67264D01*
X64384D02*X65104Y23502D01*
X68993D02*Y22062D01*
Y23502D02*X69713Y24222D01*
X71153D01*
X71873Y23502D01*
Y22062D01*
X71153Y21342D02*X71873Y22062D01*
X69713Y21342D02*X71153D01*
X68993Y22062D02*X69713Y21342D01*
X73603Y27102D02*Y21342D01*
Y22062D02*X74323Y21342D01*
X75763D01*
X76483Y22062D01*
Y23502D02*Y22062D01*
X75763Y24222D02*X76483Y23502D01*
X74323Y24222D02*X75763D01*
X73603Y23502D02*X74323Y24222D01*
X78212Y23502D02*Y22062D01*
Y23502D02*X78932Y24222D01*
X80372D01*
X81092Y23502D01*
Y22062D01*
X80372Y21342D02*X81092Y22062D01*
X78932Y21342D02*X80372D01*
X78212Y22062D02*X78932Y21342D01*
X82822D02*X83542D01*
X85271Y23502D02*Y22062D01*
Y23502D02*X85991Y24222D01*
X87431D01*
X88151Y23502D01*
Y22062D01*
X87431Y21342D02*X88151Y22062D01*
X85991Y21342D02*X87431D01*
X85271Y22062D02*X85991Y21342D01*
X90601Y23502D02*Y21342D01*
Y23502D02*X91321Y24222D01*
X92761D01*
X89881D02*X90601Y23502D01*
X96650Y24222D02*X97370Y23502D01*
X95210Y24222D02*X96650D01*
X94490Y23502D02*X95210Y24222D01*
X94490Y23502D02*Y22062D01*
X95210Y21342D01*
X96650D01*
X97370Y22062D01*
X94490Y19902D02*X95210Y19182D01*
X96650D01*
X97370Y19902D01*
Y24222D02*Y19902D01*
X59555Y16716D02*Y12716D01*
X59055Y16716D02*X61055D01*
X61555Y16216D01*
Y15216D01*
X61055Y14716D02*X61555Y15216D01*
X59555Y14716D02*X61055D01*
X63256Y12716D02*X64756D01*
X62756Y13216D02*X63256Y12716D01*
X62756Y16216D02*Y13216D01*
Y16216D02*X63256Y16716D01*
X64756D01*
X65957Y14716D02*X67957D01*
X71158Y16716D02*X71658Y16216D01*
X69658Y16716D02*X71158D01*
X69158Y16216D02*X69658Y16716D01*
X69158Y16216D02*Y15216D01*
X69658Y14716D01*
X71158D01*
X71658Y14216D01*
Y13216D01*
X71158Y12716D02*X71658Y13216D01*
X69658Y12716D02*X71158D01*
X69158Y13216D02*X69658Y12716D01*
X72859Y16716D02*X74859D01*
X75359Y16216D01*
Y15216D01*
X74859Y14716D02*X75359Y15216D01*
X73359Y14716D02*X74859D01*
X73359Y16716D02*Y12716D01*
Y14716D02*X75359Y12716D01*
X76560Y16716D02*X77560D01*
X77060D02*Y12716D01*
X76560D02*X77560D01*
X79261D02*X80761D01*
X78761Y13216D02*X79261Y12716D01*
X78761Y16216D02*Y13216D01*
Y16216D02*X79261Y16716D01*
X80761D01*
X61055Y7858D02*X61555Y7358D01*
X59555Y7858D02*X61055D01*
X59055Y7358D02*X59555Y7858D01*
X59055Y7358D02*Y6358D01*
X59555Y5858D01*
X61055D01*
X61555Y5358D01*
Y4358D01*
X61055Y3858D02*X61555Y4358D01*
X59555Y3858D02*X61055D01*
X59055Y4358D02*X59555Y3858D01*
X62756Y7858D02*X64756D01*
X65256Y7358D01*
Y6358D01*
X64756Y5858D02*X65256Y6358D01*
X63256Y5858D02*X64756D01*
X63256Y7858D02*Y3858D01*
Y5858D02*X65256Y3858D01*
X66957D02*X67957D01*
X67457Y7858D02*Y3858D01*
X66457Y6858D02*X67457Y7858D01*
X69658Y3858D02*X70658D01*
X70158Y7858D02*Y3858D01*
X69158Y6858D02*X70158Y7858D01*
X71859Y3858D02*X72359D01*
X74060Y7858D02*Y3858D01*
X73560Y7858D02*X75560D01*
X76060Y7358D01*
Y6358D01*
X75560Y5858D02*X76060Y6358D01*
X74060Y5858D02*X75560D01*
X77761Y3858D02*X78761D01*
X78261Y7858D02*Y3858D01*
X77261Y6858D02*X78261Y7858D01*
G54D19*X205667Y193269D03*
G54D20*X187124Y164726D03*
Y174568D03*
X194998Y164726D03*
Y174568D03*
G54D19*X205667Y146025D03*
G54D11*G36*
X230315Y56025D02*Y49726D01*
X236614D01*
Y56025D01*
X230315D01*
G37*
G54D21*X136611Y41896D03*
X166139D03*
G54D11*G36*
X123573Y59980D02*Y53980D01*
X129573D01*
Y59980D01*
X123573D01*
G37*
G54D22*X136573Y56980D03*
X146573D03*
G54D23*X223464Y52876D03*
Y62876D03*
Y72876D03*
X233464Y62876D03*
Y72876D03*
Y82876D03*
Y92876D03*
Y102876D03*
Y112876D03*
X223464Y82876D03*
Y92876D03*
Y102876D03*
Y112876D03*
G54D22*X65591Y142914D03*
Y152914D03*
Y72559D03*
Y92559D03*
Y102559D03*
Y82559D03*
X55591Y147914D03*
X65591Y162914D03*
Y172914D03*
X55591Y167914D03*
G54D11*G36*
X52591Y180914D02*Y174914D01*
X58591D01*
Y180914D01*
X52591D01*
G37*
G54D22*X55591Y157914D03*
Y77559D03*
Y97559D03*
Y87559D03*
G54D11*G36*
X52591Y110559D02*Y104559D01*
X58591D01*
Y110559D01*
X52591D01*
G37*
G54D24*X70866Y195394D03*
X83898Y164921D03*
X84528Y191063D03*
X72991Y177992D03*
X107795Y157480D03*
X99842Y162992D03*
X174921Y157637D03*
X175118Y149763D03*
X170473Y145629D03*
X155945Y144566D03*
X156693Y136220D03*
X152164Y132128D03*
X145158Y124213D03*
X139016Y136181D03*
X141063Y130747D03*
X132913Y124173D03*
X142047Y110196D03*
X142717Y96141D03*
X120197Y121535D03*
X120157Y127244D03*
X111417Y134724D03*
X113622Y124803D03*
X194329Y109477D03*
X184014Y123073D03*
X217124Y129845D03*
X164644Y112128D03*
X165668Y106774D03*
X165746Y82404D03*
X165394Y124370D03*
X183739Y110986D03*
X169014Y117128D03*
X172439Y120987D03*
X171378Y132401D03*
X194016Y131850D03*
X185946Y68974D03*
X87598Y96575D03*
X75236Y73544D03*
X83937Y69725D03*
X80906Y57992D03*
X90079Y88386D03*
X93071Y95709D03*
X98543Y105747D03*
X91614Y105905D03*
X84291Y107952D03*
X90551Y112716D03*
X91378Y118188D03*
X102992Y109921D03*
X97598Y124173D03*
X71693Y138465D03*
X82009Y127638D03*
X89804Y134567D03*
X84252Y139212D03*
X94646Y142165D03*
X113465Y116574D03*
X105197Y97599D03*
X110984Y107794D03*
X113307Y96377D03*
G54D25*X191336Y141034D02*Y136136D01*
X189368Y141034D02*Y136136D01*
X187399Y141034D02*Y136136D01*
X185431Y141034D02*Y136136D01*
X183462Y141034D02*Y136136D01*
X181494Y141034D02*Y136136D01*
X179525Y141034D02*Y136136D01*
X177557Y141034D02*Y136136D01*
X175588Y141034D02*Y136136D01*
X173620Y141034D02*Y136136D01*
X171651Y141034D02*Y136136D01*
X169683Y141034D02*Y136136D01*
X167714Y141034D02*Y136136D01*
G54D26*X168664Y156944D02*Y155976D01*
G54D27*X174710Y183027D02*Y178791D01*
X174711Y168892D02*Y164656D01*
G54D25*X165746Y141034D02*Y136136D01*
X163777Y141034D02*Y136136D01*
X161809Y141034D02*Y136136D01*
G54D26*X162830Y156944D02*Y155976D01*
G54D27*X162990Y183027D02*Y178791D01*
G54D26*X155617Y177124D02*X156585D01*
X155617Y182958D02*X156585D01*
G54D27*X162991Y168892D02*Y164656D01*
X116700Y108614D02*Y104378D01*
G54D26*X121926Y116744D02*Y115776D01*
X105028Y89728D02*X105996D01*
G54D28*X97351Y88834D02*X99960D01*
X97351Y90802D02*X99960D01*
X97351Y92771D02*X99960D01*
X97351Y94740D02*X99960D01*
X97351Y96708D02*X99960D01*
G54D29*X75173Y68465D02*X75773D01*
X75173Y60665D02*X75773D01*
X83373Y64565D02*X83973D01*
G54D26*X87477Y78043D02*Y77075D01*
X93311Y78043D02*Y77075D01*
Y83082D02*Y82114D01*
X87477Y83082D02*Y82114D01*
X86776Y102887D02*Y101919D01*
X80942Y102887D02*Y101919D01*
G54D28*X80866Y96708D02*X83464D01*
X80866Y94740D02*X83464D01*
X80866Y92771D02*X83464D01*
X80866Y90802D02*X83464D01*
X80866Y88834D02*X83464D01*
G54D26*X105028Y83894D02*X105996D01*
G54D27*X128420Y108614D02*Y104378D01*
G54D26*X127760Y116744D02*Y115776D01*
G54D25*X149439Y128663D02*X154337D01*
X149439Y126695D02*X154337D01*
X149439Y124726D02*X154337D01*
X149439Y122758D02*X154337D01*
X149439Y120789D02*X154337D01*
X149439Y118821D02*X154337D01*
X149439Y116852D02*X154337D01*
X149439Y114884D02*X154337D01*
X149439Y112915D02*X154337D01*
X149439Y110947D02*X154337D01*
X149439Y108978D02*X154337D01*
X149439Y107010D02*X154337D01*
X149439Y105041D02*X154337D01*
X149439Y103073D02*X154337D01*
X149439Y101104D02*X154337D01*
X149439Y99136D02*X154337D01*
X161810Y91664D02*Y86766D01*
X163778Y91664D02*Y86766D01*
X165747Y91664D02*Y86766D01*
X167715Y91664D02*Y86766D01*
X169684Y91664D02*Y86766D01*
X171652Y91664D02*Y86766D01*
X173621Y91664D02*Y86766D01*
X175589Y91664D02*Y86766D01*
X177558Y91664D02*Y86766D01*
X198809Y101105D02*X203707D01*
X198809Y103074D02*X203707D01*
X198809Y105042D02*X203707D01*
X198809Y107011D02*X203707D01*
X198809Y108979D02*X203707D01*
X198809Y110948D02*X203707D01*
X198809Y112916D02*X203707D01*
X198809Y114885D02*X203707D01*
X198809Y116853D02*X203707D01*
X198809Y118822D02*X203707D01*
X198809Y120790D02*X203707D01*
X198809Y122759D02*X203707D01*
X198809Y124727D02*X203707D01*
X198809Y126696D02*X203707D01*
X198809Y128664D02*X203707D01*
G54D26*X206798Y129613D02*X207766D01*
X206798Y123779D02*X207766D01*
G54D25*X179526Y91664D02*Y86766D01*
X181495Y91664D02*Y86766D01*
X183463Y91664D02*Y86766D01*
X185432Y91664D02*Y86766D01*
X187400Y91664D02*Y86766D01*
X189369Y91664D02*Y86766D01*
G54D26*X180461Y81617D02*X181429D01*
X174792Y81657D02*X175760D01*
X180461Y75783D02*X181429D01*
X174792Y75823D02*X175760D01*
G54D25*X191337Y91664D02*Y86766D01*
X198809Y99137D02*X203707D01*
G54D30*X194764Y79313D02*Y65533D01*
Y41715D02*Y27935D01*
G54D27*X159417Y55399D02*X163653D01*
X174142Y67119D02*X178378D01*
X159417D02*X163653D01*
X174142Y55399D02*X178378D01*
G54D29*X75961Y130744D02*X76561D01*
X84161Y134644D02*X84761D01*
G54D26*X89137Y145837D02*Y144869D01*
X83303Y145837D02*Y144869D01*
G54D29*X75961Y138544D02*X76561D01*
X75762Y190472D02*X76362D01*
X75762Y182672D02*X76362D01*
X83962Y186572D02*X84562D01*
G54D26*X81973Y171192D02*Y170224D01*
X76139Y171192D02*Y170224D01*
G54D29*X83795Y112717D02*X84395D01*
X83795Y120517D02*X84395D01*
X75595Y116617D02*X76195D01*
G54D26*X89138Y151035D02*Y150067D01*
X83304Y151035D02*Y150067D01*
X101013Y152871D02*X101981D01*
X101013Y158705D02*X101981D01*
G54D28*X92627Y157103D02*X95236D01*
X92627Y159071D02*X95236D01*
X92627Y161040D02*X95236D01*
X92627Y163009D02*X95236D01*
X92627Y164977D02*X95236D01*
X76142D02*X78740D01*
X76142Y163009D02*X78740D01*
X76142Y161040D02*X78740D01*
X76142Y159071D02*X78740D01*
X76142Y157103D02*X78740D01*
G54D31*G54D32*G54D33*G54D32*G54D24*G54D22*G54D34*G54D24*G54D31*G54D24*G54D31*G54D35*G54D36*G54D35*G54D36*G54D35*G54D37*M02*
